<svg width="70" height="69" viewBox="0 0 70 69" fill="none" xmlns="http://www.w3.org/2000/svg">
<path fill-rule="evenodd" clip-rule="evenodd" d="M35 69C54.0538 69 69.5 53.5538 69.5 34.5C69.5 15.4462 54.0538 0 35 0C15.9462 0 0.5 15.4462 0.5 34.5C0.5 53.5538 15.9462 69 35 69Z" fill="#5454D4" fill-opacity="0.1"/>
<path d="M31.4994 35.3335C30.6194 35.7735 29.886 36.4268 29.3394 37.2402C29.0327 37.7068 29.0327 38.2935 29.3394 38.7602C29.886 39.5735 30.6194 40.2268 31.4994 40.6668" stroke="#5454D4" stroke-width="2" stroke-linecap="round" stroke-linejoin="round"/>
<path d="M39.7812 35.3335C40.6613 35.7735 41.3946 36.4268 41.9412 37.2402C42.2479 37.7068 42.2479 38.2935 41.9412 38.7602C41.3946 39.5735 40.6613 40.2268 39.7812 40.6668" stroke="#5454D4" stroke-width="2" stroke-linecap="round" stroke-linejoin="round"/>
<path d="M31.5013 47.3332H39.5013C46.168 47.3332 48.8346 44.6665 48.8346 37.9998V29.9998C48.8346 23.3332 46.168 20.6665 39.5013 20.6665H31.5013C24.8346 20.6665 22.168 23.3332 22.168 29.9998V37.9998C22.168 44.6665 24.8346 47.3332 31.5013 47.3332Z" stroke="#5454D4" stroke-width="2" stroke-linecap="round" stroke-linejoin="round"/>
<path d="M22.4727 28.6798L48.0993 28.6665" stroke="#5454D4" stroke-width="2" stroke-linecap="round" stroke-linejoin="round"/>
</svg>
