<svg width="113" height="23" viewBox="0 0 113 23" fill="none" xmlns="http://www.w3.org/2000/svg">
<path d="M3.996 5.28C3.996 5.608 4.104 5.86 4.32 6.036C4.544 6.212 4.844 6.3 5.22 6.3C5.556 6.3 5.804 6.244 5.964 6.132C6.124 6.02 6.26 5.852 6.372 5.628C6.476 5.42 6.616 5.316 6.792 5.316H9.384C9.456 5.316 9.516 5.344 9.564 5.4C9.62 5.448 9.648 5.508 9.648 5.58C9.648 6.068 9.484 6.548 9.156 7.02C8.828 7.484 8.328 7.872 7.656 8.184C6.992 8.488 6.18 8.64 5.22 8.64C4.364 8.64 3.6 8.512 2.928 8.256C2.264 7.992 1.736 7.592 1.344 7.056C0.952 6.512 0.756 5.836 0.756 5.028V3.612C0.756 2.804 0.952 2.132 1.344 1.596C1.736 1.052 2.264 0.652 2.928 0.396C3.6 0.132 4.364 0 5.22 0C6.18 0 6.992 0.156 7.656 0.468C8.328 0.772 8.828 1.16 9.156 1.632C9.484 2.096 9.648 2.572 9.648 3.06C9.648 3.132 9.62 3.196 9.564 3.252C9.516 3.3 9.456 3.324 9.384 3.324H6.792C6.616 3.324 6.476 3.22 6.372 3.012C6.26 2.788 6.124 2.62 5.964 2.508C5.804 2.396 5.556 2.34 5.22 2.34C4.844 2.34 4.544 2.428 4.32 2.604C4.104 2.78 3.996 3.032 3.996 3.36V5.28Z" fill="#5761D7"/>
<path d="M15.2953 8.64C13.9513 8.64 12.8833 8.348 12.0913 7.764C11.3073 7.18 10.9153 6.268 10.9153 5.028V0.444C10.9153 0.356 10.9473 0.28 11.0113 0.216C11.0753 0.152 11.1513 0.12 11.2393 0.12H13.7473C13.8353 0.12 13.9113 0.152 13.9753 0.216C14.0393 0.28 14.0713 0.356 14.0713 0.444V5.22C14.0713 5.548 14.1793 5.8 14.3953 5.976C14.6193 6.152 14.9193 6.24 15.2953 6.24C15.6713 6.24 15.9673 6.152 16.1833 5.976C16.4073 5.8 16.5193 5.548 16.5193 5.22V0.444C16.5193 0.356 16.5513 0.28 16.6153 0.216C16.6793 0.152 16.7553 0.12 16.8433 0.12H19.3513C19.4393 0.12 19.5153 0.152 19.5793 0.216C19.6433 0.28 19.6753 0.356 19.6753 0.444V5.028C19.6753 6.268 19.2793 7.18 18.4873 7.764C17.7033 8.348 16.6393 8.64 15.2953 8.64Z" fill="#5761D7"/>
<path d="M29.4026 6.06C29.4906 6.06 29.5666 6.092 29.6306 6.156C29.6946 6.22 29.7266 6.296 29.7266 6.384V8.196C29.7266 8.284 29.6946 8.36 29.6306 8.424C29.5666 8.488 29.4906 8.52 29.4026 8.52H22.3946C22.3066 8.52 22.2306 8.488 22.1666 8.424C22.1026 8.36 22.0706 8.284 22.0706 8.196V0.444C22.0706 0.356 22.1026 0.28 22.1666 0.216C22.2306 0.152 22.3066 0.12 22.3946 0.12H24.9866C25.0746 0.12 25.1506 0.152 25.2146 0.216C25.2786 0.28 25.3106 0.356 25.3106 0.444V6.06H29.4026Z" fill="#5761D7"/>
<path d="M39.8259 0.12C39.9139 0.12 39.9899 0.152 40.0539 0.216C40.1179 0.28 40.1499 0.356 40.1499 0.444V2.376C40.1499 2.464 40.1179 2.54 40.0539 2.604C39.9899 2.668 39.9139 2.7 39.8259 2.7H37.2459V8.196C37.2459 8.284 37.2139 8.36 37.1499 8.424C37.0859 8.488 37.0099 8.52 36.9219 8.52H34.4499C34.3619 8.52 34.2859 8.488 34.2219 8.424C34.1579 8.36 34.1259 8.284 34.1259 8.196V2.7H31.5459C31.4579 2.7 31.3819 2.668 31.3179 2.604C31.2539 2.54 31.2219 2.464 31.2219 2.376V0.444C31.2219 0.356 31.2539 0.28 31.3179 0.216C31.3819 0.152 31.4579 0.12 31.5459 0.12H39.8259Z" fill="#5761D7"/>
<path d="M45.8812 8.64C44.5372 8.64 43.4692 8.348 42.6772 7.764C41.8932 7.18 41.5013 6.268 41.5013 5.028V0.444C41.5013 0.356 41.5333 0.28 41.5973 0.216C41.6613 0.152 41.7372 0.12 41.8252 0.12H44.3333C44.4213 0.12 44.4972 0.152 44.5612 0.216C44.6252 0.28 44.6572 0.356 44.6572 0.444V5.22C44.6572 5.548 44.7653 5.8 44.9813 5.976C45.2052 6.152 45.5052 6.24 45.8812 6.24C46.2572 6.24 46.5532 6.152 46.7692 5.976C46.9932 5.8 47.1053 5.548 47.1053 5.22V0.444C47.1053 0.356 47.1373 0.28 47.2013 0.216C47.2653 0.152 47.3412 0.12 47.4292 0.12H49.9372C50.0252 0.12 50.1013 0.152 50.1653 0.216C50.2293 0.28 50.2612 0.356 50.2612 0.444V5.028C50.2612 6.268 49.8652 7.18 49.0732 7.764C48.2892 8.348 47.2253 8.64 45.8812 8.64Z" fill="#5761D7"/>
<path d="M60.8406 8.148C60.8566 8.18 60.8646 8.216 60.8646 8.256C60.8646 8.328 60.8366 8.392 60.7806 8.448C60.7326 8.496 60.6726 8.52 60.6006 8.52H57.8766C57.7646 8.52 57.6606 8.492 57.5646 8.436C57.4766 8.38 57.4126 8.308 57.3726 8.22L56.3166 5.844H55.3086V8.196C55.3086 8.284 55.2766 8.36 55.2126 8.424C55.1486 8.488 55.0726 8.52 54.9846 8.52H52.3926C52.3046 8.52 52.2286 8.488 52.1646 8.424C52.1006 8.36 52.0686 8.284 52.0686 8.196V0.444C52.0686 0.356 52.1006 0.28 52.1646 0.216C52.2286 0.152 52.3046 0.12 52.3926 0.12H57.0606C57.7806 0.12 58.4086 0.236 58.9446 0.468C59.4886 0.7 59.9046 1.036 60.1926 1.476C60.4806 1.916 60.6246 2.432 60.6246 3.024C60.6246 4.112 60.2046 4.9 59.3646 5.388L60.8406 8.148ZM56.8086 3.624C56.9846 3.624 57.1206 3.568 57.2166 3.456C57.3126 3.336 57.3606 3.188 57.3606 3.012C57.3606 2.836 57.3126 2.684 57.2166 2.556C57.1286 2.42 56.9926 2.352 56.8086 2.352H55.3086V3.624H56.8086Z" fill="#5761D7"/>
<path d="M70.1599 6.18C70.2479 6.18 70.3239 6.212 70.3879 6.276C70.4519 6.34 70.4839 6.416 70.4839 6.504V8.196C70.4839 8.284 70.4519 8.36 70.3879 8.424C70.3239 8.488 70.2479 8.52 70.1599 8.52H62.5759C62.4879 8.52 62.4119 8.488 62.3479 8.424C62.2839 8.36 62.2519 8.284 62.2519 8.196V0.444C62.2519 0.356 62.2839 0.28 62.3479 0.216C62.4119 0.152 62.4879 0.12 62.5759 0.12H70.0399C70.1279 0.12 70.2039 0.152 70.2679 0.216C70.3319 0.28 70.3639 0.356 70.3639 0.444V2.136C70.3639 2.224 70.3319 2.3 70.2679 2.364C70.2039 2.428 70.1279 2.46 70.0399 2.46H65.3719V3.216H69.3799C69.4679 3.216 69.5439 3.248 69.6079 3.312C69.6719 3.376 69.7039 3.452 69.7039 3.54V5.1C69.7039 5.188 69.6719 5.264 69.6079 5.328C69.5439 5.392 69.4679 5.424 69.3799 5.424H65.3719V6.18H70.1599Z" fill="#5761D7"/>
<path d="M37.324 14.12C38.076 14.12 38.732 14.248 39.292 14.504C39.852 14.76 40.28 15.108 40.576 15.548C40.872 15.988 41.02 16.48 41.02 17.024C41.02 17.92 40.74 18.624 40.18 19.136C39.62 19.64 38.668 19.892 37.324 19.892H35.74V22.196C35.74 22.284 35.708 22.36 35.644 22.424C35.58 22.488 35.504 22.52 35.416 22.52H32.836C32.748 22.52 32.672 22.488 32.608 22.424C32.544 22.36 32.512 22.284 32.512 22.196V14.444C32.512 14.356 32.544 14.28 32.608 14.216C32.672 14.152 32.748 14.12 32.836 14.12H37.324ZM37.276 17.672C37.468 17.672 37.62 17.616 37.732 17.504C37.844 17.384 37.9 17.228 37.9 17.036C37.9 16.836 37.844 16.672 37.732 16.544C37.62 16.416 37.468 16.352 37.276 16.352H35.752V17.672H37.276Z" fill="#5761D7"/>
<path d="M51.0593 22.148C51.0753 22.18 51.0833 22.216 51.0833 22.256C51.0833 22.328 51.0553 22.392 50.9993 22.448C50.9513 22.496 50.8913 22.52 50.8193 22.52H48.0953C47.9833 22.52 47.8793 22.492 47.7833 22.436C47.6953 22.38 47.6313 22.308 47.5913 22.22L46.5353 19.844H45.5273V22.196C45.5273 22.284 45.4953 22.36 45.4313 22.424C45.3673 22.488 45.2913 22.52 45.2033 22.52H42.6113C42.5233 22.52 42.4473 22.488 42.3833 22.424C42.3193 22.36 42.2873 22.284 42.2873 22.196V14.444C42.2873 14.356 42.3193 14.28 42.3833 14.216C42.4473 14.152 42.5233 14.12 42.6113 14.12H47.2793C47.9993 14.12 48.6273 14.236 49.1633 14.468C49.7073 14.7 50.1233 15.036 50.4113 15.476C50.6993 15.916 50.8433 16.432 50.8433 17.024C50.8433 18.112 50.4233 18.9 49.5833 19.388L51.0593 22.148ZM47.0273 17.624C47.2033 17.624 47.3393 17.568 47.4353 17.456C47.5313 17.336 47.5793 17.188 47.5793 17.012C47.5793 16.836 47.5313 16.684 47.4353 16.556C47.3473 16.42 47.2113 16.352 47.0273 16.352H45.5273V17.624H47.0273Z" fill="#5761D7"/>
<path d="M60.9546 19.052C60.9546 20.276 60.5466 21.18 59.7306 21.764C58.9226 22.348 57.8426 22.64 56.4906 22.64C55.1386 22.64 54.0546 22.348 53.2386 21.764C52.4306 21.18 52.0266 20.268 52.0266 19.028V17.612C52.0266 16.796 52.2186 16.12 52.6026 15.584C52.9946 15.04 53.5266 14.64 54.1986 14.384C54.8706 14.128 55.6346 14 56.4906 14C57.3466 14 58.1066 14.128 58.7706 14.384C59.4426 14.64 59.9746 15.036 60.3666 15.572C60.7586 16.108 60.9546 16.78 60.9546 17.588V19.052ZM55.2666 19.28C55.2666 19.608 55.3746 19.86 55.5906 20.036C55.8146 20.212 56.1146 20.3 56.4906 20.3C56.8666 20.3 57.1626 20.212 57.3786 20.036C57.6026 19.852 57.7146 19.596 57.7146 19.268V17.372C57.7146 17.044 57.6026 16.792 57.3786 16.616C57.1626 16.432 56.8666 16.34 56.4906 16.34C56.1146 16.34 55.8146 16.428 55.5906 16.604C55.3746 16.78 55.2666 17.032 55.2666 17.36V19.28Z" fill="#5761D7"/>
<path d="M70.8259 14.12C70.9139 14.12 70.9899 14.152 71.0539 14.216C71.1179 14.28 71.1499 14.356 71.1499 14.444V16.376C71.1499 16.464 71.1179 16.54 71.0539 16.604C70.9899 16.668 70.9139 16.7 70.8259 16.7H68.2459V22.196C68.2459 22.284 68.2139 22.36 68.1499 22.424C68.0859 22.488 68.0099 22.52 67.9219 22.52H65.4499C65.3619 22.52 65.2859 22.488 65.2219 22.424C65.1579 22.36 65.1259 22.284 65.1259 22.196V16.7H62.5459C62.4579 16.7 62.3819 16.668 62.3179 16.604C62.2539 16.54 62.2219 16.464 62.2219 16.376V14.444C62.2219 14.356 62.2539 14.28 62.3179 14.216C62.3819 14.152 62.4579 14.12 62.5459 14.12H70.8259Z" fill="#5761D7"/>
<path d="M81.3453 19.052C81.3453 20.276 80.9373 21.18 80.1213 21.764C79.3133 22.348 78.2332 22.64 76.8812 22.64C75.5293 22.64 74.4453 22.348 73.6292 21.764C72.8213 21.18 72.4173 20.268 72.4173 19.028V17.612C72.4173 16.796 72.6092 16.12 72.9932 15.584C73.3852 15.04 73.9173 14.64 74.5892 14.384C75.2612 14.128 76.0252 14 76.8812 14C77.7373 14 78.4972 14.128 79.1612 14.384C79.8332 14.64 80.3652 15.036 80.7572 15.572C81.1492 16.108 81.3453 16.78 81.3453 17.588V19.052ZM75.6572 19.28C75.6572 19.608 75.7652 19.86 75.9812 20.036C76.2052 20.212 76.5052 20.3 76.8812 20.3C77.2572 20.3 77.5532 20.212 77.7692 20.036C77.9932 19.852 78.1052 19.596 78.1052 19.268V17.372C78.1052 17.044 77.9932 16.792 77.7692 16.616C77.5532 16.432 77.2572 16.34 76.8812 16.34C76.5052 16.34 76.2052 16.428 75.9812 16.604C75.7652 16.78 75.6572 17.032 75.6572 17.36V19.28Z" fill="#5761D7"/>
<path d="M85.9726 19.28C85.9726 19.608 86.0806 19.86 86.2966 20.036C86.5206 20.212 86.8206 20.3 87.1966 20.3C87.5326 20.3 87.7806 20.244 87.9406 20.132C88.1006 20.02 88.2366 19.852 88.3486 19.628C88.4526 19.42 88.5926 19.316 88.7686 19.316H91.3606C91.4326 19.316 91.4926 19.344 91.5406 19.4C91.5966 19.448 91.6246 19.508 91.6246 19.58C91.6246 20.068 91.4606 20.548 91.1326 21.02C90.8046 21.484 90.3046 21.872 89.6326 22.184C88.9686 22.488 88.1566 22.64 87.1966 22.64C86.3406 22.64 85.5766 22.512 84.9046 22.256C84.2406 21.992 83.7126 21.592 83.3206 21.056C82.9286 20.512 82.7326 19.836 82.7326 19.028V17.612C82.7326 16.804 82.9286 16.132 83.3206 15.596C83.7126 15.052 84.2406 14.652 84.9046 14.396C85.5766 14.132 86.3406 14 87.1966 14C88.1566 14 88.9686 14.156 89.6326 14.468C90.3046 14.772 90.8046 15.16 91.1326 15.632C91.4606 16.096 91.6246 16.572 91.6246 17.06C91.6246 17.132 91.5966 17.196 91.5406 17.252C91.4926 17.3 91.4326 17.324 91.3606 17.324H88.7686C88.5926 17.324 88.4526 17.22 88.3486 17.012C88.2366 16.788 88.1006 16.62 87.9406 16.508C87.7806 16.396 87.5326 16.34 87.1966 16.34C86.8206 16.34 86.5206 16.428 86.2966 16.604C86.0806 16.78 85.9726 17.032 85.9726 17.36V19.28Z" fill="#5761D7"/>
<path d="M101.736 19.052C101.736 20.276 101.328 21.18 100.512 21.764C99.7039 22.348 98.6239 22.64 97.2719 22.64C95.9199 22.64 94.8359 22.348 94.0199 21.764C93.2119 21.18 92.8079 20.268 92.8079 19.028V17.612C92.8079 16.796 92.9999 16.12 93.3839 15.584C93.7759 15.04 94.3079 14.64 94.9799 14.384C95.6519 14.128 96.4159 14 97.2719 14C98.1279 14 98.8879 14.128 99.5519 14.384C100.224 14.64 100.756 15.036 101.148 15.572C101.54 16.108 101.736 16.78 101.736 17.588V19.052ZM96.0479 19.28C96.0479 19.608 96.1559 19.86 96.3719 20.036C96.5959 20.212 96.8959 20.3 97.2719 20.3C97.6479 20.3 97.9439 20.212 98.1599 20.036C98.3839 19.852 98.4959 19.596 98.4959 19.268V17.372C98.4959 17.044 98.3839 16.792 98.1599 16.616C97.9439 16.432 97.6479 16.34 97.2719 16.34C96.8959 16.34 96.5959 16.428 96.3719 16.604C96.1559 16.78 96.0479 17.032 96.0479 17.36V19.28Z" fill="#5761D7"/>
<path d="M111.379 20.06C111.467 20.06 111.543 20.092 111.607 20.156C111.671 20.22 111.703 20.296 111.703 20.384V22.196C111.703 22.284 111.671 22.36 111.607 22.424C111.543 22.488 111.467 22.52 111.379 22.52H104.371C104.283 22.52 104.207 22.488 104.143 22.424C104.079 22.36 104.047 22.284 104.047 22.196V14.444C104.047 14.356 104.079 14.28 104.143 14.216C104.207 14.152 104.283 14.12 104.371 14.12H106.963C107.051 14.12 107.127 14.152 107.191 14.216C107.255 14.28 107.287 14.356 107.287 14.444V20.06H111.379Z" fill="#5761D7"/>
<path d="M0 11.02C0 10.7439 0.223858 10.52 0.5 10.52H112.5C112.776 10.52 113 10.7439 113 11.02C113 11.2961 112.776 11.52 112.5 11.52H0.499997C0.223854 11.52 0 11.2961 0 11.02Z" fill="#42E8E0"/>
</svg>
