<svg width="100" height="100" viewBox="0 0 100 100" fill="none" xmlns="http://www.w3.org/2000/svg">
<g id="connection 1">
<g id="Group">
<path id="Vector" d="M15.625 40.6253L37.5 21.8753M34.375 84.3753L15.625 53.1253M62.5 50.0003L84.375 28.1253M78.125 68.7503L62.5 59.3753M18.75 50.0003L53.125 53.1253M45.3125 89.0628L78.125 78.1253M57.8125 13.75L81.25 17.1878M90.625 28.1253L87.5 68.7503" stroke="#2B4255"/>
<path id="Vector_2" d="M46.875 26.5627C52.9156 26.5627 57.8125 21.6658 57.8125 15.6252C57.8125 9.58458 52.9156 4.6875 46.875 4.6875C40.8344 4.6875 35.9375 9.58458 35.9375 15.6252C35.9375 21.6658 40.8344 26.5627 46.875 26.5627Z" fill="#5761D7" stroke="#5761D7" stroke-miterlimit="0.6"/>
<path id="Vector_3" d="M12.5 54.6875C16.8147 54.6875 20.3125 51.1897 20.3125 46.875C20.3125 42.5603 16.8147 39.0625 12.5 39.0625C8.18528 39.0625 4.6875 42.5603 4.6875 46.875C4.6875 51.1897 8.18528 54.6875 12.5 54.6875Z" fill="#25B39E" stroke="#25B39E" stroke-miterlimit="0.6"/>
<path id="Vector_4" d="M39.0625 95.3125C42.5143 95.3125 45.3125 92.5143 45.3125 89.0625C45.3125 85.6107 42.5143 82.8125 39.0625 82.8125C35.6107 82.8125 32.8125 85.6107 32.8125 89.0625C32.8125 92.5143 35.6107 95.3125 39.0625 95.3125Z" fill="#5761D7" stroke="#5761D7" stroke-miterlimit="0.6"/>
<path id="Vector_5" d="M57.8125 60.9375C61.2643 60.9375 64.0625 58.1393 64.0625 54.6875C64.0625 51.2357 61.2643 48.4375 57.8125 48.4375C54.3607 48.4375 51.5625 51.2357 51.5625 54.6875C51.5625 58.1393 54.3607 60.9375 57.8125 60.9375Z" fill="#F8B84E" stroke="#F8B84E" stroke-miterlimit="0.6"/>
<path id="Vector_6" d="M82.8125 79.6875C86.2643 79.6875 89.0625 76.8893 89.0625 73.4375C89.0625 69.9857 86.2643 67.1875 82.8125 67.1875C79.3607 67.1875 76.5625 69.9857 76.5625 73.4375C76.5625 76.8893 79.3607 79.6875 82.8125 79.6875Z" fill="#4BBFEB" stroke="#4BBFEB" stroke-miterlimit="0.6"/>
<path id="Vector_7" d="M87.5 29.6875C91.8147 29.6875 95.3125 26.1897 95.3125 21.875C95.3125 17.5603 91.8147 14.0625 87.5 14.0625C83.1853 14.0625 79.6875 17.5603 79.6875 21.875C79.6875 26.1897 83.1853 29.6875 87.5 29.6875Z" fill="#F05542" stroke="#F05542" stroke-miterlimit="0.6"/>
</g>
</g>
</svg>
