<svg width="81" height="80" viewBox="0 0 81 80" fill="none" xmlns="http://www.w3.org/2000/svg">
<circle opacity="0.16" cx="40.5" cy="40" r="40" fill="#ECECFE"/>
<g clip-path="url(#clip0_4866_769)">
<path d="M25.5703 26.9375C25.5703 25.7988 26.4821 24.875 27.606 24.875C28.7299 24.875 29.6417 25.7988 29.6417 26.9375C29.6417 28.0805 28.7299 29 27.606 29C26.4821 29 25.5703 28.0805 25.5703 26.9375ZM51.356 26.9375C51.356 25.7988 52.2636 24.875 53.3917 24.875C54.5199 24.875 55.4275 25.7988 55.4275 26.9375C55.4275 28.0805 54.5199 29 53.3917 29C52.2636 29 51.356 28.0805 51.356 26.9375ZM29.6417 53.0625C29.6417 54.2055 28.7299 55.125 27.606 55.125C26.4821 55.125 25.5703 54.2055 25.5703 53.0625C25.5703 51.9195 26.4821 51 27.606 51C28.7299 51 29.6417 51.9195 29.6417 53.0625ZM51.356 53.0625C51.356 51.9195 52.2636 51 53.3917 51C54.5199 51 55.4275 51.9195 55.4275 53.0625C55.4275 54.2055 54.5199 55.125 53.3917 55.125C52.2636 55.125 51.356 54.2055 51.356 53.0625Z" fill="black"/>
<path d="M21.5 26.25C21.5 23.2121 23.9301 20.75 26.9286 20.75H54.0714C57.0656 20.75 59.5 23.2121 59.5 26.25V53.75C59.5 56.7836 57.0656 59.25 54.0714 59.25H26.9286C23.9301 59.25 21.5 56.7836 21.5 53.75V26.25ZM27.6071 24.875C26.4833 24.875 25.5714 25.7988 25.5714 26.9375C25.5714 28.0805 26.4833 29 27.6071 29C28.731 29 29.6429 28.0805 29.6429 26.9375C29.6429 25.7988 28.731 24.875 27.6071 24.875ZM53.3929 29C54.521 29 55.4286 28.0805 55.4286 26.9375C55.4286 25.7988 54.521 24.875 53.3929 24.875C52.2647 24.875 51.3571 25.7988 51.3571 26.9375C51.3571 28.0805 52.2647 29 53.3929 29ZM27.6071 51C26.4833 51 25.5714 51.9195 25.5714 53.0625C25.5714 54.2055 26.4833 55.125 27.6071 55.125C28.731 55.125 29.6429 54.2055 29.6429 53.0625C29.6429 51.9195 28.731 51 27.6071 51ZM53.3929 55.125C54.521 55.125 55.4286 54.2055 55.4286 53.0625C55.4286 51.9195 54.521 51 53.3929 51C52.2647 51 51.3571 51.9195 51.3571 53.0625C51.3571 54.2055 52.2647 55.125 53.3929 55.125Z" fill="white"/>
</g>
<defs>
<clipPath id="clip0_4866_769">
<rect width="38" height="44" fill="white" transform="translate(21.5 18)"/>
</clipPath>
</defs>
</svg>
