<svg width="81" height="80" viewBox="0 0 81 80" fill="none" xmlns="http://www.w3.org/2000/svg">
<circle opacity="0.16" cx="40.5" cy="40" r="40" fill="#ECECFE"/>
<g clip-path="url(#clip0_4866_752)">
<path d="M57.125 26.9375C57.125 30.218 54.468 32.875 51.1875 32.875C47.907 32.875 45.25 30.218 45.25 26.9375C45.25 23.6585 47.907 21 51.1875 21C54.468 21 57.125 23.6585 57.125 26.9375ZM52.375 53.0625C52.375 56.343 49.718 59 46.4375 59C43.157 59 40.5 56.343 40.5 53.0625C40.5 49.782 43.157 47.125 46.4375 47.125C49.718 47.125 52.375 49.782 52.375 53.0625ZM21.5 36.4375C21.5 33.157 24.1585 30.5 27.4375 30.5C30.718 30.5 33.375 33.157 33.375 36.4375C33.375 39.718 30.718 42.375 27.4375 42.375C24.1585 42.375 21.5 39.718 21.5 36.4375Z" fill="white"/>
<path opacity="0.4" d="M52.5535 32.7191L49.748 48.1344C48.8055 47.4961 47.6625 47.125 46.4379 47.125C45.9703 47.125 45.5102 47.1769 45.0723 47.2808L47.8777 31.8656C48.8203 32.5039 49.9633 32.875 51.1879 32.875C51.6555 32.875 52.1156 32.823 52.5535 32.7191ZM33.1008 38.2336L43.907 47.689C42.4227 48.3867 41.2797 49.6855 40.775 51.2664L29.9688 41.8109C31.4531 41.0465 32.5961 39.8144 33.1008 38.2336ZM33.3754 36.4375C33.3754 34.7824 32.7 33.2906 31.609 32.2144L45.2504 26.7534C45.2504 26.815 45.2504 26.8759 45.2504 26.9375C45.2504 28.5926 45.9258 30.0844 47.0168 31.1605L33.3086 36.623C33.3086 36.5637 33.3754 36.4969 33.3754 36.4375Z" fill="white"/>
</g>
<defs>
<clipPath id="clip0_4866_752">
<rect width="38" height="38" fill="white" transform="translate(21.5 21)"/>
</clipPath>
</defs>
</svg>
