<svg width="357" height="357" viewBox="0 0 357 357" fill="none" xmlns="http://www.w3.org/2000/svg">
<path d="M178.5 340.378C266.593 340.378 338.007 301.542 338.007 253.634C338.007 205.727 266.593 166.891 178.5 166.891C90.4062 166.891 18.9922 205.727 18.9922 253.634C18.9922 301.542 90.4062 340.378 178.5 340.378Z" fill="#F5F5F5"/>
<path d="M178.498 249.093C191.771 249.093 202.531 242.879 202.531 235.213C202.531 227.547 191.771 221.333 178.498 221.333C165.225 221.333 154.465 227.547 154.465 235.213C154.465 242.879 165.225 249.093 178.498 249.093Z" fill="#E0E0E0"/>
<path d="M268.129 286.186C289.111 286.186 306.121 276.365 306.121 264.251C306.121 252.138 289.111 242.317 268.129 242.317C247.146 242.317 230.137 252.138 230.137 264.251C230.137 276.365 247.146 286.186 268.129 286.186Z" fill="#E0E0E0"/>
<path d="M81.6951 288.556C102.677 288.556 119.687 278.735 119.687 266.622C119.687 254.508 102.677 244.688 81.6951 244.688C60.7127 244.688 43.7031 254.508 43.7031 266.622C43.7031 278.735 60.7127 288.556 81.6951 288.556Z" fill="#E0E0E0"/>
<path d="M324.873 248.664L317.697 245.73C316.796 239.527 316.276 233.275 316.141 227.009C316.141 215.285 323.445 200.948 332.713 203.347C341.98 205.746 330.099 218.862 328.172 228.993C326.244 239.125 324.873 248.664 324.873 248.664Z" fill="#BA68C8"/>
<path opacity="0.3" d="M324.873 248.664L317.697 245.73C316.796 239.527 316.276 233.275 316.141 227.009C316.141 215.285 323.445 200.948 332.713 203.347C341.98 205.746 330.099 218.862 328.172 228.993C326.244 239.125 324.873 248.664 324.873 248.664Z" fill="black"/>
<path d="M321.397 247.758C321.476 247.747 321.547 247.706 321.595 247.643C321.643 247.58 321.665 247.501 321.654 247.422C318.234 221.718 329.794 207.438 329.908 207.317C329.959 207.255 329.984 207.176 329.977 207.096C329.969 207.017 329.931 206.943 329.869 206.892C329.808 206.841 329.728 206.816 329.649 206.824C329.569 206.831 329.495 206.87 329.444 206.931C329.33 207.074 317.599 221.525 321.055 247.501C321.06 247.54 321.073 247.578 321.093 247.613C321.113 247.647 321.14 247.677 321.172 247.701C321.204 247.725 321.24 247.742 321.279 247.752C321.318 247.762 321.358 247.764 321.397 247.758Z" fill="white"/>
<path d="M328.558 250.378L324.81 248.679C323.687 242.904 323.858 236.952 325.31 231.25C327.716 222.011 335.727 216.313 339.761 217.256C344.695 218.405 345.173 222.968 343.731 226.145C342.01 229.908 330.143 240.097 328.558 250.378Z" fill="#BA68C8"/>
<path opacity="0.1" d="M328.558 250.378L324.81 248.679C323.687 242.904 323.858 236.952 325.31 231.25C327.716 222.011 335.727 216.313 339.761 217.256C344.695 218.405 345.173 222.968 343.731 226.145C342.01 229.908 330.143 240.097 328.558 250.378Z" fill="black"/>
<path d="M326.61 249.785C326.69 249.776 326.763 249.736 326.814 249.673C326.865 249.61 326.889 249.53 326.881 249.449C325.196 233.141 339.426 220.604 339.576 220.482C339.63 220.424 339.66 220.348 339.66 220.268C339.66 220.189 339.63 220.112 339.576 220.054C339.548 220.025 339.515 220.003 339.478 219.987C339.441 219.972 339.402 219.964 339.362 219.964C339.322 219.964 339.282 219.972 339.245 219.987C339.209 220.003 339.175 220.025 339.147 220.054C338.997 220.182 324.539 232.906 326.245 249.542C326.263 249.622 326.31 249.692 326.378 249.737C326.446 249.783 326.529 249.8 326.61 249.785Z" fill="white"/>
<path d="M39.987 242.096L44.9136 239.282C44.9136 239.282 47.2698 226.28 45.5062 215.099C43.0215 199.391 32.3187 193.958 28.4345 195.521C24.5503 197.085 23.6364 201.74 30.655 210.822C34.7962 216.177 40.1227 227.509 39.987 242.096Z" fill="#BA68C8"/>
<g opacity="0.15">
<path d="M39.987 242.096L44.9136 239.282C44.9136 239.282 47.2698 226.28 45.5062 215.099C43.0215 199.391 32.3187 193.958 28.4345 195.521C24.5503 197.085 23.6364 201.74 30.655 210.822C34.7962 216.177 40.1227 227.509 39.987 242.096Z" fill="black"/>
</g>
<path d="M41.7702 235.856H41.7203C41.6751 235.85 41.6315 235.834 41.5922 235.811C41.5529 235.788 41.5186 235.757 41.4913 235.721C41.4641 235.684 41.4444 235.643 41.4334 235.598C41.4225 235.554 41.4205 235.508 41.4275 235.463C43.4553 220.747 37.5434 204.625 30.8889 198.128C30.8476 198.098 30.8132 198.059 30.7881 198.015C30.763 197.97 30.7478 197.921 30.7435 197.87C30.7391 197.819 30.7458 197.767 30.763 197.719C30.7802 197.671 30.8075 197.627 30.8432 197.591C30.8788 197.554 30.9219 197.525 30.9695 197.507C31.0172 197.488 31.0682 197.48 31.1193 197.483C31.1703 197.486 31.2202 197.5 31.2654 197.523C31.3107 197.547 31.3503 197.581 31.3815 197.621C38.1503 204.204 44.1836 220.626 42.1272 235.549C42.1151 235.634 42.0722 235.713 42.0065 235.769C41.9409 235.826 41.8569 235.857 41.7702 235.856Z" fill="white"/>
<path d="M26.334 249.985C25.5557 250.428 23.9564 249.457 23.3423 249.042C22.2891 248.316 21.4387 247.333 20.8719 246.186C20.2389 244.892 20.0243 243.432 20.2578 242.01C20.3814 241.258 20.558 240.516 20.7862 239.789L21.4074 237.647C21.6521 236.961 21.7589 236.233 21.7215 235.505C21.5359 234.027 20.2221 232.999 19.0369 232.106C17.716 231.121 16.3523 229.822 16.3594 228.044C16.4515 226.666 17.002 225.359 17.9231 224.331C18.7656 223.253 19.7723 222.303 20.5434 221.168C21.1479 220.371 21.4581 219.39 21.4217 218.39C21.3399 217.782 21.1359 217.197 20.8219 216.67C20.0996 215.572 19.4691 214.416 18.9369 213.214C18.5014 211.972 18.5657 210.429 19.5367 209.537C19.9688 209.214 20.4611 208.981 20.9847 208.851C21.5083 208.721 22.0525 208.697 22.5855 208.78C23.5993 208.9 24.5744 209.241 25.4415 209.78C28.2618 211.343 29.8683 214.685 32.8599 215.891C34.0444 216.26 35.2511 216.554 36.4728 216.77C37.086 216.883 37.6684 217.125 38.1826 217.477C38.6967 217.83 39.1309 218.287 39.4573 218.819C40.5569 221.011 38.522 223.71 39.2931 226.037C40.0071 228.094 41.9777 228.893 43.0987 230.743C43.5582 231.56 43.7434 232.504 43.6271 233.434C43.5274 235.009 43.1427 236.553 42.4918 237.99C41.7594 239.419 40.9217 240.791 39.9857 242.095C39.9428 242.145 26.4554 249.899 26.334 249.985Z" fill="#BA68C8"/>
<path d="M34.322 245.729C34.2751 245.728 34.229 245.716 34.1864 245.697C34.1438 245.677 34.1055 245.649 34.0736 245.615C34.0418 245.58 34.0171 245.54 34.0009 245.496C33.9847 245.452 33.9773 245.405 33.9793 245.358C34.5576 231.435 27.9959 216.084 23.2264 211.586C23.1615 211.52 23.125 211.432 23.125 211.34C23.125 211.247 23.1615 211.159 23.2264 211.093C23.2932 211.028 23.3829 210.991 23.4763 210.991C23.5698 210.991 23.6595 211.028 23.7262 211.093C28.56 215.627 35.2645 231.264 34.6718 245.394C34.6682 245.484 34.6297 245.569 34.5645 245.632C34.4992 245.695 34.4123 245.729 34.322 245.729Z" fill="white"/>
<path d="M32.2391 229.272H32.132C28.833 228.365 25.4456 227.816 22.0289 227.637C21.9342 227.637 21.8434 227.599 21.7764 227.532C21.7095 227.465 21.6719 227.375 21.6719 227.28C21.6719 227.185 21.7095 227.094 21.7764 227.027C21.8434 226.96 21.9342 226.923 22.0289 226.923C25.5062 227.104 28.9536 227.661 32.3105 228.586C32.3546 228.6 32.3956 228.621 32.4314 228.65C32.4671 228.679 32.4967 228.715 32.5186 228.755C32.5405 228.796 32.5542 228.84 32.5589 228.886C32.5636 228.932 32.5593 228.978 32.5461 229.022C32.5253 229.089 32.485 229.149 32.4304 229.193C32.3758 229.238 32.3092 229.265 32.2391 229.272Z" fill="white"/>
<path d="M286.906 259.725L280.252 258.961L278.531 245.552L286.664 247.965L286.906 259.725Z" fill="#B16668"/>
<path d="M272.324 270.663C272.228 270.927 272.188 271.209 272.208 271.489C272.228 271.769 272.306 272.043 272.438 272.291C273.152 273.119 274.994 274.09 277.508 274.269C279.914 274.44 282.056 274.119 283.462 273.226C284.074 272.91 284.598 272.447 284.986 271.879C285.375 271.311 285.617 270.655 285.69 269.97C285.826 268.607 285.69 267.286 286.325 266.236C286.961 265.187 287.882 264.165 288.089 263.637C288.336 262.725 288.336 261.764 288.089 260.853L272.324 270.663Z" fill="#263238"/>
<path d="M278.901 258.725C278.88 259.242 278.786 259.754 278.623 260.246C278.255 261.303 277.761 262.312 277.152 263.251C276.853 263.751 276.519 264.228 276.152 264.679C275.438 265.543 274.524 266.257 273.753 267.086C272.935 267.867 272.411 268.905 272.268 270.027C272.168 271.912 275.167 272.555 276.745 272.833C278.447 273.131 280.194 273.043 281.857 272.576C282.731 272.349 283.52 271.874 284.13 271.209C284.741 270.544 285.146 269.718 285.299 268.828C285.391 268.299 285.356 267.764 285.42 267.243C285.628 266.039 286.131 264.906 286.884 263.944C287.321 263.389 287.697 262.788 288.005 262.152C288.497 260.988 288.105 259.674 287.79 258.518C287.519 257.511 287.191 256.376 286.834 256.454C286.834 256.975 286.834 257.047 286.484 257.397C286.134 257.747 285.998 258.518 285.498 258.91C285.658 258.475 285.775 258.026 285.848 257.568C285.879 257.385 285.841 257.196 285.741 257.04C285.576 256.891 285.378 256.784 285.163 256.726C284.42 256.477 283.655 256.302 282.878 256.204C281.818 256.083 280.747 256.083 279.687 256.204C279.466 256.244 279.266 256.36 279.122 256.533C278.994 256.723 278.924 256.946 278.923 257.175C278.887 257.447 278.915 258.225 278.901 258.725Z" fill="#455A64"/>
<path d="M276.897 263.652C277.611 263.124 280.131 263.117 280.988 263.209C281.861 263.284 282.701 263.579 283.43 264.066C283.536 264.142 283.666 264.178 283.797 264.168C283.928 264.157 284.05 264.101 284.144 264.009C284.198 263.955 284.24 263.891 284.266 263.82C284.293 263.748 284.304 263.672 284.299 263.596C284.293 263.52 284.272 263.446 284.235 263.379C284.198 263.313 284.148 263.255 284.087 263.209C283.286 262.619 282.336 262.265 281.345 262.188C280.108 262.098 278.864 262.17 277.646 262.403C277.646 262.403 276.689 263.024 276.897 263.652Z" fill="#F5F5F5"/>
<path d="M275.281 265.608C276.167 265.087 278.851 265.159 279.715 265.251C280.572 265.339 281.389 265.652 282.086 266.158C282.193 266.233 282.323 266.268 282.453 266.257C282.583 266.247 282.706 266.192 282.8 266.101C282.854 266.047 282.896 265.983 282.922 265.911C282.949 265.84 282.96 265.764 282.955 265.688C282.949 265.612 282.928 265.538 282.891 265.471C282.854 265.405 282.804 265.347 282.743 265.301C281.571 264.695 280.293 264.321 278.98 264.202C276.838 264.052 276.317 264.48 276.317 264.48C276.071 264.579 275.85 264.732 275.671 264.927C275.492 265.122 275.359 265.355 275.281 265.608Z" fill="#F5F5F5"/>
<path d="M282.185 260.168C280.977 260.03 279.754 260.105 278.572 260.389C278.201 260.596 277.951 261.189 278.194 261.339C279.273 261.048 280.392 260.937 281.507 261.01C282.298 261.09 283.071 261.302 283.792 261.639C283.977 261.724 284.191 261.831 284.377 261.939C284.437 261.976 284.504 262.001 284.574 262.011C284.644 262.021 284.715 262.015 284.783 261.995C284.851 261.974 284.913 261.94 284.967 261.893C285.02 261.846 285.062 261.789 285.091 261.724C285.142 261.619 285.152 261.499 285.119 261.386C285.086 261.274 285.012 261.178 284.913 261.117C284.082 260.61 283.152 260.286 282.185 260.168Z" fill="#F5F5F5"/>
<path d="M262.096 253.627L255.77 251.864V239.076L263.616 239.419L262.096 253.627Z" fill="#B16668"/>
<path d="M242.402 260.474C242.224 261.026 242.257 261.624 242.495 262.152C242.731 262.637 245.294 264.087 248.75 263.851C251.31 263.668 253.774 262.805 255.89 261.352C257.204 260.481 258.574 260.317 260.288 260.224C262.002 260.131 264.244 259.267 264.622 258.468C264.815 257.752 264.795 256.995 264.565 256.29L242.402 260.474Z" fill="#263238"/>
<path d="M256.326 249.693L256.055 249.636C255.905 249.6 255.748 249.6 255.598 249.636C255.432 249.69 255.284 249.789 255.17 249.921C254.832 250.356 254.538 250.822 254.291 251.314C253.577 252.492 252.042 253.456 250.386 254.362C249.258 254.969 248.151 255.44 246.987 255.962C245.823 256.483 244.217 256.826 243.289 257.454C241.932 258.368 241.753 260.66 243.289 261.567C244.617 262.352 248.129 263.202 251.807 262.159C253.806 261.588 256.033 259.453 258.661 259.246C260.332 259.11 263.495 258.646 264.573 257.375C264.973 256.811 264.437 255.026 264.002 253.484C263.523 251.799 263.073 249.2 262.517 249.321C262.521 249.442 262.497 249.562 262.446 249.671C262.395 249.78 262.319 249.876 262.224 249.95C262.017 250.164 261.738 250.3 261.51 250.492C261.12 250.876 260.805 251.329 260.582 251.828C260.491 252.05 260.324 252.232 260.11 252.342C259.825 252.442 259.618 252.27 259.396 252.156C259.083 252.012 258.728 251.987 258.397 252.085C258.431 251.75 258.491 251.418 258.575 251.092C258.607 250.99 258.607 250.88 258.575 250.778C258.535 250.674 258.459 250.588 258.361 250.535C257.749 250.115 257.056 249.828 256.326 249.693Z" fill="#455A64"/>
<path d="M251.969 253.428C252.088 253.197 252.264 253 252.48 252.855C252.696 252.71 252.945 252.622 253.204 252.599C253.961 252.457 255.303 253.021 256.139 253.706C256.218 253.77 256.281 253.852 256.321 253.946C256.362 254.039 256.378 254.141 256.37 254.243C256.361 254.345 256.328 254.443 256.273 254.528C256.217 254.614 256.142 254.685 256.053 254.734C255.941 254.798 255.811 254.824 255.683 254.81C255.555 254.796 255.435 254.742 255.339 254.656C254.417 253.825 253.209 253.384 251.969 253.428Z" fill="#F5F5F5"/>
<path d="M249.605 254.748C249.771 254.514 249.99 254.323 250.245 254.191C250.5 254.06 250.782 253.991 251.069 253.991C252.243 254.043 253.371 254.465 254.289 255.198C254.364 255.26 254.423 255.34 254.461 255.431C254.499 255.521 254.514 255.619 254.506 255.716C254.497 255.814 254.465 255.908 254.413 255.99C254.36 256.073 254.288 256.142 254.204 256.19C254.092 256.257 253.962 256.286 253.833 256.272C253.704 256.257 253.584 256.201 253.49 256.112C252.985 255.61 252.374 255.227 251.702 254.991C251.03 254.755 250.314 254.672 249.605 254.748Z" fill="#F5F5F5"/>
<path d="M247.043 255.933C247.231 255.718 247.464 255.546 247.726 255.428C247.987 255.311 248.27 255.252 248.557 255.255C249.687 255.325 250.766 255.749 251.641 256.469C251.716 256.532 251.775 256.613 251.813 256.703C251.85 256.794 251.866 256.893 251.857 256.991C251.849 257.089 251.817 257.183 251.765 257.266C251.712 257.349 251.64 257.419 251.555 257.468C251.444 257.535 251.314 257.564 251.185 257.55C251.056 257.535 250.935 257.479 250.841 257.39C250.364 256.87 249.773 256.468 249.114 256.215C248.454 255.962 247.746 255.866 247.043 255.933Z" fill="#F5F5F5"/>
<path d="M285.448 170.197C285.883 183.384 285.912 211.944 285.912 211.944C286.047 213.586 286.19 216.499 286.312 222.411C286.49 230.979 286.904 252.135 286.904 252.135C286.904 252.135 282.813 254.056 279.05 252.492C279.05 252.492 273.824 222.747 272.753 214.265C271.817 206.86 270.025 189.496 270.025 189.496L267.555 211.537C267.555 211.537 267.555 217.249 267.219 222.29C266.941 226.217 263.128 246.445 263.128 246.445C260.638 247.106 258.008 247.019 255.567 246.195C255.567 246.195 255.224 215.143 255.153 211.537C255.074 207.439 256.131 163.128 256.131 163.128L285.448 170.197Z" fill="#455A64"/>
<path d="M270.041 189.496L269.098 182.021C266.055 181.242 263.176 179.922 260.602 178.122C260.602 178.122 262.415 180.55 267.742 183.12L268.941 189.903L267.584 211.537L270.041 189.496Z" fill="#37474F"/>
<path d="M255.797 133.19C253.869 135.717 243.951 149.326 243.951 149.326L234.791 142.229C232.649 140.551 232.013 138.352 230.671 136.831C229.329 135.31 227.858 134.946 226.351 133.675C224.845 132.404 224.266 131.441 223.752 132.526C223.238 133.611 224.902 135.503 225.18 135.96C225.459 136.417 227.18 137.51 224.909 137.388C222.639 137.267 218.269 134.675 217.212 134.197C216.155 133.718 216.127 135.025 216.627 135.882C217.126 136.738 216.877 139.123 217.462 140.658C218.048 142.193 219.076 143.136 221.168 144.171C223.117 145.142 227.858 145.749 229.4 146.72C232.784 150.19 239.168 156.666 240.781 157.866C243.002 159.515 245.151 161.036 248.55 157.766C251.948 154.496 261.794 141.665 261.794 141.665L263.829 129.463C260.488 129.341 258.124 130.141 255.797 133.19Z" fill="#B16668"/>
<path d="M243.953 149.326C245.21 150.254 246.516 152.339 246.638 153.275C246.623 152.388 246.425 151.515 246.057 150.709C245.688 149.903 245.157 149.182 244.496 148.591L243.953 149.326Z" fill="#9A4A4D"/>
<path d="M264.613 129.162C264.613 129.162 259.9 129.105 257.83 130.555C255.759 132.004 254.224 134.125 250.861 139.016C247.912 143.3 246.484 145.356 246.484 145.356C248.415 148.211 251.225 150.358 254.488 151.468L263.285 140.572L264.613 129.162Z" fill="#37474F"/>
<path d="M273.733 128.934C276.403 129.191 280.159 129.22 282.8 129.491C284.635 130.248 288.177 133.332 287.913 135.531C286.927 143.75 284.935 157.223 284.935 157.223L285.592 171.503C281.915 175.173 264.708 176.608 255.84 170.739C255.84 170.739 256.125 145.092 256.739 140.751C257.832 132.975 258.789 130.091 262.801 129.405C266.814 128.72 273.733 128.934 273.733 128.934Z" fill="#BA68C8"/>
<path d="M288.854 133.397C290.782 135.924 300.707 149.533 300.707 149.533L309.874 142.436C312.016 140.751 312.652 138.552 313.994 137.038C315.336 135.525 316.807 135.153 318.314 133.882C319.82 132.612 320.399 131.648 320.913 132.726C321.427 133.804 319.763 135.71 319.485 136.167C319.206 136.624 317.486 137.717 319.756 137.595C322.027 137.474 326.389 134.875 327.453 134.397C328.517 133.918 328.531 135.225 328.038 136.082C327.546 136.938 327.781 139.33 327.203 140.865C326.625 142.4 325.589 143.336 323.497 144.378C321.548 145.349 316.807 145.956 315.265 146.927C311.881 150.39 305.497 156.873 303.884 158.066C301.663 159.715 299.514 161.236 296.116 157.973C292.717 154.71 284.949 144.55 284.949 144.55L280.836 129.67C284.17 129.548 286.534 130.348 288.854 133.397Z" fill="#B16668"/>
<path d="M300.708 149.534C299.451 150.462 298.145 152.547 298.023 153.482C298.037 152.595 298.235 151.72 298.603 150.912C298.972 150.105 299.504 149.383 300.165 148.791L300.708 149.534Z" fill="#9A4A4D"/>
<path d="M280.367 129.313C280.367 129.313 284.601 129.049 286.829 130.741C288.835 132.283 290.399 134.311 293.797 139.202C296.746 143.486 298.174 145.542 298.174 145.542C296.24 148.396 293.427 150.542 290.163 151.654L284.173 144.271C281.052 140.316 277.961 134.297 280.367 129.313Z" fill="#37474F"/>
<path d="M274.397 109.599C274.411 111.237 273.939 112.842 273.04 114.212C272.142 115.582 270.858 116.655 269.35 117.294C267.842 117.934 266.178 118.113 264.569 117.807C262.959 117.501 261.477 116.725 260.309 115.577C259.14 114.429 258.339 112.96 258.005 111.356C257.672 109.752 257.822 108.086 258.435 106.567C259.049 105.048 260.1 103.745 261.454 102.824C262.808 101.902 264.405 101.402 266.043 101.388C267.13 101.379 268.209 101.584 269.218 101.991C270.226 102.399 271.145 103.001 271.92 103.763C272.696 104.526 273.314 105.434 273.739 106.435C274.164 107.436 274.387 108.511 274.397 109.599Z" fill="#263238"/>
<path d="M280.487 115.439C280.487 115.439 279.195 121.758 278.666 122.794C278.315 123.437 277.729 123.92 277.031 124.143L277.081 119.702L280.487 115.439Z" fill="#263238"/>
<path d="M278.725 106.422C279.193 106.362 279.669 106.409 280.116 106.562C280.562 106.714 280.968 106.966 281.302 107.3C282.416 108.421 281.831 111.962 280.489 115.439L277.961 115.754L278.725 106.422Z" fill="#263238"/>
<path d="M277.203 115.761C277.71 116.061 278.424 115.047 279.045 114.419C279.666 113.791 281.694 112.848 282.737 114.983C283.779 117.118 281.88 120.067 280.28 120.581C277.517 121.48 277.082 119.703 277.082 119.703L276.968 129.998C273.569 134.447 264.008 134.154 267.95 129.513V126.471C266.719 126.678 265.469 126.752 264.223 126.693C262.181 126.4 260.888 124.8 260.246 122.601C259.225 119.074 258.818 116.218 259.603 109.242C260.46 101.603 269.335 101.446 274.154 104.423C278.974 107.4 277.203 115.761 277.203 115.761Z" fill="#B16668"/>
<path d="M277.21 116.611C277.46 116.611 278.417 114.997 279.045 114.419C279.909 113.612 278.724 106.422 278.724 106.422C279.02 105.784 279.117 105.071 279.003 104.377C278.888 103.683 278.567 103.039 278.081 102.531C276.874 101.224 275.189 99.6317 269.763 100.317C265.886 100.81 261.68 102.059 258.26 100.417C257.956 101.53 257.99 102.709 258.359 103.803C258.728 104.897 259.414 105.856 260.331 106.557C260.331 106.557 261.573 107.343 264.822 107.707C267.817 107.904 270.824 107.82 273.804 107.457C274.747 107.321 274.954 108.228 275.482 110.72C275.946 112.898 276.353 116.603 277.21 116.611Z" fill="#263238"/>
<path d="M278.724 106.979L281.773 105.308C281.674 105.102 281.534 104.918 281.362 104.767C281.189 104.617 280.988 104.503 280.77 104.433C280.553 104.363 280.323 104.337 280.095 104.359C279.867 104.381 279.646 104.448 279.445 104.558C279.037 104.791 278.734 105.173 278.6 105.624C278.465 106.075 278.51 106.56 278.724 106.979Z" fill="#263238"/>
<path d="M267.926 126.471C267.926 126.471 272.467 125.515 274.045 124.658C274.975 124.163 275.734 123.399 276.222 122.466C275.992 123.396 275.577 124.27 275.002 125.036C273.852 126.536 267.94 127.678 267.94 127.678L267.926 126.471Z" fill="#9A4A4D"/>
<path d="M267.563 115.033C267.561 115.154 267.583 115.275 267.628 115.388C267.673 115.501 267.74 115.604 267.825 115.691C267.91 115.778 268.011 115.847 268.123 115.894C268.235 115.942 268.355 115.967 268.477 115.968C268.666 115.975 268.854 115.925 269.015 115.825C269.176 115.724 269.303 115.577 269.38 115.404C269.457 115.23 269.48 115.037 269.447 114.851C269.413 114.664 269.324 114.491 269.191 114.355C269.059 114.219 268.888 114.127 268.702 114.089C268.516 114.051 268.323 114.069 268.148 114.142C267.972 114.215 267.823 114.339 267.718 114.498C267.614 114.656 267.56 114.843 267.563 115.033Z" fill="#263238"/>
<path d="M270.269 111.899L268.242 110.978C268.124 111.255 268.117 111.567 268.224 111.849C268.33 112.131 268.541 112.361 268.813 112.491C268.947 112.551 269.092 112.582 269.239 112.585C269.385 112.587 269.531 112.56 269.667 112.504C269.803 112.449 269.926 112.367 270.03 112.263C270.133 112.159 270.215 112.035 270.269 111.899Z" fill="#263238"/>
<path d="M261.596 110.777L259.832 112.163C259.915 112.283 260.023 112.384 260.147 112.461C260.271 112.538 260.41 112.588 260.555 112.609C260.7 112.63 260.847 112.621 260.988 112.582C261.129 112.543 261.261 112.476 261.374 112.384C261.608 112.194 261.762 111.923 261.803 111.624C261.844 111.326 261.77 111.023 261.596 110.777Z" fill="#263238"/>
<path d="M260.532 114.811C260.54 114.982 260.598 115.146 260.699 115.284C260.8 115.421 260.94 115.526 261.1 115.586C261.26 115.645 261.434 115.656 261.6 115.617C261.766 115.578 261.917 115.491 262.035 115.367C262.152 115.243 262.23 115.087 262.26 114.919C262.289 114.751 262.269 114.578 262.201 114.421C262.132 114.265 262.02 114.131 261.877 114.038C261.734 113.945 261.566 113.896 261.396 113.897C261.279 113.9 261.164 113.926 261.057 113.974C260.95 114.021 260.854 114.089 260.773 114.174C260.693 114.259 260.63 114.359 260.589 114.469C260.547 114.578 260.528 114.695 260.532 114.811Z" fill="#263238"/>
<path d="M265.256 114.076L264.742 119.538L261.922 118.453L265.256 114.076Z" fill="#9A4A4D"/>
<path d="M266.805 121.587C266.803 121.761 266.854 121.931 266.949 122.077C267.045 122.222 267.182 122.336 267.342 122.403C267.502 122.471 267.679 122.489 267.85 122.456C268.021 122.423 268.178 122.34 268.301 122.218C268.425 122.095 268.509 121.939 268.544 121.768C268.578 121.597 268.561 121.421 268.495 121.26C268.429 121.099 268.316 120.961 268.172 120.864C268.027 120.768 267.857 120.716 267.683 120.716C267.451 120.716 267.229 120.807 267.064 120.971C266.9 121.134 266.807 121.355 266.805 121.587Z" fill="#9A4A4D"/>
<path d="M289.098 63.4176C290.46 63.7208 291.772 64.2135 292.997 64.8813C294.168 65.5117 295.217 66.3459 296.095 67.3446C296.94 68.3123 297.564 69.4526 297.923 70.6862C298.299 71.9937 298.328 73.3764 298.009 74.6988C297.797 75.7485 297.38 76.7459 296.781 77.6334C296.242 78.3969 295.595 79.0776 294.86 79.654C294.141 80.2124 293.374 80.7069 292.568 81.132L290.298 82.3315C289.613 82.6892 288.963 83.1099 288.356 83.5881C287.807 84.0041 287.387 84.5657 287.142 85.2089C287.019 85.4957 286.818 85.7428 286.564 85.9229C286.441 86.0164 286.299 86.0811 286.148 86.112C285.998 86.1429 285.842 86.1393 285.692 86.1014L282.351 85.3874C282.191 85.3536 282.039 85.2882 281.904 85.195C281.769 85.1019 281.654 84.9828 281.566 84.8448C281.472 84.7155 281.41 84.566 281.386 84.4085C281.361 84.2509 281.374 84.0897 281.423 83.938C281.701 82.8993 282.187 81.9278 282.851 81.082C283.449 80.3355 284.14 79.6685 284.907 79.0971C285.648 78.5549 286.434 78.0772 287.256 77.6691C288.07 77.2621 288.827 76.8694 289.527 76.4838C290.166 76.1458 290.767 75.7388 291.319 75.27C291.8 74.8652 292.133 74.3131 292.268 73.6992C292.392 73.1631 292.384 72.6051 292.244 72.073C292.105 71.5408 291.839 71.0502 291.469 70.6433C290.546 69.6344 289.312 68.9633 287.963 68.7369C285.469 68.18 283.36 69.0202 281.637 71.2574C281.472 71.5023 281.261 71.7132 281.016 71.8785C280.883 71.946 280.739 71.9865 280.59 71.9975C280.442 72.0085 280.293 71.9899 280.152 71.9428L276.582 71.1503C276.456 71.126 276.336 71.0769 276.229 71.0058C276.123 70.9347 276.031 70.843 275.961 70.7361C275.883 70.6268 275.83 70.5015 275.807 70.3694C275.783 70.2373 275.79 70.1016 275.825 69.9722C276.125 68.8748 276.689 67.8674 277.467 67.0376C278.341 66.0733 279.378 65.2708 280.53 64.6671C281.793 64.004 283.156 63.5506 284.564 63.3248C286.067 63.0604 287.607 63.0919 289.098 63.4176ZM285.328 88.7932C285.485 88.8267 285.633 88.8921 285.763 88.9855C285.894 89.0789 286.003 89.1982 286.085 89.3358C286.173 89.4691 286.233 89.6188 286.261 89.7759C286.289 89.933 286.285 90.0942 286.249 90.2498L285.393 94.1196C285.321 94.4286 285.132 94.6974 284.865 94.8694C284.599 95.0413 284.276 95.1027 283.965 95.0407L280.18 94.2053C280.025 94.1719 279.877 94.1072 279.747 94.0151C279.617 93.9231 279.507 93.8056 279.424 93.6698C279.334 93.5371 279.274 93.3874 279.246 93.2301C279.217 93.0728 279.222 92.9113 279.259 92.7559L280.116 88.8789C280.188 88.5699 280.377 88.3011 280.644 88.1292C280.91 87.9572 281.233 87.8958 281.544 87.9578L285.328 88.7932Z" fill="#BA68C8"/>
<path d="M300.322 99.8245C301.266 99.6688 302.228 99.6496 303.178 99.7674C304.091 99.8711 304.979 100.137 305.798 100.553C306.581 100.953 307.268 101.518 307.812 102.209C308.388 102.95 308.76 103.829 308.89 104.758C309.038 105.481 309.038 106.227 308.89 106.95C308.741 107.579 308.501 108.183 308.176 108.742C307.858 109.281 307.495 109.792 307.091 110.27L305.941 111.627C305.595 112.033 305.284 112.467 305.013 112.926C304.771 113.334 304.647 113.802 304.656 114.276C304.655 114.499 304.59 114.717 304.47 114.904C304.416 114.994 304.342 115.071 304.254 115.129C304.167 115.187 304.067 115.225 303.963 115.24L301.628 115.625C301.403 115.661 301.172 115.607 300.986 115.475C300.894 115.416 300.818 115.336 300.762 115.241C300.706 115.147 300.673 115.042 300.665 114.933C300.567 114.201 300.623 113.457 300.829 112.748C301.014 112.112 301.285 111.504 301.636 110.941C301.97 110.403 302.35 109.894 302.771 109.421C303.192 108.949 303.571 108.507 303.928 108.078C304.249 107.698 304.529 107.284 304.763 106.843C304.968 106.461 305.04 106.022 304.97 105.594C304.912 105.217 304.763 104.861 304.537 104.555C304.311 104.249 304.013 104.003 303.671 103.837C302.824 103.424 301.863 103.308 300.943 103.509C300.111 103.631 299.336 104.008 298.725 104.587C298.115 105.165 297.697 105.919 297.53 106.743C297.485 106.945 297.402 107.136 297.287 107.307C297.149 107.459 296.957 107.551 296.752 107.564L294.267 107.971C294.091 108 293.91 107.962 293.76 107.864C293.682 107.814 293.616 107.746 293.567 107.667C293.517 107.588 293.486 107.5 293.475 107.407C293.388 106.627 293.494 105.838 293.782 105.108C294.092 104.264 294.551 103.483 295.138 102.802C295.779 102.054 296.536 101.416 297.38 100.91C298.281 100.36 299.28 99.9919 300.322 99.8245ZM304.399 117.096C304.508 117.078 304.62 117.082 304.728 117.107C304.836 117.133 304.938 117.18 305.027 117.246C305.116 117.31 305.192 117.39 305.25 117.484C305.307 117.577 305.346 117.68 305.363 117.789L305.805 120.488C305.824 120.597 305.82 120.709 305.794 120.817C305.768 120.925 305.721 121.027 305.655 121.116C305.593 121.206 305.512 121.283 305.419 121.34C305.326 121.398 305.221 121.436 305.113 121.452L302.471 121.887C302.363 121.905 302.252 121.901 302.145 121.875C302.039 121.849 301.938 121.802 301.85 121.737C301.758 121.675 301.681 121.595 301.622 121.502C301.563 121.408 301.524 121.304 301.507 121.195L301.064 118.488C301.032 118.266 301.088 118.04 301.222 117.859C301.356 117.678 301.556 117.558 301.778 117.525L304.399 117.096Z" fill="#BA68C8"/>
<g opacity="0.2">
<path d="M300.322 99.8245C301.266 99.6688 302.228 99.6496 303.178 99.7674C304.091 99.8711 304.979 100.137 305.798 100.553C306.581 100.953 307.268 101.518 307.812 102.209C308.388 102.95 308.76 103.829 308.89 104.758C309.038 105.481 309.038 106.227 308.89 106.95C308.741 107.579 308.501 108.183 308.176 108.742C307.858 109.281 307.495 109.792 307.091 110.27L305.941 111.627C305.595 112.033 305.284 112.467 305.013 112.926C304.771 113.334 304.647 113.802 304.656 114.276C304.655 114.499 304.59 114.717 304.47 114.904C304.416 114.994 304.342 115.071 304.254 115.129C304.167 115.187 304.067 115.225 303.963 115.24L301.628 115.625C301.403 115.661 301.172 115.607 300.986 115.475C300.894 115.416 300.818 115.336 300.762 115.241C300.706 115.147 300.673 115.042 300.665 114.933C300.567 114.201 300.623 113.457 300.829 112.748C301.014 112.112 301.285 111.504 301.636 110.941C301.97 110.403 302.35 109.894 302.771 109.421C303.192 108.949 303.571 108.507 303.928 108.078C304.249 107.698 304.529 107.284 304.763 106.843C304.968 106.461 305.04 106.022 304.97 105.594C304.912 105.217 304.763 104.861 304.537 104.555C304.311 104.249 304.013 104.003 303.671 103.837C302.824 103.424 301.863 103.308 300.943 103.509C300.111 103.631 299.336 104.008 298.725 104.587C298.115 105.165 297.697 105.919 297.53 106.743C297.485 106.945 297.402 107.136 297.287 107.307C297.149 107.459 296.957 107.551 296.752 107.564L294.267 107.971C294.091 108 293.91 107.962 293.76 107.864C293.682 107.814 293.616 107.746 293.567 107.667C293.517 107.588 293.486 107.5 293.475 107.407C293.388 106.627 293.494 105.838 293.782 105.108C294.092 104.264 294.551 103.483 295.138 102.802C295.779 102.054 296.536 101.416 297.38 100.91C298.281 100.36 299.28 99.9919 300.322 99.8245ZM304.399 117.096C304.508 117.078 304.62 117.082 304.728 117.107C304.836 117.133 304.938 117.18 305.027 117.246C305.116 117.31 305.192 117.39 305.25 117.484C305.307 117.577 305.346 117.68 305.363 117.789L305.805 120.488C305.824 120.597 305.82 120.709 305.794 120.817C305.768 120.925 305.721 121.027 305.655 121.116C305.593 121.206 305.512 121.283 305.419 121.34C305.326 121.398 305.221 121.436 305.113 121.452L302.471 121.887C302.363 121.905 302.252 121.901 302.145 121.875C302.039 121.849 301.938 121.802 301.85 121.737C301.758 121.675 301.681 121.595 301.622 121.502C301.563 121.408 301.524 121.304 301.507 121.195L301.064 118.488C301.032 118.266 301.088 118.04 301.222 117.859C301.356 117.678 301.556 117.558 301.778 117.525L304.399 117.096Z" fill="black"/>
</g>
<path d="M324.671 107.486C324.883 107.641 325.026 107.872 325.07 108.131C325.114 108.389 325.055 108.655 324.906 108.871L323.021 111.513C322.867 111.725 322.635 111.868 322.377 111.912C322.118 111.956 321.852 111.898 321.636 111.749L319.052 109.914C318.945 109.839 318.855 109.744 318.786 109.633C318.717 109.523 318.672 109.4 318.652 109.271C318.614 109.021 318.673 108.766 318.816 108.557L320.701 105.908C320.854 105.695 321.085 105.551 321.343 105.508C321.595 105.47 321.851 105.532 322.057 105.68L324.671 107.486ZM335.581 89.5718C336.513 90.2293 337.345 91.0181 338.051 91.9137C338.733 92.7659 339.258 93.7331 339.6 94.7697C339.928 95.7604 340.037 96.8101 339.922 97.847C339.788 98.9512 339.37 100.002 338.708 100.896C338.215 101.619 337.584 102.237 336.852 102.717C336.2 103.121 335.493 103.426 334.752 103.623C334.034 103.815 333.301 103.944 332.56 104.009L330.461 104.187C329.834 104.245 329.213 104.355 328.605 104.516C328.06 104.66 327.566 104.951 327.177 105.358C326.99 105.54 326.758 105.671 326.506 105.737C326.383 105.766 326.255 105.767 326.132 105.742C326.009 105.716 325.892 105.663 325.792 105.587L323.507 103.966C323.289 103.809 323.14 103.574 323.093 103.309C323.066 103.184 323.067 103.055 323.098 102.931C323.129 102.807 323.189 102.692 323.271 102.595C323.803 101.898 324.471 101.318 325.235 100.889C325.922 100.512 326.657 100.228 327.42 100.046C328.151 99.8693 328.896 99.7547 329.647 99.7034C330.361 99.6606 331.075 99.6035 331.732 99.5392C332.322 99.4883 332.904 99.371 333.467 99.1894C333.958 99.0399 334.385 98.7308 334.681 98.3111C334.946 97.9475 335.119 97.5246 335.184 97.0791C335.248 96.6336 335.203 96.1791 335.052 95.755C334.68 94.7028 333.966 93.8054 333.025 93.206C331.325 91.9922 329.469 91.9518 327.455 93.0846C327.252 93.2144 327.027 93.3063 326.791 93.356C326.669 93.3647 326.546 93.349 326.429 93.3097C326.313 93.2705 326.205 93.2086 326.113 93.1275L323.685 91.3996C323.509 91.2794 323.386 91.095 323.343 90.8855C323.322 90.7784 323.325 90.6681 323.35 90.5621C323.376 90.4561 323.425 90.357 323.493 90.2715C324.058 89.5412 324.793 88.9602 325.635 88.5793C326.6 88.1326 327.637 87.8595 328.698 87.7725C329.859 87.6778 331.028 87.7694 332.161 88.0438C333.391 88.3214 334.553 88.8408 335.581 89.5718Z" fill="#BA68C8"/>
<g opacity="0.6">
<path d="M324.671 107.486C324.883 107.641 325.026 107.872 325.07 108.131C325.114 108.389 325.055 108.655 324.906 108.871L323.021 111.513C322.867 111.725 322.635 111.868 322.377 111.912C322.118 111.956 321.852 111.898 321.636 111.749L319.052 109.914C318.945 109.839 318.855 109.744 318.786 109.633C318.717 109.523 318.672 109.4 318.652 109.271C318.614 109.021 318.673 108.766 318.816 108.557L320.701 105.908C320.854 105.695 321.085 105.551 321.343 105.508C321.595 105.47 321.851 105.532 322.057 105.68L324.671 107.486ZM335.581 89.5718C336.513 90.2293 337.345 91.0181 338.051 91.9137C338.733 92.7659 339.258 93.7331 339.6 94.7697C339.928 95.7604 340.037 96.8101 339.922 97.847C339.788 98.9512 339.37 100.002 338.708 100.896C338.215 101.619 337.584 102.237 336.852 102.717C336.2 103.121 335.493 103.426 334.752 103.623C334.034 103.815 333.301 103.944 332.56 104.009L330.461 104.187C329.834 104.245 329.213 104.355 328.605 104.516C328.06 104.66 327.566 104.951 327.177 105.358C326.99 105.54 326.758 105.671 326.506 105.737C326.383 105.766 326.255 105.767 326.132 105.742C326.009 105.716 325.892 105.663 325.792 105.587L323.507 103.966C323.289 103.809 323.14 103.574 323.093 103.309C323.066 103.184 323.067 103.055 323.098 102.931C323.129 102.807 323.189 102.692 323.271 102.595C323.803 101.898 324.471 101.318 325.235 100.889C325.922 100.512 326.657 100.228 327.42 100.046C328.151 99.8693 328.896 99.7547 329.647 99.7034C330.361 99.6606 331.075 99.6035 331.732 99.5392C332.322 99.4883 332.904 99.371 333.467 99.1894C333.958 99.0399 334.385 98.7308 334.681 98.3111C334.946 97.9475 335.119 97.5246 335.184 97.0791C335.248 96.6336 335.203 96.1791 335.052 95.755C334.68 94.7028 333.966 93.8054 333.025 93.206C331.325 91.9922 329.469 91.9518 327.455 93.0846C327.252 93.2144 327.027 93.3063 326.791 93.356C326.669 93.3647 326.546 93.349 326.429 93.3097C326.313 93.2705 326.205 93.2086 326.113 93.1275L323.685 91.3996C323.509 91.2794 323.386 91.095 323.343 90.8855C323.322 90.7784 323.325 90.6681 323.35 90.5621C323.376 90.4561 323.425 90.357 323.493 90.2715C324.058 89.5412 324.793 88.9602 325.635 88.5793C326.6 88.1326 327.637 87.8595 328.698 87.7725C329.859 87.6778 331.028 87.7694 332.161 88.0438C333.391 88.3214 334.553 88.8408 335.581 89.5718Z" fill="white"/>
</g>
<path d="M94.5923 248.843C94.5209 246.701 96.0631 225.767 96.0631 225.767L85.8672 233.164C87.9592 245.644 88.409 248.593 88.4447 250.635C88.4016 250.805 88.3824 250.981 88.3876 251.156C88.3876 253.584 91.1365 254.891 93.2714 256.511C95.0859 257.93 97.0183 259.192 99.0476 260.281C100.597 261.06 103.753 261.131 104.138 260.131C101.539 258.146 97.7624 255.176 95.6918 252.913C94.7065 251.828 94.6708 250.971 94.5923 248.843Z" fill="#FFA8A7"/>
<path d="M108.573 262.752C108.688 263.085 108.709 263.444 108.632 263.788C108.555 264.133 108.384 264.449 108.137 264.701C106.265 266.051 103.934 266.606 101.654 266.243C98.4126 265.822 96.6561 264.901 95.3638 263.816C94.0715 262.731 92.2508 261.203 90.7799 260.881C89.6106 260.659 88.4983 260.202 87.5098 259.539C87.0743 259.118 87.1314 257.247 87.1314 257.247L108.573 262.752Z" fill="#263238"/>
<path d="M88.4223 250.043C88.3023 250.047 88.1873 250.092 88.0973 250.172C88.0073 250.251 87.948 250.36 87.9297 250.478C87.8297 250.993 87.7226 252.492 87.5084 253.334C87.177 254.824 87.0711 256.355 87.1943 257.876C87.3728 258.839 89.5862 259.503 91.007 260.018C92.6779 260.745 94.2284 261.722 95.6052 262.916C97.5921 264.402 99.9635 265.287 102.438 265.465C104.937 265.465 107.75 264.637 108.4 263.48C109.193 262.052 108.571 261.217 104.866 259.496C104.152 259.175 101.703 257.711 100.86 257.183C98.5897 255.755 96.3406 253.763 95.291 251.235C95.2064 250.926 95.0203 250.655 94.7627 250.464C94.5377 250.367 94.2883 250.342 94.0487 250.393C93.4298 250.483 92.828 250.666 92.2637 250.935C91.771 251.171 91.0641 251.45 91.0713 252.085C91.0865 252.305 91.1346 252.522 91.2141 252.728C91.2569 252.863 91.2926 253.035 91.2141 253.113C91.1355 253.192 90.9642 253.113 90.8642 253.013C90.5009 252.641 90.1689 252.24 89.8718 251.814C89.6962 251.595 89.4975 251.397 89.2791 251.221C89.0607 251.097 88.8508 250.959 88.6508 250.807C88.3795 250.614 88.4366 250.343 88.4223 250.043Z" fill="#455A64"/>
<path d="M95.6065 262.951C94.9568 262.423 94.2714 261.902 93.5859 261.445C93.5859 261.445 97.9413 264.094 99.6978 262.873C100.024 262.666 100.262 262.347 100.368 261.975C100.473 261.604 100.438 261.207 100.269 260.859C100.269 260.56 103.039 259.267 104.139 259.139C104.446 259.31 104.703 259.446 104.853 259.517C108.559 261.238 109.18 262.066 108.387 263.501C107.737 264.658 105.703 265.565 102.475 265.565C100.376 265.608 97.1059 264.18 95.6065 262.951Z" fill="#37474F"/>
<path d="M99.9614 259.996C102.268 260.917 101.282 261.345 100.64 261.424C99.9971 261.502 96.1201 259.282 93.7496 257.383C91.3791 255.483 89.7298 253.291 88.8159 252.577C88.4732 252.313 88.1019 251.985 87.7734 251.678C87.8377 251.171 87.8877 250.707 87.9305 250.464C87.9488 250.345 88.0081 250.237 88.0981 250.157C88.1881 250.077 88.3031 250.032 88.4232 250.028C88.4232 250.328 88.3803 250.607 88.6088 250.828C88.8088 250.98 89.0187 251.118 89.2371 251.242C89.4555 251.418 89.6542 251.616 89.8298 251.835C90.1269 252.261 90.4589 252.663 90.8222 253.034C93.3915 255.922 96.4948 258.286 99.9614 259.996Z" fill="#263238"/>
<path d="M100.474 261.103C100.421 261.101 100.371 261.081 100.331 261.046C100.308 261.027 100.289 261.005 100.274 260.979C100.26 260.954 100.251 260.925 100.248 260.896C100.244 260.867 100.247 260.837 100.255 260.809C100.263 260.781 100.277 260.754 100.296 260.731C100.839 260.167 101.496 259.727 102.224 259.438C102.952 259.15 103.733 259.021 104.515 259.061C104.577 259.068 104.633 259.099 104.671 259.147C104.71 259.195 104.728 259.256 104.722 259.318C104.715 259.377 104.685 259.431 104.638 259.469C104.592 259.506 104.532 259.524 104.473 259.518C103.767 259.488 103.062 259.607 102.405 259.865C101.747 260.123 101.15 260.515 100.653 261.017C100.631 261.043 100.604 261.065 100.573 261.079C100.542 261.094 100.508 261.102 100.474 261.103Z" fill="#F5F5F5"/>
<path d="M98.4671 259.896C98.4127 259.899 98.3593 259.881 98.3172 259.846C98.2765 259.803 98.2539 259.745 98.2539 259.686C98.2539 259.626 98.2765 259.569 98.3172 259.525C98.8614 258.963 99.5195 258.524 100.247 258.237C100.975 257.95 101.756 257.822 102.537 257.861C102.598 257.868 102.653 257.898 102.691 257.946C102.729 257.994 102.747 258.054 102.74 258.115C102.734 258.176 102.703 258.231 102.656 258.269C102.608 258.307 102.548 258.325 102.487 258.318C101.781 258.287 101.076 258.405 100.418 258.663C99.76 258.921 99.1635 259.315 98.667 259.818C98.6427 259.846 98.6117 259.868 98.5769 259.882C98.542 259.896 98.5043 259.901 98.4671 259.896Z" fill="#F5F5F5"/>
<path d="M96.4549 258.689C96.4029 258.69 96.3524 258.672 96.3121 258.639C96.2698 258.596 96.2461 258.539 96.2461 258.479C96.2461 258.418 96.2698 258.361 96.3121 258.318C96.8566 257.756 97.5147 257.317 98.2424 257.031C98.9701 256.744 99.7506 256.615 100.532 256.654C100.562 256.657 100.591 256.666 100.618 256.68C100.645 256.694 100.668 256.713 100.687 256.736C100.707 256.759 100.721 256.786 100.73 256.815C100.739 256.844 100.742 256.874 100.739 256.904C100.736 256.934 100.728 256.963 100.714 256.99C100.7 257.017 100.68 257.04 100.657 257.06C100.634 257.079 100.607 257.093 100.578 257.102C100.549 257.111 100.519 257.114 100.489 257.111C99.7829 257.08 99.078 257.198 98.4201 257.456C97.7621 257.714 97.1656 258.108 96.6691 258.611C96.6426 258.64 96.6092 258.663 96.5718 258.677C96.5345 258.69 96.4943 258.695 96.4549 258.689Z" fill="#F5F5F5"/>
<path d="M94.5908 257.354C94.5388 257.354 94.4882 257.337 94.448 257.304C94.4262 257.283 94.4088 257.258 94.3969 257.23C94.385 257.203 94.3789 257.173 94.3789 257.143C94.3789 257.113 94.385 257.083 94.3969 257.056C94.4088 257.028 94.4262 257.003 94.448 256.982C94.9917 256.42 95.6496 255.98 96.3775 255.693C97.1054 255.406 97.8864 255.279 98.6677 255.319C98.7271 255.326 98.7814 255.356 98.8188 255.403C98.8561 255.45 98.8737 255.509 98.8677 255.569C98.8605 255.628 98.8303 255.682 98.7835 255.72C98.7368 255.757 98.6773 255.775 98.6177 255.769C97.9119 255.741 97.208 255.859 96.5505 256.118C95.893 256.376 95.2962 256.767 94.7979 257.268C94.7736 257.299 94.7418 257.323 94.7055 257.338C94.6693 257.353 94.6298 257.358 94.5908 257.354Z" fill="#F5F5F5"/>
<path d="M92.7713 256.019C92.7199 256.017 92.6702 255.999 92.6285 255.969C92.5862 255.926 92.5625 255.869 92.5625 255.808C92.5625 255.748 92.5862 255.691 92.6285 255.648C93.2173 255.035 93.9382 254.565 94.7363 254.273C95.5344 253.981 96.3886 253.875 97.2338 253.963C97.264 253.964 97.2935 253.972 97.3204 253.986C97.3473 254 97.371 254.019 97.3898 254.043C97.4087 254.066 97.4224 254.094 97.43 254.123C97.4375 254.152 97.4388 254.183 97.4337 254.213C97.4266 254.272 97.3964 254.326 97.3496 254.364C97.3029 254.401 97.2434 254.419 97.1838 254.413C96.4155 254.337 95.64 254.433 94.9137 254.695C94.1874 254.957 93.5287 255.378 92.9855 255.926C92.9605 255.958 92.9277 255.984 92.8903 256C92.8529 256.016 92.8119 256.023 92.7713 256.019Z" fill="#F5F5F5"/>
<path d="M75.3864 235.299L65.0977 235.113C65.2476 241.982 66.34 249.6 66.5257 256.041C66.5257 257.254 66.5257 265.465 66.9541 267.964C67.6681 271.713 72.0949 271.206 72.3305 268.964C72.5661 266.722 72.0449 257.133 72.0592 256.112C72.0163 251.985 73.9513 245.009 74.9723 237.591C75.0151 237.255 75.3364 235.656 75.3864 235.299Z" fill="#FFA8A7"/>
<path d="M73.998 270.52C74.1891 272.238 73.9436 273.977 73.284 275.575C72.9575 276.21 72.4306 276.719 71.7851 277.024C71.1396 277.329 70.4116 277.412 69.714 277.26C68.1932 277.039 66.1869 276.225 65.5728 274.404C64.9914 272.727 64.7866 270.943 64.9731 269.178L73.998 270.52Z" fill="#263238"/>
<path d="M66.4958 255.255C65.8889 255.362 66.0031 258.325 65.946 261.302C65.8817 264.501 65.0749 265.901 64.9964 268.521C64.9036 271.52 65.1963 272.805 66.4244 274.504C67.6525 276.204 71.4866 277.575 73.036 274.833C74.2998 272.598 74.1284 270.277 73.6929 267.336C73.2574 264.394 72.9146 262.166 72.8004 259.839C72.6862 257.511 72.6362 255.448 72.0864 255.255C72.0864 255.583 72.0864 256.005 72.0864 256.326C72.0864 256.647 72.1364 257.754 71.7937 257.825C71.7408 257.55 71.7098 257.27 71.7008 256.99C71.7167 256.73 71.6324 256.475 71.4652 256.276C71.2587 256.124 71.0078 256.043 70.7512 256.047C70.1396 255.979 69.5246 255.945 68.9091 255.947C68.6021 255.947 68.2879 255.947 67.988 255.997C67.7242 256.018 67.4658 256.083 67.2241 256.19C67.1529 256.221 67.0888 256.266 67.0359 256.322C66.9831 256.379 66.9426 256.446 66.917 256.519C66.8956 256.632 66.8956 256.748 66.917 256.861C66.9421 257.065 66.9421 257.271 66.917 257.475C66.917 257.568 66.8528 257.682 66.76 257.668C66.6671 257.654 66.6529 257.568 66.6457 257.497C66.6029 257.14 66.6457 256.876 66.6029 256.462C66.6029 256.269 66.6029 256.005 66.6029 255.812C66.6029 255.619 66.5029 255.448 66.4958 255.255Z" fill="#455A64"/>
<path d="M65.0448 267.664C65.0448 268.1 64.9519 270.963 65.7588 271.391C66.5656 271.82 66.8797 269.592 66.8797 269.592C66.8797 269.592 68.7718 268.799 71.7421 269.756C71.6421 270.227 72.2276 271.698 72.9773 271.298C73.727 270.899 73.6913 267.636 73.6913 267.593C74.0983 270.449 74.2268 272.662 72.9773 274.833C71.4279 277.575 67.5795 276.189 66.3657 274.504C65.1519 272.819 64.8591 271.52 64.9377 268.521C64.9734 268.221 65.0233 267.943 65.0448 267.664Z" fill="#37474F"/>
<path d="M67.1184 269.756C67.2112 270.827 66.1259 270.578 65.926 269.042C65.7261 267.507 66.1973 263.873 65.926 261.274C65.9831 258.297 65.8689 255.334 66.4758 255.227C66.4722 255.262 66.4722 255.298 66.4758 255.334L66.5472 256.84C66.5331 257.054 66.5331 257.269 66.5472 257.483C66.7471 259.668 66.8685 263.909 66.8756 265.922C66.8882 267.204 66.9692 268.484 67.1184 269.756Z" fill="#263238"/>
<path d="M71.4019 269.756C71.5418 268.493 71.6109 267.222 71.609 265.951C71.609 263.951 71.7375 259.76 71.9374 257.561C72.0148 257.154 72.0459 256.74 72.0302 256.326C72.0302 256.026 72.0302 255.612 72.0302 255.326C72.0302 255.326 72.0302 255.283 72.0302 255.255C72.4301 255.405 72.5729 256.583 72.6586 258.068C72.6586 258.932 72.6586 260.003 72.58 261.302C72.3087 263.901 72.7799 267.586 72.58 269.092C72.3801 270.599 71.3305 270.827 71.4019 269.756Z" fill="#263238"/>
<path d="M71.8204 269.835H71.7419C70.1991 269.303 68.5223 269.303 66.9795 269.835C66.9513 269.846 66.9214 269.851 66.8913 269.85C66.8611 269.849 66.8315 269.843 66.804 269.83C66.7765 269.818 66.7516 269.801 66.7309 269.779C66.7102 269.757 66.6939 269.731 66.6832 269.703C66.6724 269.675 66.6672 269.645 66.6681 269.615C66.6689 269.585 66.6756 269.555 66.6878 269.527C66.7001 269.5 66.7177 269.475 66.7395 269.454C66.7614 269.434 66.7871 269.417 66.8153 269.407C68.4613 268.819 70.26 268.819 71.9061 269.407C71.9341 269.417 71.9598 269.433 71.9816 269.453C72.0034 269.474 72.0208 269.498 72.0328 269.526C72.0448 269.553 72.0512 269.582 72.0515 269.612C72.0518 269.642 72.046 269.672 72.0346 269.699C72.0171 269.741 71.9872 269.777 71.9488 269.801C71.9105 269.825 71.8657 269.837 71.8204 269.835Z" fill="#F5F5F5"/>
<path d="M72.1129 267.465C72.0871 267.471 72.0601 267.471 72.0343 267.465C70.2997 266.926 68.4425 266.926 66.7079 267.465C66.6793 267.475 66.649 267.479 66.6188 267.477C66.5885 267.476 66.5589 267.468 66.5316 267.455C66.5044 267.441 66.48 267.423 66.4601 267.4C66.4401 267.377 66.4248 267.351 66.4152 267.322C66.4052 267.294 66.4009 267.264 66.4028 267.234C66.4046 267.204 66.4124 267.175 66.4257 267.149C66.439 267.122 66.4576 267.098 66.4804 267.079C66.5031 267.06 66.5295 267.045 66.558 267.036C68.3904 266.453 70.3589 266.453 72.1914 267.036C72.2416 267.055 72.2836 267.091 72.3102 267.137C72.3368 267.183 72.3462 267.238 72.3369 267.29C72.3275 267.343 72.3 267.391 72.2591 267.425C72.2181 267.46 72.1664 267.479 72.1129 267.479V267.465Z" fill="#F5F5F5"/>
<path d="M66.617 265.222C66.5733 265.221 66.5308 265.207 66.4943 265.184C66.4577 265.16 66.4285 265.126 66.41 265.086C66.3858 265.031 66.3842 264.969 66.4056 264.913C66.427 264.857 66.4696 264.811 66.5242 264.786C68.3279 264.077 70.3309 264.064 72.1434 264.751C72.1715 264.761 72.1972 264.777 72.2189 264.797C72.2407 264.818 72.2581 264.842 72.2702 264.87C72.2822 264.897 72.2885 264.927 72.2888 264.956C72.2891 264.986 72.2834 265.016 72.2719 265.043C72.2496 265.099 72.2065 265.143 72.1518 265.167C72.0971 265.191 72.0351 265.193 71.9792 265.172C71.9792 265.172 69.1803 264.072 66.717 265.172C66.6879 265.196 66.6537 265.213 66.617 265.222Z" fill="#F5F5F5"/>
<path d="M66.5675 263.123C66.5244 263.123 66.4821 263.111 66.4454 263.089C66.4088 263.066 66.3793 263.033 66.3605 262.994C66.3358 262.94 66.3332 262.879 66.3532 262.823C66.3732 262.767 66.4142 262.721 66.4675 262.695C67.3627 262.287 68.3331 262.07 69.3168 262.059C70.3004 262.048 71.2755 262.243 72.1795 262.63C72.2066 262.643 72.231 262.66 72.2511 262.682C72.2712 262.704 72.2867 262.73 72.2967 262.758C72.3067 262.785 72.311 262.815 72.3093 262.845C72.3075 262.875 72.2998 262.904 72.2866 262.93C72.2744 262.957 72.2568 262.982 72.235 263.002C72.2131 263.022 72.1874 263.037 72.1594 263.047C72.1315 263.057 72.1017 263.062 72.0721 263.06C72.0424 263.058 72.0134 263.05 71.9868 263.037C71.1385 262.686 70.2278 262.511 69.3098 262.522C68.3918 262.533 67.4856 262.73 66.646 263.102C66.6212 263.113 66.5947 263.12 66.5675 263.123Z" fill="#F5F5F5"/>
<path d="M66.5171 260.775C66.4648 260.775 66.4138 260.758 66.3726 260.726C66.3315 260.694 66.3026 260.648 66.2909 260.597C66.2792 260.546 66.2854 260.493 66.3084 260.446C66.3313 260.399 66.3697 260.361 66.4171 260.339C69.1374 258.997 72.072 260.282 72.1934 260.339C72.2218 260.35 72.2476 260.366 72.2691 260.388C72.2905 260.409 72.3072 260.435 72.318 260.463C72.3288 260.492 72.3335 260.522 72.3317 260.552C72.3299 260.582 72.3217 260.612 72.3076 260.639C72.2827 260.693 72.2372 260.736 72.1811 260.757C72.125 260.779 72.0627 260.777 72.0077 260.753C72.0077 260.753 69.1517 259.504 66.6242 260.753C66.5911 260.77 66.5541 260.777 66.5171 260.775Z" fill="#F5F5F5"/>
<path d="M68.4797 168.504C64.8526 178.55 65.488 184.855 66.1092 195.386C66.6804 205.039 67.5872 213.543 67.5872 213.543C67.4444 215.257 65.0597 218.598 64.7312 226.167C64.6259 231.496 64.8644 236.826 65.4452 242.124C65.4452 242.124 70.1933 243.859 74.206 242.124C74.206 242.124 78.3115 223.996 79.4325 215.135C80.4035 207.403 82.1028 197.521 82.1028 197.521L85.6728 215.1C84.975 217.462 84.6168 219.912 84.609 222.375C84.609 226.509 86.5296 238.005 86.5296 238.005C86.5296 238.005 91.8489 239.725 95.219 236.734C95.219 236.734 96.5542 220.19 97.0254 213.886C97.6537 205.475 96.7398 182.42 94.7192 170.617L68.4797 168.504Z" fill="#455A64"/>
<path d="M82.1445 197.492L83.6296 184.269C83.6296 184.269 90.277 183.383 93.2901 180.549C92.4257 181.901 91.2736 183.045 89.916 183.9C88.5583 184.756 87.0286 185.301 85.4361 185.497L83.2941 197.806L85.7217 215.071L82.1445 197.492Z" fill="#37474F"/>
<path d="M98.5846 158.701C95.3501 155.374 89.5096 147.848 89.5096 147.848L86.2109 136.424C86.9482 136.462 87.687 136.462 88.4243 136.424C91.9943 136.66 93.0439 136.967 95.2645 139.394C97.028 141.329 103.754 150.511 106.089 153.603L112.293 145.699C113.786 143.45 113.543 140.93 114.314 139.095C115.085 137.26 116.335 136.453 117.334 134.811C118.334 133.168 118.569 132.069 119.391 132.918C120.212 133.768 119.262 136.053 119.141 136.574C119.019 137.095 117.763 138.645 119.855 137.838C121.947 137.031 125.174 133.211 126.002 132.433C126.83 131.655 127.273 132.861 127.087 133.818C126.902 134.775 127.801 136.931 127.473 138.509C127.269 140.096 126.479 141.55 125.26 142.586C123.753 144.1 120.069 145.963 118.627 147.955C117.184 149.947 114.107 156.138 112.201 159.865C109.809 164.606 107.774 166.169 105.061 164.57C102.347 162.971 99.7769 159.936 98.5846 158.701Z" fill="#FFA8A7"/>
<path d="M87.2588 136.303C89.0844 136.12 90.9274 136.365 92.6423 137.017C94.5773 137.888 95.891 139.759 97.7831 142.293C99.6752 144.828 103.052 149.262 103.052 149.262C103.052 149.262 102.139 153.11 96.1124 156.566L86.2734 146.434L87.2588 136.303Z" fill="#37474F"/>
<path d="M106.085 153.596C104.908 154.706 104.12 156.165 103.836 157.758C103.836 157.758 103.122 155.466 105.557 152.889L106.085 153.596Z" fill="#F28F8F"/>
<path d="M94.3833 156.587C98.7744 152.974 97.325 148.269 95.7256 145.099C92.5198 138.766 89.1854 136.274 87.7931 136.295L79.0609 136.381C74.8911 136.952 71.6638 136.666 70.6571 136.902C68.0867 137.509 68.0296 139.622 67.9296 142.357C67.8225 145.356 66.2874 144.849 67.0657 149.804C67.9836 151.646 68.7895 153.541 69.479 155.48C69.9502 157.194 71.2782 159.921 70.5714 162.692C70.3001 163.763 69.5718 164.834 68.4794 167.768C67.2407 171.067 66.3202 174.476 65.7305 177.95C65.7305 177.95 68.2795 177.357 71.1783 174.273C71.1783 174.273 75.141 179.578 84.6729 179.042C94.5618 178.485 95.4329 173.33 95.4329 173.33L93.9192 164.048C94.1477 160.3 94.2476 158.943 94.3833 156.587Z" fill="#BA68C8"/>
<path opacity="0.1" d="M88.6807 155.652C88.6807 155.652 85.1107 158.508 80.9196 157.137C79.7521 156.787 78.6936 156.144 77.845 155.269C76.9963 154.394 76.3858 153.316 76.0715 152.139C76.0715 152.139 75.7145 156.887 80.9838 158.415C82.3934 158.842 83.9031 158.804 85.2895 158.307C86.6758 157.809 87.865 156.878 88.6807 155.652Z" fill="black"/>
<path d="M63.6808 132.218C62.3884 131.276 55.4269 140.593 58.6828 142.928C61.9386 145.263 65.4086 138.644 64.7089 135.517C64.0092 132.389 63.6808 132.218 63.6808 132.218Z" fill="#37474F"/>
<path d="M57.3635 127.592C59.1057 125.178 60.2909 123.358 61.8831 121.287C62.7828 120.109 63.3611 119.274 64.225 118.067C64.8248 117.239 65.1747 116.539 65.8458 116.275C66.5951 115.945 67.2647 115.458 67.8093 114.847C68.1428 114.461 68.4505 114.053 68.7304 113.626C69.7368 112.232 70.9392 110.991 72.3004 109.942C73.7284 108.835 75.292 107.978 76.7486 106.921C77.6125 106.293 78.5407 105.258 77.4626 104.323C77.1275 104.052 76.7297 103.87 76.3059 103.794C73.707 103.273 71.4579 104.208 68.9303 104.901C67.8312 105.2 66.757 105.585 65.7173 106.05C65.2011 106.26 64.7197 106.546 64.2893 106.9C63.6914 107.525 63.208 108.25 62.8613 109.042C61.7546 111.077 59.4198 112.891 57.7848 114.483C55.8641 116.353 54.1505 118.053 51.9585 120.13C49.9879 121.987 48.0529 123.7 46.2465 125.728C44.7543 127.399 45.3326 128.684 45.5325 129.12C46.8177 131.647 48.2172 132.54 49.9022 134.118C50.4591 134.632 51.0232 135.139 51.5872 135.646C53.7721 137.616 55.9569 139.458 58.2274 141.358C60.655 143.357 61.6546 144.328 63.8181 146.27C65.1833 147.524 66.321 149.005 67.181 150.647C70.9295 151.268 74.6137 145.535 71.4007 138.83C70.8723 137.746 70.073 136.816 69.0802 136.131C65.1247 133.311 57.3635 127.592 57.3635 127.592Z" fill="#FFA8A7"/>
<path d="M57.3627 127.592C56.1933 129.077 54.6221 130.194 52.8359 130.812C52.8359 130.812 55.2278 131.383 58.4408 128.391L57.3627 127.592Z" fill="#F28F8F"/>
<path d="M70.9599 136.845C70.0817 136.239 67.9469 134.946 63.6843 132.219C63.6843 132.219 64.3412 133.597 63.3059 137.06C62.2706 140.523 60.0857 142.715 58.7148 142.964C58.7148 142.964 61.0996 144.849 63.2987 146.977C65.4978 149.105 67.3043 150.611 68.5752 153.082C68.5752 153.082 71.7168 152.275 72.4308 146.949C72.9306 143.214 72.6307 138.83 70.9599 136.845Z" fill="#455A64"/>
<path d="M94.8065 119.695C95.4342 118.368 95.7107 116.903 95.6094 115.439C95.5081 113.975 95.0325 112.561 94.2282 111.334C91.5221 107.485 86.9596 105.622 81.9188 105.679H80.3551C73.5507 105.793 67.3675 111.634 67.2461 118.21C67.2461 122.836 67.2461 127.113 69.7951 130.269C72.1441 133.204 75.807 134.168 78.8986 134.639C84.8105 135.538 91.4507 134.853 94.1353 130.826C94.1353 130.826 90.5653 131.54 91.0152 127.842C91.0794 127.256 90.5225 126.613 89.5443 125.949C90.2295 124.763 91.0358 123.65 91.9505 122.629C92.9572 121.623 94.1211 121.059 94.8065 119.695Z" fill="#263238"/>
<path d="M93.0421 123.072C93.0064 129.962 90.8002 131.697 89.6935 132.211C88.5868 132.725 86.4162 132.454 84.3099 132.147L84.3813 136.281C84.3813 136.281 86.8446 138.773 86.7018 140.672C86.559 142.571 82.9319 142.814 80.183 141.036C78.6687 140.033 77.2952 138.833 76.0989 137.466C75.8706 137.202 75.7418 136.866 75.7348 136.517L75.5634 126.799C75.5634 126.799 74.4353 128.034 72.379 126.678C71.9347 126.406 71.5518 126.045 71.2545 125.618C70.9572 125.19 70.7521 124.706 70.652 124.195C70.552 123.684 70.5593 123.158 70.6734 122.65C70.7876 122.142 71.0061 121.663 71.3151 121.244C71.6056 120.962 71.9545 120.746 72.3373 120.614C72.72 120.481 73.1272 120.433 73.5303 120.475C73.9333 120.516 74.3223 120.646 74.6699 120.854C75.0175 121.062 75.3152 121.344 75.542 121.68C76.1703 122.851 76.1132 123.679 76.97 123.543C77.8268 123.408 77.8625 122.479 77.9196 121.815C77.9767 121.151 77.9196 120.937 78.0053 120.066C80.0402 119.631 82.1465 116.796 82.3821 114.725C83.7607 115.403 85.2799 115.746 86.816 115.725C89.0937 115.568 90.2718 115.111 91.3928 113.469C91.6599 113.844 91.8738 114.255 92.0282 114.69C92.3454 115.569 92.5844 116.474 92.7423 117.396C92.9966 119.277 93.0969 121.175 93.0421 123.072Z" fill="#FFA8A7"/>
<path d="M84.3094 132.147C82.0888 131.89 77.5121 130.662 76.7695 128.877C77.0697 129.783 77.6403 130.576 78.4046 131.147C79.7898 132.29 84.3308 133.525 84.3308 133.525L84.3094 132.147Z" fill="#F28F8F"/>
<path d="M86.5438 128.434C86.548 128.614 86.4988 128.791 86.4024 128.942C86.306 129.094 86.1667 129.213 86.0023 129.286C85.8379 129.358 85.6557 129.38 85.4788 129.348C85.3019 129.317 85.1384 129.234 85.0089 129.109C84.8793 128.985 84.7897 128.825 84.7514 128.649C84.713 128.474 84.7277 128.291 84.7934 128.124C84.8592 127.956 84.9731 127.813 85.1208 127.71C85.2684 127.608 85.4431 127.552 85.6227 127.549C85.862 127.545 86.0931 127.636 86.2656 127.802C86.4382 127.968 86.5382 128.195 86.5438 128.434Z" fill="#B16668"/>
<path d="M85.3822 121.651C85.394 121.778 85.3806 121.905 85.3427 122.027C85.3049 122.148 85.2433 122.261 85.1617 122.359C85.0801 122.456 84.9799 122.537 84.867 122.595C84.7542 122.654 84.6308 122.69 84.504 122.7C84.3088 122.721 84.1117 122.683 83.9382 122.591C83.7647 122.499 83.6226 122.358 83.5301 122.185C83.4377 122.011 83.3991 121.814 83.4193 121.619C83.4396 121.424 83.5177 121.239 83.6437 121.088C83.7697 120.938 83.9379 120.828 84.1265 120.774C84.3152 120.72 84.5159 120.723 84.7027 120.783C84.8895 120.844 85.054 120.959 85.1751 121.113C85.2962 121.268 85.3683 121.455 85.3822 121.651Z" fill="#263238"/>
<path d="M91.8222 121.245C91.84 121.477 91.7652 121.708 91.6141 121.885C91.4631 122.063 91.2479 122.174 91.0154 122.194C90.8983 122.209 90.7794 122.198 90.6669 122.162C90.5544 122.126 90.451 122.067 90.3635 121.988C90.2761 121.908 90.2068 121.811 90.1604 121.703C90.1139 121.594 90.0914 121.477 90.0943 121.359C90.0826 121.243 90.094 121.127 90.1281 121.015C90.1621 120.904 90.218 120.801 90.2926 120.712C90.3671 120.623 90.4587 120.55 90.562 120.496C90.6653 120.443 90.7782 120.411 90.894 120.402C91.1284 120.392 91.3572 120.475 91.5309 120.633C91.7046 120.791 91.8093 121.01 91.8222 121.245Z" fill="#263238"/>
<path d="M87.3711 120.352L88.0565 126.106L91.0054 124.878L87.3711 120.352Z" fill="#F28F8F"/>
<path d="M81.9375 119.167L83.6511 117.539C83.8645 117.776 83.9783 118.087 83.969 118.406C83.9597 118.725 83.828 119.028 83.6011 119.253C83.4881 119.36 83.3544 119.443 83.2083 119.497C83.0621 119.551 82.9065 119.575 82.7509 119.567C82.5953 119.559 82.443 119.519 82.3032 119.45C82.1633 119.382 82.0389 119.285 81.9375 119.167Z" fill="#263238"/>
<path d="M90.5152 117.011L92.4145 118.439C92.327 118.568 92.2142 118.677 92.0828 118.761C91.9514 118.845 91.8042 118.901 91.6504 118.925C91.4966 118.95 91.3394 118.943 91.1884 118.905C91.0373 118.867 90.8957 118.798 90.7723 118.703C90.5236 118.506 90.3588 118.221 90.3111 117.907C90.2634 117.593 90.3364 117.273 90.5152 117.011Z" fill="#263238"/>
<path d="M63.1379 64.71C64.507 64.449 65.9065 64.3865 67.2934 64.5244C68.6188 64.6406 69.9126 64.9937 71.1133 65.5668C72.2654 66.1168 73.2838 66.9111 74.0978 67.8945C74.9562 68.947 75.5269 70.2041 75.7543 71.543C75.9684 72.5937 75.9684 73.6768 75.7543 74.7275C75.5624 75.642 75.2351 76.5227 74.7833 77.3407C74.3447 78.1367 73.8357 78.8918 73.2625 79.5969C72.6913 80.3109 72.1486 80.9678 71.6417 81.6033C71.1568 82.2013 70.7267 82.8417 70.3565 83.5168C70.0162 84.1161 69.8505 84.7988 69.8781 85.4874C69.8823 85.8076 69.8009 86.1231 69.6425 86.4014C69.5677 86.5329 69.4651 86.6464 69.3417 86.734C69.2184 86.8216 69.0773 86.8811 68.9285 86.9083L65.5655 87.5437C65.4058 87.5755 65.2413 87.5748 65.0818 87.5417C64.9224 87.5086 64.7712 87.4437 64.6373 87.351C64.498 87.2712 64.3803 87.1586 64.2945 87.023C64.2086 86.8873 64.1572 86.7328 64.1447 86.5727C63.9807 85.5163 64.0342 84.4376 64.3018 83.4025C64.5556 82.4803 64.9276 81.5948 65.4085 80.7679C65.8733 79.9804 66.4061 79.235 67.0007 78.5402C67.5933 77.8262 68.1288 77.1836 68.6215 76.5553C69.0744 75.991 69.4668 75.3808 69.7924 74.7346C70.0725 74.1739 70.1603 73.5366 70.0423 72.921C69.9475 72.3785 69.7217 71.8673 69.3845 71.4318C69.0473 70.9963 68.6089 70.6497 68.1074 70.422C66.8633 69.8567 65.466 69.7235 64.1375 70.0436C61.6338 70.5196 60.0273 72.1237 59.318 74.856C59.2556 75.144 59.1446 75.4193 58.9896 75.6699C58.7916 75.8988 58.5127 76.0421 58.2113 76.0698L54.6413 76.7481C54.3948 76.792 54.1406 76.7437 53.9273 76.6124C53.8152 76.5383 53.7198 76.4416 53.6473 76.3285C53.5747 76.2154 53.5266 76.0883 53.5061 75.9555C53.3519 74.8292 53.4744 73.6823 53.8631 72.614C54.2673 71.3801 54.8861 70.2271 55.6909 69.2082C56.5934 68.0926 57.6684 67.1284 58.8754 66.3522C60.1761 65.5333 61.6239 64.9755 63.1379 64.71ZM69.6568 89.5215C69.9742 89.4666 70.3006 89.5372 70.5671 89.7184C70.8335 89.8995 71.0191 90.1771 71.0848 90.4926L71.7988 94.391C71.8313 94.5473 71.831 94.7086 71.7978 94.8647C71.7646 95.0208 71.6993 95.1683 71.606 95.2978C71.5183 95.4306 71.4048 95.5445 71.2724 95.6328C71.14 95.7211 70.9912 95.782 70.8349 95.8119L67.0292 96.5259C66.8719 96.5586 66.7094 96.5584 66.5521 96.5252C66.3948 96.492 66.2461 96.4266 66.1153 96.3331C65.9825 96.2454 65.8686 96.132 65.7803 95.9995C65.692 95.8671 65.6311 95.7183 65.6012 95.562L64.8872 91.6635C64.8574 91.5067 64.8597 91.3455 64.8941 91.1896C64.9285 91.0337 64.9942 90.8865 65.0872 90.7567C65.1726 90.6219 65.2854 90.5065 65.4183 90.418C65.5511 90.3295 65.701 90.2697 65.8583 90.2427L69.6568 89.5215Z" fill="#BA68C8"/>
<path d="M99.4253 80.7962C100.267 81.2632 101.037 81.85 101.71 82.5384C102.364 83.1835 102.894 83.9435 103.274 84.7804C103.638 85.5808 103.825 86.4501 103.824 87.3293C103.823 88.2665 103.577 89.1872 103.11 89.9997C102.76 90.6509 102.287 91.228 101.717 91.699C101.207 92.0953 100.642 92.4151 100.039 92.6486C99.4539 92.8774 98.8494 93.0542 98.2329 93.177L96.4908 93.5197C95.9682 93.6202 95.4565 93.7708 94.9628 93.9695C94.5185 94.1344 94.1299 94.4216 93.8418 94.7978C93.7014 94.9707 93.5161 95.1016 93.3063 95.1762C93.2077 95.2131 93.1022 95.2278 92.9973 95.2192C92.8923 95.2105 92.7906 95.1788 92.6994 95.1262L90.636 93.9695C90.4353 93.8598 90.2864 93.6749 90.2218 93.4555C90.1868 93.3512 90.1762 93.2403 90.1911 93.1313C90.206 93.0223 90.2458 92.9182 90.3075 92.8271C90.6877 92.1959 91.1931 91.6492 91.7926 91.2206C92.336 90.8411 92.9264 90.5339 93.5491 90.3067C94.1462 90.0943 94.76 89.9319 95.3841 89.8212C96.0052 89.7141 96.5836 89.607 97.1262 89.4928C97.6159 89.3904 98.0943 89.2398 98.5542 89.0429C98.9512 88.8678 99.2815 88.57 99.4967 88.1933C99.6842 87.862 99.7887 87.4901 99.8011 87.1096C99.8135 86.7291 99.7336 86.3513 99.5681 86.0084C99.1603 85.1581 98.4789 84.4692 97.6332 84.0521C96.9046 83.6311 96.064 83.4449 95.2258 83.519C94.3876 83.5931 93.5927 83.9239 92.9493 84.4662C92.7901 84.5956 92.6086 84.6948 92.4138 84.7589C92.2094 84.7929 91.9997 84.7469 91.8283 84.6304L89.6292 83.4023C89.4736 83.3148 89.3564 83.1722 89.3008 83.0025C89.273 82.9138 89.2643 82.8202 89.2754 82.7279C89.2865 82.6355 89.317 82.5466 89.365 82.467C89.7818 81.8033 90.3525 81.2497 91.0287 80.8534C91.7983 80.3888 92.6445 80.0649 93.5277 79.8966C94.4944 79.7071 95.4854 79.6757 96.4622 79.8038C97.5045 79.941 98.5106 80.278 99.4253 80.7962ZM91.8997 96.8255C91.9967 96.8793 92.082 96.9518 92.1506 97.0388C92.2193 97.1259 92.2699 97.2257 92.2996 97.3325C92.3312 97.4377 92.3412 97.5483 92.3289 97.6575C92.3166 97.7667 92.2824 97.8723 92.2282 97.968L90.893 100.36C90.7847 100.554 90.6037 100.698 90.3896 100.76C90.1755 100.821 89.9458 100.796 89.7506 100.688L87.4158 99.3817C87.3175 99.3307 87.2315 99.2589 87.1637 99.1714C87.0959 99.0839 87.0479 98.9826 87.0231 98.8747C86.9892 98.7701 86.9773 98.6596 86.9884 98.5502C86.9995 98.4408 87.0332 98.3349 87.0874 98.2393L88.4226 95.8474C88.4767 95.7515 88.5494 95.6674 88.6365 95.6C88.7235 95.5325 88.8231 95.4831 88.9295 95.4547C89.0345 95.4213 89.1453 95.4105 89.2548 95.4228C89.3643 95.4351 89.47 95.4703 89.565 95.5261L91.8997 96.8255Z" fill="#BA68C8"/>
<g opacity="0.2">
<path d="M99.4253 80.7962C100.267 81.2632 101.037 81.85 101.71 82.5384C102.364 83.1835 102.894 83.9435 103.274 84.7804C103.638 85.5808 103.825 86.4501 103.824 87.3293C103.823 88.2665 103.577 89.1872 103.11 89.9997C102.76 90.6509 102.287 91.228 101.717 91.699C101.207 92.0953 100.642 92.4151 100.039 92.6486C99.4539 92.8774 98.8494 93.0542 98.2329 93.177L96.4908 93.5197C95.9682 93.6202 95.4565 93.7708 94.9628 93.9695C94.5185 94.1344 94.1299 94.4216 93.8418 94.7978C93.7014 94.9707 93.5161 95.1016 93.3063 95.1762C93.2077 95.2131 93.1022 95.2278 92.9973 95.2192C92.8923 95.2105 92.7906 95.1788 92.6994 95.1262L90.636 93.9695C90.4353 93.8598 90.2864 93.6749 90.2218 93.4555C90.1868 93.3512 90.1762 93.2403 90.1911 93.1313C90.206 93.0223 90.2458 92.9182 90.3075 92.8271C90.6877 92.1959 91.1931 91.6492 91.7926 91.2206C92.336 90.8411 92.9264 90.5339 93.5491 90.3067C94.1462 90.0943 94.76 89.9319 95.3841 89.8212C96.0052 89.7141 96.5836 89.607 97.1262 89.4928C97.6159 89.3904 98.0943 89.2398 98.5542 89.0429C98.9512 88.8678 99.2815 88.57 99.4967 88.1933C99.6842 87.862 99.7887 87.4901 99.8011 87.1096C99.8135 86.7291 99.7336 86.3513 99.5681 86.0084C99.1603 85.1581 98.4789 84.4692 97.6332 84.0521C96.9046 83.6311 96.064 83.4449 95.2258 83.519C94.3876 83.5931 93.5927 83.9239 92.9493 84.4662C92.7901 84.5956 92.6086 84.6948 92.4138 84.7589C92.2094 84.7929 91.9997 84.7469 91.8283 84.6304L89.6292 83.4023C89.4736 83.3148 89.3564 83.1722 89.3008 83.0025C89.273 82.9138 89.2643 82.8202 89.2754 82.7279C89.2865 82.6355 89.317 82.5466 89.365 82.467C89.7818 81.8033 90.3525 81.2497 91.0287 80.8534C91.7983 80.3888 92.6445 80.0649 93.5277 79.8966C94.4944 79.7071 95.4854 79.6757 96.4622 79.8038C97.5045 79.941 98.5106 80.278 99.4253 80.7962ZM91.8997 96.8255C91.9967 96.8793 92.082 96.9518 92.1506 97.0388C92.2193 97.1259 92.2699 97.2257 92.2996 97.3325C92.3312 97.4377 92.3412 97.5483 92.3289 97.6575C92.3166 97.7667 92.2824 97.8723 92.2282 97.968L90.893 100.36C90.7847 100.554 90.6037 100.698 90.3896 100.76C90.1755 100.821 89.9458 100.796 89.7506 100.688L87.4158 99.3817C87.3175 99.3307 87.2315 99.2589 87.1637 99.1714C87.0959 99.0839 87.0479 98.9826 87.0231 98.8747C86.9892 98.7701 86.9773 98.6596 86.9884 98.5502C86.9995 98.4408 87.0332 98.3349 87.0874 98.2393L88.4226 95.8474C88.4767 95.7515 88.5494 95.6674 88.6365 95.6C88.7235 95.5325 88.8231 95.4831 88.9295 95.4547C89.0345 95.4213 89.1453 95.4105 89.2548 95.4228C89.3643 95.4351 89.47 95.4703 89.565 95.5261L91.8997 96.8255Z" fill="black"/>
</g>
<path d="M49.1306 107.014C49.2257 106.924 49.3379 106.854 49.4606 106.809C49.5833 106.764 49.7139 106.744 49.8446 106.75C49.9786 106.752 50.1108 106.78 50.2335 106.834C50.3562 106.888 50.4667 106.966 50.5586 107.064L52.7577 109.449C52.8482 109.546 52.9185 109.66 52.9646 109.785C53.0108 109.909 53.0318 110.042 53.0265 110.175C53.0212 110.307 52.9896 110.438 52.9337 110.558C52.8778 110.679 52.7985 110.787 52.7006 110.877L50.3729 113.019C50.2757 113.109 50.1615 113.18 50.0369 113.226C49.9123 113.272 49.7798 113.293 49.6471 113.288C49.5143 113.282 49.3839 113.251 49.2634 113.195C49.1429 113.139 49.0347 113.06 48.945 112.962L46.7458 110.577C46.6545 110.48 46.5834 110.366 46.5367 110.241C46.49 110.117 46.4687 109.984 46.474 109.851C46.4793 109.718 46.5112 109.587 46.5677 109.467C46.6241 109.346 46.7041 109.238 46.8029 109.149L49.1306 107.014ZM33.851 92.6269C34.6859 91.8467 35.6285 91.1902 36.6499 90.6777C37.6198 90.1875 38.6689 89.8733 39.7486 89.7495C40.7851 89.6351 41.834 89.7422 42.826 90.0637C43.8799 90.4234 44.8222 91.0508 45.5606 91.8844C46.1784 92.5122 46.664 93.2575 46.9886 94.0764C47.2504 94.7946 47.4044 95.5478 47.4455 96.3112C47.4863 97.0544 47.4624 97.7998 47.3741 98.5389C47.2813 99.2529 47.1956 99.9669 47.1171 100.631C47.0396 101.256 47.0181 101.887 47.0528 102.516C47.0766 103.081 47.2598 103.628 47.5812 104.094C47.7196 104.307 47.7985 104.554 47.8097 104.808C47.8159 104.933 47.7934 105.058 47.7439 105.173C47.6944 105.288 47.6192 105.39 47.5241 105.472L45.4678 107.378C45.2727 107.555 45.0169 107.65 44.7538 107.642C44.6232 107.647 44.4934 107.62 44.3754 107.565C44.2573 107.509 44.1544 107.425 44.0755 107.321C43.5042 106.657 43.072 105.885 42.8045 105.051C42.5809 104.301 42.4561 103.526 42.4333 102.744C42.411 101.99 42.454 101.235 42.5618 100.488C42.6689 99.7741 42.7546 99.0601 42.826 98.4175C42.8899 97.8266 42.8899 97.2305 42.826 96.6396C42.7794 96.1306 42.566 95.6512 42.2191 95.2759C41.9172 94.9414 41.5384 94.6853 41.1155 94.5298C40.6926 94.3743 40.2382 94.3241 39.7915 94.3834C38.6898 94.5259 37.6658 95.0278 36.8783 95.8114C35.3456 97.2394 34.9244 99.0506 35.6146 101.245C35.6992 101.473 35.7428 101.715 35.7431 101.959C35.7254 102.079 35.6841 102.195 35.6216 102.299C35.5591 102.403 35.4767 102.494 35.3789 102.566L33.187 104.594C33.0338 104.742 32.8287 104.824 32.6158 104.822C32.5067 104.82 32.3993 104.795 32.3008 104.748C32.2023 104.701 32.1149 104.634 32.0446 104.551C31.4376 103.848 31.0133 103.007 30.8093 102.102C30.5671 101.066 30.5115 99.9944 30.6451 98.9387C30.7917 97.7814 31.1245 96.6554 31.6304 95.6043C32.1693 94.4765 32.9237 93.4651 33.851 92.6269Z" fill="#BA68C8"/>
<g opacity="0.6">
<path d="M49.1306 107.014C49.2257 106.924 49.3379 106.854 49.4606 106.809C49.5833 106.764 49.7139 106.744 49.8446 106.75C49.9786 106.752 50.1108 106.78 50.2335 106.834C50.3562 106.888 50.4667 106.966 50.5586 107.064L52.7577 109.449C52.8482 109.546 52.9185 109.66 52.9646 109.785C53.0108 109.909 53.0318 110.042 53.0265 110.175C53.0212 110.307 52.9896 110.438 52.9337 110.558C52.8778 110.679 52.7985 110.787 52.7006 110.877L50.3729 113.019C50.2757 113.109 50.1615 113.18 50.0369 113.226C49.9123 113.272 49.7798 113.293 49.6471 113.288C49.5143 113.282 49.3839 113.251 49.2634 113.195C49.1429 113.139 49.0347 113.06 48.945 112.962L46.7458 110.577C46.6545 110.48 46.5834 110.366 46.5367 110.241C46.49 110.117 46.4687 109.984 46.474 109.851C46.4793 109.718 46.5112 109.587 46.5677 109.467C46.6241 109.346 46.7041 109.238 46.8029 109.149L49.1306 107.014ZM33.851 92.6269C34.6859 91.8467 35.6285 91.1902 36.6499 90.6777C37.6198 90.1875 38.6689 89.8733 39.7486 89.7495C40.7851 89.6351 41.834 89.7422 42.826 90.0637C43.8799 90.4234 44.8222 91.0508 45.5606 91.8844C46.1784 92.5122 46.664 93.2575 46.9886 94.0764C47.2504 94.7946 47.4044 95.5478 47.4455 96.3112C47.4863 97.0544 47.4624 97.7998 47.3741 98.5389C47.2813 99.2529 47.1956 99.9669 47.1171 100.631C47.0396 101.256 47.0181 101.887 47.0528 102.516C47.0766 103.081 47.2598 103.628 47.5812 104.094C47.7196 104.307 47.7985 104.554 47.8097 104.808C47.8159 104.933 47.7934 105.058 47.7439 105.173C47.6944 105.288 47.6192 105.39 47.5241 105.472L45.4678 107.378C45.2727 107.555 45.0169 107.65 44.7538 107.642C44.6232 107.647 44.4934 107.62 44.3754 107.565C44.2573 107.509 44.1544 107.425 44.0755 107.321C43.5042 106.657 43.072 105.885 42.8045 105.051C42.5809 104.301 42.4561 103.526 42.4333 102.744C42.411 101.99 42.454 101.235 42.5618 100.488C42.6689 99.7741 42.7546 99.0601 42.826 98.4175C42.8899 97.8266 42.8899 97.2305 42.826 96.6396C42.7794 96.1306 42.566 95.6512 42.2191 95.2759C41.9172 94.9414 41.5384 94.6853 41.1155 94.5298C40.6926 94.3743 40.2382 94.3241 39.7915 94.3834C38.6898 94.5259 37.6658 95.0278 36.8783 95.8114C35.3456 97.2394 34.9244 99.0506 35.6146 101.245C35.6992 101.473 35.7428 101.715 35.7431 101.959C35.7254 102.079 35.6841 102.195 35.6216 102.299C35.5591 102.403 35.4767 102.494 35.3789 102.566L33.187 104.594C33.0338 104.742 32.8287 104.824 32.6158 104.822C32.5067 104.82 32.3993 104.795 32.3008 104.748C32.2023 104.701 32.1149 104.634 32.0446 104.551C31.4376 103.848 31.0133 103.007 30.8093 102.102C30.5671 101.066 30.5115 99.9944 30.6451 98.9387C30.7917 97.7814 31.1245 96.6554 31.6304 95.6043C32.1693 94.4765 32.9237 93.4651 33.851 92.6269Z" fill="white"/>
</g>
<path d="M194.523 156.83C192.488 155.667 183.92 150.711 181.007 149.026C180.428 148.698 180.064 148.484 180.036 148.462C178.587 147.655 176.895 147.401 175.273 147.748C173.881 148.031 172.548 148.55 171.332 149.283C171.132 149.398 170.932 149.533 170.739 149.662C167.448 151.74 164.62 155.01 162.264 159.508C159.865 163.889 158.578 168.793 158.516 173.788C158.516 178.519 159.777 181.839 162.3 183.748C162.555 183.938 162.822 184.112 163.1 184.269C165.463 185.612 177.315 192.48 177.579 192.63H177.644C177.352 192.471 177.073 192.289 176.808 192.088C174.281 190.184 173.019 186.866 173.024 182.134C173.086 177.139 174.373 172.236 176.773 167.854C179.262 163.094 182.282 159.684 185.833 157.623C189.213 155.671 192.131 155.417 194.587 156.859L194.523 156.83Z" fill="#BA68C8"/>
<path opacity="0.4" d="M194.587 156.873C192.131 155.445 189.213 155.697 185.834 157.629C182.535 159.533 179.691 162.627 177.301 166.911L162.793 158.508C165.035 154.502 167.684 151.553 170.733 149.633C170.925 149.511 171.125 149.368 171.325 149.254C172.54 148.52 173.874 148.003 175.267 147.726C176.888 147.375 178.582 147.629 180.029 148.44L181 149.004C183.913 150.682 192.481 155.637 194.516 156.801L194.587 156.873Z" fill="black"/>
<path opacity="0.3" d="M177.644 192.608H177.579C177.315 192.458 165.441 185.59 163.1 184.247C162.822 184.09 162.555 183.916 162.3 183.726C159.777 181.822 158.516 178.504 158.516 173.773C158.576 168.778 159.863 163.874 162.264 159.493C162.435 159.157 162.614 158.829 162.8 158.515L177.301 166.89C177.122 167.204 176.944 167.532 176.773 167.861C174.373 172.242 173.086 177.146 173.024 182.141C173.024 186.872 174.286 190.19 176.808 192.094C177.074 192.286 177.353 192.458 177.644 192.608Z" fill="black"/>
<path d="M188.196 34.3072C195.236 30.2374 201.229 28.5072 206.174 29.1164C208.187 29.3569 210.13 30.003 211.886 31.0157C211.837 30.9898 211.79 30.9612 211.744 30.93C210.044 29.9733 199.806 24.0685 197.464 22.6905C195.677 21.6463 193.693 20.985 191.637 20.7484C186.687 20.1439 180.692 21.8717 173.652 25.932C162.704 32.2485 153.898 41.5305 147.234 53.778C140.57 66.0255 137.273 78.5276 137.345 91.2844L151.846 99.6597C151.746 86.8933 155.043 74.3888 161.735 62.1461C168.428 49.9034 177.248 40.6237 188.196 34.3072Z" fill="#BA68C8"/>
<path opacity="0.2" d="M211.771 30.9374C210.041 29.9736 208.14 29.3552 206.173 29.1167C201.232 28.5074 195.24 30.2377 188.195 34.3075C177.247 40.6193 168.441 49.9013 161.777 62.1535C161.498 62.6604 161.227 63.1745 160.963 63.6815L146.426 55.292C146.69 54.785 146.961 54.2709 147.24 53.764C153.932 41.526 162.738 32.244 173.658 25.918C180.707 21.853 186.703 20.1251 191.643 20.7344C193.7 20.9734 195.684 21.6371 197.47 22.6836C199.833 24.0759 210.072 29.9878 211.771 30.9374Z" fill="black"/>
<path opacity="0.3" d="M160.93 63.6672C154.785 75.4196 151.76 87.4125 151.855 99.6457L137.354 91.2705C137.263 79.0325 140.288 67.0397 146.428 55.292L160.93 63.6672Z" fill="black"/>
<path d="M198.047 58.0406C195.415 56.6412 191.9 57.1886 187.502 59.6828C187.353 62.2996 186.814 64.8795 185.902 67.3369C184.803 70.2976 181.604 76.4047 176.306 85.6581C170.818 95.2257 166.848 104.363 164.397 113.069C161.965 121.664 160.73 130.554 160.727 139.487L160.798 143.935L170.694 149.647L175.306 152.31L175.228 147.855V147.798C175.244 138.894 176.478 130.034 178.898 121.465C181.349 112.759 185.321 103.625 190.815 94.0619C196.108 84.8085 199.304 78.699 200.404 75.7335C201.502 72.8018 202.063 69.6963 202.06 66.5658C202.06 62.3056 200.722 59.4638 198.047 58.0406Z" fill="#BA68C8"/>
<path opacity="0.3" d="M198.983 78.9399C197.345 82.348 194.623 87.3793 190.815 94.0338C185.317 103.601 181.345 112.738 178.898 121.444C176.476 130.02 175.241 138.887 175.228 147.798V147.912L175.306 152.368L170.694 149.712L160.798 144L160.727 139.544C160.731 130.611 161.966 121.722 164.397 113.126C166.848 104.42 170.818 95.2833 176.306 85.7157C180.114 79.0517 182.842 74.0228 184.488 70.6289L198.983 78.9399Z" fill="black"/>
<path opacity="0.4" d="M202.064 66.5658C202.065 69.6863 201.507 72.7818 200.414 75.705C200.107 76.5403 199.629 77.6185 198.986 78.9394L184.492 70.5713C185.125 69.248 185.601 68.1699 185.92 67.3369C186.832 64.8795 187.371 62.2996 187.52 59.6828C191.918 57.1886 195.433 56.6412 198.065 58.0406C200.698 59.44 202.03 62.2818 202.064 66.5658Z" fill="black"/>
<path d="M171.482 88.3076L151.854 99.6459C151.754 86.8796 155.05 74.3751 161.743 62.1323C168.435 49.8896 177.241 40.6076 188.161 34.2863C195.201 30.2165 201.194 28.4863 206.139 29.0956C211.085 29.7048 215.043 32.4157 218.013 37.228C220.988 42.0404 222.476 48.0427 222.476 55.2351C222.446 59.4108 221.967 63.5712 221.048 67.6444C219.935 72.5169 218.433 77.2922 216.556 81.9244C215.357 84.9518 212.484 90.54 207.938 98.6891C203.593 106.457 200.87 111.743 199.77 114.547C198.55 117.875 197.644 121.31 197.064 124.807C196.2 130.034 195.723 135.318 195.636 140.615L175.337 152.339L175.259 147.884C175.263 138.951 176.498 130.061 178.929 121.466C181.38 112.76 185.352 103.625 190.845 94.0624C196.138 84.809 199.335 78.6995 200.434 75.734C201.523 72.8005 202.074 69.6951 202.062 66.5663C202.062 62.2823 200.727 59.4406 198.057 58.0411C195.386 56.6417 191.802 57.2272 187.304 59.7976C182.706 62.4536 178.933 66.4378 175.987 71.7499C173.105 76.7978 171.555 82.4956 171.482 88.3076Z" fill="#BA68C8"/>
<path d="M185.797 157.673C189.438 155.564 192.546 155.433 195.122 157.28C197.697 159.127 198.984 162.413 198.984 167.14C198.906 172.162 197.595 177.089 195.164 181.484C192.623 186.316 189.55 189.772 185.947 191.852C182.343 193.932 179.283 194.017 176.765 192.109C174.242 190.205 172.98 186.885 172.98 182.148C173.043 177.153 174.33 172.25 176.729 167.868C179.228 163.118 182.251 159.719 185.797 157.673Z" fill="#BA68C8"/>
</svg>
