<svg width="220" height="45" viewBox="0 0 220 45" fill="none" xmlns="http://www.w3.org/2000/svg">
<path d="M7.77 10.2667C7.77 10.9044 7.98 11.3944 8.4 11.7367C8.83556 12.0789 9.41889 12.25 10.15 12.25C10.8033 12.25 11.2856 12.1411 11.5967 11.9233C11.9078 11.7056 12.1722 11.3789 12.39 10.9433C12.5922 10.5389 12.8644 10.3367 13.2067 10.3367H18.2467C18.3867 10.3367 18.5033 10.3911 18.5967 10.5C18.7056 10.5933 18.76 10.71 18.76 10.85C18.76 11.7989 18.4411 12.7322 17.8033 13.65C17.1656 14.5522 16.1933 15.3067 14.8867 15.9133C13.5956 16.5044 12.0167 16.8 10.15 16.8C8.48556 16.8 7 16.5511 5.69333 16.0533C4.40222 15.54 3.37556 14.7622 2.61333 13.72C1.85111 12.6622 1.47 11.3478 1.47 9.77667V7.02333C1.47 5.45222 1.85111 4.14556 2.61333 3.10333C3.37556 2.04556 4.40222 1.26778 5.69333 0.77C7 0.256667 8.48556 0 10.15 0C12.0167 0 13.5956 0.303334 14.8867 0.910001C16.1933 1.50111 17.1656 2.25556 17.8033 3.17333C18.4411 4.07556 18.76 5.00111 18.76 5.95C18.76 6.09 18.7056 6.21445 18.5967 6.32333C18.5033 6.41667 18.3867 6.46333 18.2467 6.46333H13.2067C12.8644 6.46333 12.5922 6.26111 12.39 5.85667C12.1722 5.42111 11.9078 5.09444 11.5967 4.87667C11.2856 4.65889 10.8033 4.55 10.15 4.55C9.41889 4.55 8.83556 4.72111 8.4 5.06333C7.98 5.40556 7.77 5.89556 7.77 6.53333V10.2667Z" fill="#5761D7"/>
<path d="M29.7409 16.8C27.1276 16.8 25.0509 16.2322 23.5109 15.0967C21.9864 13.9611 21.2242 12.1878 21.2242 9.77667V0.863333C21.2242 0.692223 21.2864 0.544445 21.4109 0.42C21.5353 0.295555 21.6831 0.233333 21.8542 0.233333H26.7309C26.902 0.233333 27.0498 0.295555 27.1742 0.42C27.2987 0.544445 27.3609 0.692223 27.3609 0.863333V10.15C27.3609 10.7878 27.5709 11.2778 27.9909 11.62C28.4264 11.9622 29.0098 12.1333 29.7409 12.1333C30.472 12.1333 31.0476 11.9622 31.4676 11.62C31.9031 11.2778 32.1209 10.7878 32.1209 10.15V0.863333C32.1209 0.692223 32.1831 0.544445 32.3076 0.42C32.432 0.295555 32.5798 0.233333 32.7509 0.233333H37.6276C37.7987 0.233333 37.9464 0.295555 38.0709 0.42C38.1953 0.544445 38.2576 0.692223 38.2576 0.863333V9.77667C38.2576 12.1878 37.4876 13.9611 35.9476 15.0967C34.4231 16.2322 32.3542 16.8 29.7409 16.8Z" fill="#5761D7"/>
<path d="M57.1718 11.7833C57.3429 11.7833 57.4907 11.8456 57.6151 11.97C57.7396 12.0944 57.8018 12.2422 57.8018 12.4133V15.9367C57.8018 16.1078 57.7396 16.2556 57.6151 16.38C57.4907 16.5044 57.3429 16.5667 57.1718 16.5667H43.5451C43.374 16.5667 43.2262 16.5044 43.1018 16.38C42.9773 16.2556 42.9151 16.1078 42.9151 15.9367V0.863333C42.9151 0.692223 42.9773 0.544445 43.1018 0.42C43.2262 0.295555 43.374 0.233333 43.5451 0.233333H48.5851C48.7562 0.233333 48.904 0.295555 49.0284 0.42C49.1529 0.544445 49.2151 0.692223 49.2151 0.863333V11.7833H57.1718Z" fill="#5761D7"/>
<path d="M77.4393 0.233333C77.6104 0.233333 77.7582 0.295555 77.8827 0.42C78.0071 0.544445 78.0693 0.692223 78.0693 0.863333V4.62C78.0693 4.79111 78.0071 4.93889 77.8827 5.06333C77.7582 5.18778 77.6104 5.25 77.4393 5.25H72.4227V15.9367C72.4227 16.1078 72.3604 16.2556 72.236 16.38C72.1115 16.5044 71.9638 16.5667 71.7927 16.5667H66.986C66.8149 16.5667 66.6671 16.5044 66.5427 16.38C66.4182 16.2556 66.356 16.1078 66.356 15.9367V5.25H61.3393C61.1682 5.25 61.0204 5.18778 60.896 5.06333C60.7715 4.93889 60.7093 4.79111 60.7093 4.62V0.863333C60.7093 0.692223 60.7715 0.544445 60.896 0.42C61.0204 0.295555 61.1682 0.233333 61.3393 0.233333H77.4393Z" fill="#5761D7"/>
<path d="M89.2135 16.8C86.6002 16.8 84.5235 16.2322 82.9835 15.0967C81.4591 13.9611 80.6969 12.1878 80.6969 9.77667V0.863333C80.6969 0.692223 80.7591 0.544445 80.8836 0.42C81.008 0.295555 81.1558 0.233333 81.3269 0.233333H86.2036C86.3747 0.233333 86.5224 0.295555 86.6469 0.42C86.7713 0.544445 86.8335 0.692223 86.8335 0.863333V10.15C86.8335 10.7878 87.0435 11.2778 87.4635 11.62C87.8991 11.9622 88.4824 12.1333 89.2135 12.1333C89.9447 12.1333 90.5202 11.9622 90.9402 11.62C91.3758 11.2778 91.5936 10.7878 91.5936 10.15V0.863333C91.5936 0.692223 91.6558 0.544445 91.7802 0.42C91.9047 0.295555 92.0524 0.233333 92.2235 0.233333H97.1002C97.2713 0.233333 97.4191 0.295555 97.5435 0.42C97.668 0.544445 97.7302 0.692223 97.7302 0.863333V9.77667C97.7302 12.1878 96.9602 13.9611 95.4202 15.0967C93.8958 16.2322 91.8269 16.8 89.2135 16.8Z" fill="#5761D7"/>
<path d="M118.301 15.8433C118.332 15.9056 118.348 15.9756 118.348 16.0533C118.348 16.1933 118.293 16.3178 118.184 16.4267C118.091 16.52 117.974 16.5667 117.834 16.5667H112.538C112.32 16.5667 112.118 16.5122 111.931 16.4033C111.76 16.2944 111.636 16.1544 111.558 15.9833L109.504 11.3633H107.544V15.9367C107.544 16.1078 107.482 16.2556 107.358 16.38C107.233 16.5044 107.086 16.5667 106.914 16.5667H101.874C101.703 16.5667 101.556 16.5044 101.431 16.38C101.307 16.2556 101.244 16.1078 101.244 15.9367V0.863333C101.244 0.692223 101.307 0.544445 101.431 0.42C101.556 0.295555 101.703 0.233333 101.874 0.233333H110.951C112.351 0.233333 113.572 0.458889 114.614 0.910001C115.672 1.36111 116.481 2.01444 117.041 2.87C117.601 3.72556 117.881 4.72889 117.881 5.88C117.881 7.99556 117.064 9.52778 115.431 10.4767L118.301 15.8433ZM110.461 7.04667C110.803 7.04667 111.068 6.93778 111.254 6.72C111.441 6.48667 111.534 6.19889 111.534 5.85667C111.534 5.51444 111.441 5.21889 111.254 4.97C111.083 4.70556 110.819 4.57333 110.461 4.57333H107.544V7.04667H110.461Z" fill="#5761D7"/>
<path d="M136.422 12.0167C136.593 12.0167 136.741 12.0789 136.865 12.2033C136.99 12.3278 137.052 12.4756 137.052 12.6467V15.9367C137.052 16.1078 136.99 16.2556 136.865 16.38C136.741 16.5044 136.593 16.5667 136.422 16.5667H121.675C121.504 16.5667 121.356 16.5044 121.232 16.38C121.108 16.2556 121.045 16.1078 121.045 15.9367V0.863333C121.045 0.692223 121.108 0.544445 121.232 0.42C121.356 0.295555 121.504 0.233333 121.675 0.233333H136.189C136.36 0.233333 136.508 0.295555 136.632 0.42C136.756 0.544445 136.819 0.692223 136.819 0.863333V4.15333C136.819 4.32444 136.756 4.47222 136.632 4.59667C136.508 4.72111 136.36 4.78333 136.189 4.78333H127.112V6.25333H134.905C135.076 6.25333 135.224 6.31556 135.349 6.44C135.473 6.56444 135.535 6.71222 135.535 6.88333V9.91667C135.535 10.0878 135.473 10.2356 135.349 10.36C135.224 10.4844 135.076 10.5467 134.905 10.5467H127.112V12.0167H136.422Z" fill="#5761D7"/>
<path d="M72.5744 27.4556C74.0367 27.4556 75.3122 27.7044 76.4011 28.2022C77.49 28.7 78.3222 29.3767 78.8978 30.2322C79.4733 31.0878 79.7611 32.0444 79.7611 33.1022C79.7611 34.8444 79.2167 36.2133 78.1278 37.2089C77.0389 38.1889 75.1878 38.6789 72.5744 38.6789H69.4945V43.1589C69.4945 43.33 69.4322 43.4778 69.3078 43.6022C69.1833 43.7267 69.0356 43.7889 68.8644 43.7889H63.8478C63.6767 43.7889 63.5289 43.7267 63.4044 43.6022C63.28 43.4778 63.2178 43.33 63.2178 43.1589V28.0856C63.2178 27.9144 63.28 27.7667 63.4044 27.6422C63.5289 27.5178 63.6767 27.4556 63.8478 27.4556H72.5744ZM72.4811 34.3622C72.8545 34.3622 73.15 34.2533 73.3678 34.0356C73.5856 33.8022 73.6945 33.4989 73.6945 33.1256C73.6945 32.7367 73.5856 32.4178 73.3678 32.1689C73.15 31.92 72.8545 31.7956 72.4811 31.7956H69.5178V34.3622H72.4811Z" fill="#5761D7"/>
<path d="M99.282 43.0656C99.3131 43.1278 99.3287 43.1978 99.3287 43.2756C99.3287 43.4156 99.2742 43.54 99.1653 43.6489C99.072 43.7422 98.9553 43.7889 98.8153 43.7889H93.5187C93.3009 43.7889 93.0987 43.7344 92.912 43.6256C92.7409 43.5167 92.6164 43.3767 92.5387 43.2056L90.4853 38.5856H88.5253V43.1589C88.5253 43.33 88.4631 43.4778 88.3387 43.6022C88.2142 43.7267 88.0664 43.7889 87.8953 43.7889H82.8553C82.6842 43.7889 82.5364 43.7267 82.412 43.6022C82.2876 43.4778 82.2253 43.33 82.2253 43.1589V28.0856C82.2253 27.9144 82.2876 27.7667 82.412 27.6422C82.5364 27.5178 82.6842 27.4556 82.8553 27.4556H91.932C93.332 27.4556 94.5531 27.6811 95.5953 28.1322C96.6531 28.5833 97.462 29.2367 98.022 30.0922C98.582 30.9478 98.862 31.9511 98.862 33.1022C98.862 35.2178 98.0453 36.75 96.412 37.6989L99.282 43.0656ZM91.442 34.2689C91.7842 34.2689 92.0487 34.16 92.2353 33.9422C92.422 33.7089 92.5153 33.4211 92.5153 33.0789C92.5153 32.7367 92.422 32.4411 92.2353 32.1922C92.0642 31.9278 91.7998 31.7956 91.442 31.7956H88.5253V34.2689H91.442Z" fill="#5761D7"/>
<path d="M118.523 37.0456C118.523 39.4256 117.73 41.1833 116.143 42.3189C114.572 43.4544 112.472 44.0222 109.843 44.0222C107.214 44.0222 105.106 43.4544 103.52 42.3189C101.948 41.1833 101.163 39.41 101.163 36.9989V34.2456C101.163 32.6589 101.536 31.3444 102.283 30.3022C103.045 29.2444 104.08 28.4667 105.386 27.9689C106.693 27.4711 108.178 27.2222 109.843 27.2222C111.507 27.2222 112.985 27.4711 114.276 27.9689C115.583 28.4667 116.617 29.2367 117.38 30.2789C118.142 31.3211 118.523 32.6278 118.523 34.1989V37.0456ZM107.463 37.4889C107.463 38.1267 107.673 38.6167 108.093 38.9589C108.528 39.3011 109.112 39.4722 109.843 39.4722C110.574 39.4722 111.15 39.3011 111.57 38.9589C112.005 38.6011 112.223 38.1033 112.223 37.4656V33.7789C112.223 33.1411 112.005 32.6511 111.57 32.3089C111.15 31.9511 110.574 31.7722 109.843 31.7722C109.112 31.7722 108.528 31.9433 108.093 32.2856C107.673 32.6278 107.463 33.1178 107.463 33.7556V37.4889Z" fill="#5761D7"/>
<path d="M137.717 27.4556C137.888 27.4556 138.036 27.5178 138.16 27.6422C138.285 27.7667 138.347 27.9144 138.347 28.0856V31.8422C138.347 32.0133 138.285 32.1611 138.16 32.2856C138.036 32.41 137.888 32.4722 137.717 32.4722H132.7V43.1589C132.7 43.33 132.638 43.4778 132.514 43.6022C132.389 43.7267 132.242 43.7889 132.07 43.7889H127.264C127.093 43.7889 126.945 43.7267 126.82 43.6022C126.696 43.4778 126.634 43.33 126.634 43.1589V32.4722H121.617C121.446 32.4722 121.298 32.41 121.174 32.2856C121.049 32.1611 120.987 32.0133 120.987 31.8422V28.0856C120.987 27.9144 121.049 27.7667 121.174 27.6422C121.298 27.5178 121.446 27.4556 121.617 27.4556H137.717Z" fill="#5761D7"/>
<path d="M158.171 37.0456C158.171 39.4256 157.378 41.1833 155.791 42.3189C154.22 43.4544 152.12 44.0222 149.491 44.0222C146.862 44.0222 144.755 43.4544 143.168 42.3189C141.597 41.1833 140.811 39.41 140.811 36.9989V34.2456C140.811 32.6589 141.185 31.3444 141.931 30.3022C142.694 29.2444 143.728 28.4667 145.035 27.9689C146.341 27.4711 147.827 27.2222 149.491 27.2222C151.156 27.2222 152.634 27.4711 153.925 27.9689C155.231 28.4667 156.266 29.2367 157.028 30.2789C157.79 31.3211 158.171 32.6278 158.171 34.1989V37.0456ZM147.111 37.4889C147.111 38.1267 147.321 38.6167 147.741 38.9589C148.177 39.3011 148.76 39.4722 149.491 39.4722C150.222 39.4722 150.798 39.3011 151.218 38.9589C151.654 38.6011 151.871 38.1033 151.871 37.4656V33.7789C151.871 33.1411 151.654 32.6511 151.218 32.3089C150.798 31.9511 150.222 31.7722 149.491 31.7722C148.76 31.7722 148.177 31.9433 147.741 32.2856C147.321 32.6278 147.111 33.1178 147.111 33.7556V37.4889Z" fill="#5761D7"/>
<path d="M167.169 37.4889C167.169 38.1267 167.379 38.6167 167.799 38.9589C168.234 39.3011 168.818 39.4722 169.549 39.4722C170.202 39.4722 170.684 39.3633 170.996 39.1456C171.307 38.9278 171.571 38.6011 171.789 38.1656C171.991 37.7611 172.263 37.5589 172.606 37.5589H177.646C177.786 37.5589 177.902 37.6133 177.996 37.7222C178.104 37.8156 178.159 37.9322 178.159 38.0722C178.159 39.0211 177.84 39.9544 177.202 40.8722C176.564 41.7744 175.592 42.5289 174.286 43.1356C172.994 43.7267 171.416 44.0222 169.549 44.0222C167.884 44.0222 166.399 43.7733 165.092 43.2756C163.801 42.7622 162.774 41.9844 162.012 40.9422C161.25 39.8844 160.869 38.57 160.869 36.9989V34.2456C160.869 32.6744 161.25 31.3678 162.012 30.3256C162.774 29.2678 163.801 28.49 165.092 27.9922C166.399 27.4789 167.884 27.2222 169.549 27.2222C171.416 27.2222 172.994 27.5256 174.286 28.1322C175.592 28.7233 176.564 29.4778 177.202 30.3956C177.84 31.2978 178.159 32.2233 178.159 33.1722C178.159 33.3122 178.104 33.4367 177.996 33.5456C177.902 33.6389 177.786 33.6856 177.646 33.6856H172.606C172.263 33.6856 171.991 33.4833 171.789 33.0789C171.571 32.6433 171.307 32.3167 170.996 32.0989C170.684 31.8811 170.202 31.7722 169.549 31.7722C168.818 31.7722 168.234 31.9433 167.799 32.2856C167.379 32.6278 167.169 33.1178 167.169 33.7556V37.4889Z" fill="#5761D7"/>
<path d="M197.82 37.0456C197.82 39.4256 197.026 41.1833 195.44 42.3189C193.869 43.4544 191.769 44.0222 189.14 44.0222C186.511 44.0222 184.403 43.4544 182.816 42.3189C181.245 41.1833 180.46 39.41 180.46 36.9989V34.2456C180.46 32.6589 180.833 31.3444 181.58 30.3022C182.342 29.2444 183.376 28.4667 184.683 27.9689C185.99 27.4711 187.475 27.2222 189.14 27.2222C190.804 27.2222 192.282 27.4711 193.573 27.9689C194.88 28.4667 195.914 29.2367 196.676 30.2789C197.439 31.3211 197.82 32.6278 197.82 34.1989V37.0456ZM186.76 37.4889C186.76 38.1267 186.97 38.6167 187.39 38.9589C187.825 39.3011 188.409 39.4722 189.14 39.4722C189.871 39.4722 190.446 39.3011 190.866 38.9589C191.302 38.6011 191.52 38.1033 191.52 37.4656V33.7789C191.52 33.1411 191.302 32.6511 190.866 32.3089C190.446 31.9511 189.871 31.7722 189.14 31.7722C188.409 31.7722 187.825 31.9433 187.39 32.2856C186.97 32.6278 186.76 33.1178 186.76 33.7556V37.4889Z" fill="#5761D7"/>
<path d="M216.571 39.0056C216.742 39.0056 216.89 39.0678 217.014 39.1922C217.138 39.3167 217.201 39.4644 217.201 39.6356V43.1589C217.201 43.33 217.138 43.4778 217.014 43.6022C216.89 43.7267 216.742 43.7889 216.571 43.7889H202.944C202.773 43.7889 202.625 43.7267 202.501 43.6022C202.376 43.4778 202.314 43.33 202.314 43.1589V28.0856C202.314 27.9144 202.376 27.7667 202.501 27.6422C202.625 27.5178 202.773 27.4556 202.944 27.4556H207.984C208.155 27.4556 208.303 27.5178 208.427 27.6422C208.552 27.7667 208.614 27.9144 208.614 28.0856V39.0056H216.571Z" fill="#5761D7"/>
<path d="M0 21.4278C0 20.8908 0.435279 20.4556 0.972222 20.4556H218.75C219.287 20.4556 219.722 20.8908 219.722 21.4278C219.722 21.9647 219.287 22.4 218.75 22.4H0.972216C0.435273 22.4 0 21.9647 0 21.4278Z" fill="#42E8E0"/>
</svg>
