<svg width="70" height="69" viewBox="0 0 70 69" fill="none" xmlns="http://www.w3.org/2000/svg">
<path fill-rule="evenodd" clip-rule="evenodd" d="M35 69C54.0538 69 69.5 53.5538 69.5 34.5C69.5 15.4462 54.0538 0 35 0C15.9462 0 0.5 15.4462 0.5 34.5C0.5 53.5538 15.9462 69 35 69Z" fill="#FEDC5A" fill-opacity="0.1"/>
<path d="M42.7 43.6668H28.3C26.3 43.6668 25.5 42.8135 25.5 40.6935V39.3068C25.5 37.1868 26.3 36.3335 28.3 36.3335H42.7C44.7 36.3335 45.5 37.1868 45.5 39.3068V40.6935C45.5 42.8135 44.7 43.6668 42.7 43.6668Z" stroke="#FEDC5A" stroke-width="2" stroke-linecap="round" stroke-linejoin="round"/>
<path d="M40.0346 32.3333H30.968C28.968 32.3333 28.168 31.48 28.168 29.36V27.9733C28.168 25.8533 28.968 25 30.968 25H40.0346C42.0346 25 42.8346 25.8533 42.8346 27.9733V29.36C42.8346 31.48 42.0346 32.3333 40.0346 32.3333Z" stroke="#FEDC5A" stroke-width="2" stroke-linecap="round" stroke-linejoin="round"/>
<path d="M35.5 47.3333V44.1333" stroke="#FEDC5A" stroke-width="2" stroke-linecap="round" stroke-linejoin="round"/>
<path d="M35.5 35.3332V32.6665" stroke="#FEDC5A" stroke-width="2" stroke-linecap="round" stroke-linejoin="round"/>
<path d="M35.5 20.6665V24.2532" stroke="#292D32" stroke-width="2" stroke-linecap="round" stroke-linejoin="round"/>
</svg>
