<svg width="1440" height="800" viewBox="0 0 1440 800" fill="none" xmlns="http://www.w3.org/2000/svg">
<g clip-path="url(#clip0_4448_3240)">
<rect width="1440" height="800" fill="black"/>
<g filter="url(#filter0_f_4448_3240)">
<path d="M1201.03 330.139C1278.05 295.376 1368.66 329.643 1403.42 406.676C1438.18 483.71 1403.92 574.339 1326.9 609.101L770.08 860.418C693.059 895.181 602.446 860.913 567.689 783.88C532.931 706.847 567.193 616.218 644.213 581.455L1201.03 330.139Z" fill="url(#paint0_linear_4448_3240)" fill-opacity="0.41"/>
<path d="M86.8904 402.841C18.206 353.612 2.42736 258.015 51.6479 189.319C100.869 120.624 196.449 104.842 265.134 154.071L673.535 446.788C742.219 496.017 757.998 591.614 708.777 660.31C659.556 729.006 563.976 744.787 495.291 695.558L86.8904 402.841Z" fill="url(#paint1_linear_4448_3240)" fill-opacity="0.27"/>
<path d="M313.29 277.423C244.606 228.194 228.827 132.597 278.048 63.901C327.268 -4.79488 422.849 -20.5761 491.533 28.6527L899.934 321.37C968.619 370.598 984.397 466.195 935.177 534.891C885.956 603.587 790.375 619.368 721.691 570.14L313.29 277.423Z" fill="url(#paint2_linear_4448_3240)" fill-opacity="0.27"/>
</g>
<path d="M1292.15 636.588C1292.15 636.588 1302.81 649.178 1317.28 641.309L1345.45 636.588C1345.45 636.588 1356.86 628.719 1354.58 643.67V657.842L1369.81 680.661" stroke="#313131"/>
<path opacity="0.62" d="M1547.06 766.491C1547.52 766.801 1547.64 767.423 1547.33 767.88C1547.02 768.337 1546.4 768.456 1545.94 768.146L1547.06 766.491ZM1430.6 741.994L1431.34 742.659L1431.31 742.699L1431.27 742.735L1430.6 741.994ZM1418.69 741.994L1419.58 741.546L1419.6 741.583L1419.62 741.622L1418.69 741.994ZM1371.85 694.488L1372.33 695.369L1372.31 695.376L1372.3 695.383L1371.85 694.488ZM1344.07 628.767L1343.07 628.844L1343.07 628.806V628.767H1344.07ZM1300.41 636.68L1300.01 635.763L1300.02 635.756L1300.04 635.75L1300.41 636.68ZM1286.91 628.767H1287.91V628.915L1287.87 629.056L1286.91 628.767ZM1271.6 609.759C1271.6 612.705 1269.22 615.093 1266.27 615.093C1263.32 615.093 1260.94 612.705 1260.94 609.759C1260.94 606.814 1263.32 604.426 1266.27 604.426C1269.22 604.426 1271.6 606.814 1271.6 609.759ZM1283.66 621.499L1284.14 620.621L1283.66 621.499ZM1271.9 616.669L1271.12 617.301L1271.9 616.669ZM1331.67 624.067L1332.21 624.906L1331.67 624.067ZM1329.35 625.291L1328.98 624.361L1329.35 625.291ZM1349.5 672.638L1348.73 673.279L1349.5 672.638ZM1346.97 666.432L1345.98 666.509L1346.97 666.432ZM1364.71 695.515L1365.12 694.604L1364.71 695.515ZM1358.43 683.331L1359.2 682.689L1358.43 683.331ZM1395.86 696.449L1394.96 696.897L1395.86 696.449ZM1394.26 692.385L1395.21 692.056L1394.26 692.385ZM1446.04 724.662L1445.29 723.996L1446.04 724.662ZM1384.18 687.223L1383.61 686.407L1384.18 687.223ZM1475.91 719.415L1476.47 718.588L1475.91 719.415ZM1545.94 768.146L1475.35 720.243L1476.47 718.588L1547.06 766.491L1545.94 768.146ZM1462.95 711.693C1461.61 711.331 1460.11 711.309 1458.51 711.959C1456.9 712.614 1455.11 713.984 1453.24 716.543L1451.63 715.365C1453.65 712.593 1455.72 710.938 1457.76 710.107C1459.81 709.271 1461.76 709.301 1463.47 709.763L1462.95 711.693ZM1446.79 725.327L1431.34 742.659L1429.85 741.329L1445.29 723.996L1446.79 725.327ZM1430.6 741.994C1431.27 742.735 1431.27 742.735 1431.27 742.735C1431.27 742.735 1431.27 742.736 1431.27 742.736C1431.27 742.736 1431.27 742.737 1431.27 742.738C1431.26 742.739 1431.26 742.741 1431.26 742.744C1431.25 742.749 1431.25 742.756 1431.24 742.764C1431.22 742.782 1431.19 742.806 1431.15 742.837C1431.08 742.898 1430.98 742.985 1430.85 743.092C1430.59 743.304 1430.22 743.597 1429.76 743.922C1428.86 744.566 1427.59 745.36 1426.19 745.897C1424.81 746.428 1423.17 746.753 1421.61 746.294C1419.99 745.818 1418.64 744.563 1417.76 742.366L1419.62 741.622C1420.32 743.384 1421.26 744.108 1422.17 744.374C1423.14 744.658 1424.28 744.488 1425.48 744.029C1426.66 743.576 1427.77 742.886 1428.6 742.293C1429.02 741.999 1429.35 741.735 1429.58 741.546C1429.7 741.451 1429.79 741.376 1429.84 741.325C1429.87 741.299 1429.89 741.28 1429.91 741.268C1429.92 741.262 1429.92 741.258 1429.92 741.255C1429.92 741.254 1429.93 741.253 1429.93 741.253C1429.93 741.252 1429.93 741.252 1429.93 741.252C1429.93 741.252 1429.93 741.253 1429.93 741.253C1429.93 741.253 1429.93 741.253 1430.6 741.994ZM1417.8 742.442L1394.96 696.897L1396.75 696.001L1419.58 741.546L1417.8 742.442ZM1393.32 692.714C1392.74 691.045 1391.76 688.938 1390.34 687.736C1389.65 687.157 1388.9 686.818 1388.05 686.8C1387.19 686.782 1386.11 687.088 1384.76 688.04L1383.61 686.407C1385.2 685.282 1386.69 684.771 1388.09 684.8C1389.5 684.83 1390.68 685.404 1391.63 686.209C1393.48 687.778 1394.61 690.328 1395.21 692.056L1393.32 692.714ZM1380.32 691.076L1372.33 695.369L1371.38 693.607L1379.37 689.314L1380.32 691.076ZM1371.85 694.488C1372.3 695.383 1372.3 695.383 1372.3 695.383C1372.3 695.383 1372.3 695.384 1372.3 695.384C1372.3 695.384 1372.3 695.384 1372.3 695.384C1372.29 695.385 1372.29 695.386 1372.29 695.386C1372.29 695.388 1372.28 695.39 1372.28 695.393C1372.27 695.398 1372.25 695.405 1372.23 695.414C1372.2 695.433 1372.14 695.459 1372.07 695.49C1371.93 695.554 1371.74 695.642 1371.49 695.742C1371.01 695.943 1370.32 696.199 1369.55 696.416C1368.07 696.831 1365.98 697.186 1364.3 696.426L1365.12 694.604C1366.11 695.049 1367.58 694.891 1369.01 694.49C1369.69 694.3 1370.29 694.073 1370.73 693.894C1370.95 693.804 1371.12 693.727 1371.24 693.673C1371.3 693.646 1371.34 693.625 1371.37 693.611C1371.38 693.604 1371.39 693.599 1371.4 693.596C1371.4 693.595 1371.4 693.594 1371.41 693.593C1371.41 693.593 1371.41 693.593 1371.41 693.593C1371.41 693.593 1371.41 693.593 1371.41 693.593C1371.41 693.593 1371.41 693.593 1371.41 693.593C1371.41 693.593 1371.41 693.593 1371.85 694.488ZM1357.66 683.972L1348.73 673.279L1350.26 671.997L1359.2 682.689L1357.66 683.972ZM1345.98 666.509L1343.07 628.844L1345.06 628.69L1347.97 666.355L1345.98 666.509ZM1344.07 628.767C1343.07 628.767 1343.07 628.768 1343.07 628.768C1343.07 628.768 1343.07 628.769 1343.07 628.769C1343.07 628.769 1343.07 628.769 1343.07 628.769C1343.07 628.769 1343.07 628.768 1343.07 628.766C1343.07 628.763 1343.07 628.756 1343.07 628.747C1343.07 628.729 1343.07 628.699 1343.06 628.66C1343.06 628.58 1343.06 628.461 1343.05 628.309C1343.02 628.005 1342.98 627.576 1342.89 627.084C1342.71 626.082 1342.36 624.907 1341.7 623.99C1341.08 623.111 1340.18 622.469 1338.8 622.417C1337.35 622.364 1335.23 622.953 1332.21 624.906L1331.13 623.227C1334.3 621.171 1336.84 620.343 1338.87 620.419C1340.98 620.497 1342.41 621.531 1343.33 622.83C1344.23 624.09 1344.65 625.594 1344.86 626.727C1344.96 627.302 1345.01 627.804 1345.04 628.164C1345.05 628.344 1345.06 628.49 1345.06 628.593C1345.07 628.645 1345.07 628.686 1345.07 628.715C1345.07 628.73 1345.07 628.742 1345.07 628.75C1345.07 628.755 1345.07 628.758 1345.07 628.761C1345.07 628.763 1345.07 628.764 1345.07 628.765C1345.07 628.765 1345.07 628.766 1345.07 628.766C1345.07 628.767 1345.07 628.767 1344.07 628.767ZM1329.71 626.222L1300.77 637.611L1300.04 635.75L1328.98 624.361L1329.71 626.222ZM1300.41 636.68C1300.8 637.598 1300.8 637.598 1300.8 637.598C1300.8 637.598 1300.8 637.598 1300.8 637.598C1300.8 637.599 1300.8 637.599 1300.8 637.6C1300.79 637.601 1300.79 637.603 1300.79 637.605C1300.77 637.61 1300.76 637.616 1300.74 637.624C1300.7 637.64 1300.65 637.663 1300.58 637.691C1300.44 637.748 1300.24 637.829 1299.98 637.925C1299.48 638.117 1298.76 638.372 1297.92 638.627C1296.24 639.133 1294 639.66 1291.87 639.66C1289.77 639.661 1287.51 639.143 1286.19 637.257C1284.88 635.389 1284.73 632.528 1285.95 628.479L1287.87 629.056C1286.7 632.922 1287.06 635.008 1287.83 636.108C1288.59 637.189 1290 637.66 1291.87 637.66C1293.71 637.66 1295.74 637.197 1297.34 636.713C1298.13 636.473 1298.8 636.234 1299.28 636.054C1299.51 635.965 1299.7 635.891 1299.82 635.839C1299.89 635.814 1299.93 635.794 1299.96 635.781C1299.98 635.774 1299.99 635.769 1300 635.766C1300 635.765 1300 635.764 1300.01 635.763C1300.01 635.763 1300.01 635.763 1300.01 635.763C1300.01 635.763 1300.01 635.763 1300.01 635.763C1300.01 635.763 1300.01 635.763 1300.41 636.68ZM1286.91 628.767C1285.91 628.767 1285.91 628.768 1285.91 628.768C1285.91 628.768 1285.91 628.768 1285.91 628.768C1285.91 628.769 1285.91 628.769 1285.91 628.769C1285.91 628.769 1285.91 628.769 1285.91 628.768C1285.91 628.767 1285.91 628.765 1285.91 628.761C1285.91 628.754 1285.91 628.742 1285.91 628.725C1285.91 628.691 1285.91 628.638 1285.9 628.569C1285.9 628.43 1285.89 628.226 1285.86 627.974C1285.82 627.467 1285.72 626.779 1285.53 626.044C1285.15 624.523 1284.43 623.057 1283.18 622.377L1284.14 620.621C1286.14 621.713 1287.05 623.882 1287.47 625.551C1287.69 626.413 1287.8 627.209 1287.85 627.788C1287.88 628.079 1287.9 628.318 1287.9 628.487C1287.91 628.571 1287.91 628.638 1287.91 628.686C1287.91 628.71 1287.91 628.728 1287.91 628.742C1287.91 628.749 1287.91 628.754 1287.91 628.759C1287.91 628.761 1287.91 628.763 1287.91 628.764C1287.91 628.765 1287.91 628.765 1287.91 628.766C1287.91 628.766 1287.91 628.767 1287.91 628.767C1287.91 628.767 1287.91 628.767 1286.91 628.767ZM1271.12 617.301L1265.49 610.391L1267.04 609.128L1272.67 616.037L1271.12 617.301ZM1283.18 622.377C1281.44 621.425 1279.39 621.094 1277.14 620.533C1274.99 619.997 1272.71 619.246 1271.12 617.301L1272.67 616.037C1273.81 617.436 1275.52 618.066 1277.62 618.593C1279.63 619.095 1282.1 619.507 1284.14 620.621L1283.18 622.377ZM1332.21 624.906C1331.44 625.406 1330.61 625.87 1329.71 626.222L1328.98 624.361C1329.71 624.071 1330.43 623.679 1331.13 623.227L1332.21 624.906ZM1348.73 673.279C1347.13 671.364 1346.17 668.997 1345.98 666.509L1347.97 666.355C1348.13 668.429 1348.93 670.401 1350.26 671.997L1348.73 673.279ZM1364.3 696.426C1361.73 695.264 1360.81 692.648 1360.14 690.312C1359.79 689.075 1359.51 687.914 1359.12 686.787C1358.74 685.679 1358.29 684.724 1357.66 683.972L1359.2 682.689C1360.05 683.709 1360.6 684.925 1361.01 686.136C1361.42 687.329 1361.74 688.636 1362.06 689.764C1362.75 692.159 1363.49 693.863 1365.12 694.604L1364.3 696.426ZM1394.96 696.897C1394.27 695.524 1393.79 694.066 1393.32 692.714L1395.21 692.056C1395.7 693.456 1396.13 694.77 1396.75 696.001L1394.96 696.897ZM1453.24 716.543C1451.19 719.355 1449.22 722.593 1446.79 725.327L1445.29 723.996C1447.65 721.353 1449.43 718.373 1451.63 715.365L1453.24 716.543ZM1384.76 688.04C1383.42 688.99 1381.93 690.209 1380.32 691.076L1379.37 689.314C1380.84 688.524 1382.09 687.478 1383.61 686.407L1384.76 688.04ZM1475.35 720.243C1473.18 718.772 1471.13 716.843 1469.2 715.269C1467.2 713.648 1465.22 712.307 1462.95 711.693L1463.47 709.763C1466.16 710.489 1468.4 712.049 1470.46 713.716C1472.57 715.43 1474.39 717.175 1476.47 718.588L1475.35 720.243Z" fill="url(#paint3_linear_4448_3240)"/>
<g opacity="0.16" filter="url(#filter1_f_4448_3240)">
<path d="M1551 766.193L1478.26 717.149C1474 714.28 1470.49 709.886 1465.57 708.445C1462.38 707.514 1458.32 708.175 1454.22 713.823C1452.1 716.743 1450.21 719.846 1447.8 722.533L1431.84 740.326C1431.84 740.326 1422.86 748.413 1419.6 740.326L1396.1 693.771C1395.45 692.464 1394.98 691.072 1394.5 689.69C1393.28 686.214 1390.16 680.085 1384.06 684.424C1382.64 685.437 1381.27 686.559 1379.73 687.381L1371.44 691.802C1371.44 691.802 1366.71 694.144 1363.99 692.799C1359.83 690.742 1360.72 684.061 1357.73 680.508L1348.42 669.432C1346.94 667.673 1346.05 665.495 1345.87 663.204L1342.88 624.673C1342.88 624.673 1342.88 611.659 1330.1 619.892C1329.36 620.365 1328.59 620.79 1327.78 621.108L1297.99 632.755C1297.99 632.755 1279.21 640.843 1284.11 624.673C1284.11 624.673 1284.11 618.813 1280.55 617.137C1276.67 615.308 1271.54 615.808 1268.82 612.488L1262.89 605.258" stroke="#233B5C" stroke-width="2"/>
</g>
<g opacity="0.54" filter="url(#filter2_f_4448_3240)">
<ellipse cx="25.322" cy="24.7593" rx="25.322" ry="24.7593" transform="matrix(-1 0 0 1 1288.78 585)" fill="url(#paint4_linear_4448_3240)"/>
</g>
<g filter="url(#filter3_f_4448_3240)">
<ellipse cx="1263.46" cy="607.508" rx="44.4542" ry="1.12542" transform="rotate(180 1263.46 607.508)" fill="#6735B7" fill-opacity="0.42"/>
</g>
<g filter="url(#filter4_f_4448_3240)">
<path d="M1178 63H1533V387H1502C1323.06 387 1178 241.94 1178 63V63Z" fill="url(#paint5_linear_4448_3240)"/>
</g>
<g filter="url(#filter5_f_4448_3240)">
<path d="M-150 546H-7.00003C170.283 546 314 689.717 314 867V867H-150V546Z" fill="url(#paint6_linear_4448_3240)"/>
</g>
</g>
<defs>
<filter id="filter0_f_4448_3240" x="-277" y="-300" width="1994" height="1474" filterUnits="userSpaceOnUse" color-interpolation-filters="sRGB">
<feFlood flood-opacity="0" result="BackgroundImageFix"/>
<feBlend mode="normal" in="SourceGraphic" in2="BackgroundImageFix" result="shape"/>
<feGaussianBlur stdDeviation="150" result="effect1_foregroundBlur_4448_3240"/>
</filter>
<filter id="filter1_f_4448_3240" x="1255.82" y="598.324" width="302.041" height="174.999" filterUnits="userSpaceOnUse" color-interpolation-filters="sRGB">
<feFlood flood-opacity="0" result="BackgroundImageFix"/>
<feBlend mode="normal" in="SourceGraphic" in2="BackgroundImageFix" result="shape"/>
<feGaussianBlur stdDeviation="3.15" result="effect1_foregroundBlur_4448_3240"/>
</filter>
<filter id="filter2_f_4448_3240" x="1221.13" y="568" width="84.6445" height="83.5186" filterUnits="userSpaceOnUse" color-interpolation-filters="sRGB">
<feFlood flood-opacity="0" result="BackgroundImageFix"/>
<feBlend mode="normal" in="SourceGraphic" in2="BackgroundImageFix" result="shape"/>
<feGaussianBlur stdDeviation="8.5" result="effect1_foregroundBlur_4448_3240"/>
</filter>
<filter id="filter3_f_4448_3240" x="1216" y="603.383" width="94.9102" height="8.25073" filterUnits="userSpaceOnUse" color-interpolation-filters="sRGB">
<feFlood flood-opacity="0" result="BackgroundImageFix"/>
<feBlend mode="normal" in="SourceGraphic" in2="BackgroundImageFix" result="shape"/>
<feGaussianBlur stdDeviation="1.5" result="effect1_foregroundBlur_4448_3240"/>
</filter>
<filter id="filter4_f_4448_3240" x="1130" y="15" width="451" height="420" filterUnits="userSpaceOnUse" color-interpolation-filters="sRGB">
<feFlood flood-opacity="0" result="BackgroundImageFix"/>
<feBlend mode="normal" in="SourceGraphic" in2="BackgroundImageFix" result="shape"/>
<feGaussianBlur stdDeviation="24" result="effect1_foregroundBlur_4448_3240"/>
</filter>
<filter id="filter5_f_4448_3240" x="-198" y="498" width="560" height="417" filterUnits="userSpaceOnUse" color-interpolation-filters="sRGB">
<feFlood flood-opacity="0" result="BackgroundImageFix"/>
<feBlend mode="normal" in="SourceGraphic" in2="BackgroundImageFix" result="shape"/>
<feGaussianBlur stdDeviation="24" result="effect1_foregroundBlur_4448_3240"/>
</filter>
<linearGradient id="paint0_linear_4448_3240" x1="720" y1="0" x2="720" y2="874" gradientUnits="userSpaceOnUse">
<stop stop-color="#FBA81C" stop-opacity="0.26"/>
<stop offset="1" stop-color="#E05688" stop-opacity="0.15"/>
</linearGradient>
<linearGradient id="paint1_linear_4448_3240" x1="278.048" y1="63.9011" x2="935.251" y2="534.787" gradientUnits="userSpaceOnUse">
<stop stop-color="#5454D4"/>
<stop offset="1" stop-color="#5454D4" stop-opacity="0.42"/>
</linearGradient>
<linearGradient id="paint2_linear_4448_3240" x1="278.048" y1="63.9011" x2="935.251" y2="534.787" gradientUnits="userSpaceOnUse">
<stop stop-color="#5454D4"/>
<stop offset="1" stop-color="#5454D4" stop-opacity="0.42"/>
</linearGradient>
<linearGradient id="paint3_linear_4448_3240" x1="1390.11" y1="676.267" x2="1546.29" y2="766.885" gradientUnits="userSpaceOnUse">
<stop stop-color="#452562"/>
<stop offset="1" stop-color="#565656" stop-opacity="0"/>
</linearGradient>
<linearGradient id="paint4_linear_4448_3240" x1="25.322" y1="0" x2="25.322" y2="49.5186" gradientUnits="userSpaceOnUse">
<stop stop-color="#702EA7"/>
<stop offset="1" stop-color="#5444D8" stop-opacity="0.19"/>
</linearGradient>
<linearGradient id="paint5_linear_4448_3240" x1="1555.64" y1="190.073" x2="1155.61" y2="261.341" gradientUnits="userSpaceOnUse">
<stop stop-color="#FF3FDB"/>
<stop offset="0.5" stop-color="#10082C" stop-opacity="0"/>
<stop offset="1" stop-color="#1789FC"/>
</linearGradient>
<linearGradient id="paint6_linear_4448_3240" x1="-26.1439" y1="943.852" x2="246.653" y2="504.211" gradientUnits="userSpaceOnUse">
<stop stop-color="#0014F4"/>
<stop offset="0.5" stop-color="#070E3E" stop-opacity="0.29"/>
<stop offset="1" stop-color="#1789FC"/>
</linearGradient>
<clipPath id="clip0_4448_3240">
<rect width="1440" height="800" fill="white"/>
</clipPath>
</defs>
</svg>
