<svg width="402" height="361" viewBox="0 0 402 361" fill="none" xmlns="http://www.w3.org/2000/svg">
<path d="M183.023 242.556L259.103 198.216C260.413 197.456 260.423 195.556 259.113 194.786L210.093 165.876" stroke="#FFB06D" stroke-miterlimit="10"/>
<path d="M227.195 290.626L296.865 250.146" stroke="#FF55E2" stroke-miterlimit="10"/>
<path d="M104.113 213.846L173.783 173.376" stroke="#FF55E2" stroke-miterlimit="10"/>
<path d="M221.555 287.157L291.225 246.677" stroke="#FF5A72" stroke-miterlimit="10"/>
<path d="M241.096 275.807C242.146 276.417 242.146 277.397 241.106 277.997C240.066 278.607 238.366 278.607 237.316 277.997C236.266 277.387 236.266 276.407 237.306 275.807C238.346 275.197 240.046 275.197 241.096 275.807Z" fill="#FF5A72"/>
<path d="M246.827 272.477C247.877 273.087 247.877 274.067 246.837 274.667C245.797 275.277 244.097 275.277 243.047 274.667C241.997 274.057 241.997 273.077 243.037 272.477C244.077 271.867 245.777 271.867 246.827 272.477Z" fill="#FF5A72"/>
<path d="M252.557 269.147C253.607 269.757 253.607 270.737 252.567 271.337C251.527 271.947 249.827 271.947 248.777 271.337C247.727 270.727 247.727 269.747 248.767 269.147C249.817 268.537 251.507 268.537 252.557 269.147Z" fill="#FF5A72"/>
<path d="M185.562 234.576L247.452 198.507C248.762 197.737 248.773 195.846 247.463 195.076L198.443 166.167" stroke="#FF5A72" stroke-miterlimit="10"/>
<path d="M233.541 206.197C234.591 206.807 234.591 207.787 233.551 208.387C232.511 208.997 230.811 208.997 229.761 208.387C228.711 207.777 228.711 206.797 229.751 206.197C230.801 205.587 232.491 205.587 233.541 206.197Z" fill="#FF5A72"/>
<path d="M239.272 202.867C240.322 203.477 240.322 204.457 239.282 205.057C238.242 205.657 236.542 205.667 235.492 205.057C234.442 204.447 234.442 203.467 235.482 202.867C236.522 202.267 238.222 202.257 239.272 202.867Z" fill="#FF5A72"/>
<path d="M245.002 199.537C246.052 200.147 246.052 201.127 245.012 201.727C243.972 202.337 242.272 202.337 241.222 201.727C240.172 201.117 240.172 200.137 241.212 199.537C242.262 198.927 243.952 198.927 245.002 199.537Z" fill="#FF5A72"/>
<path d="M239.092 187.667C240.142 188.277 240.142 189.257 239.102 189.857C238.062 190.467 236.362 190.467 235.312 189.857C234.262 189.247 234.262 188.267 235.302 187.667C236.342 187.067 238.042 187.067 239.092 187.667Z" fill="#FF5A72"/>
<path d="M233.362 184.337C234.412 184.947 234.412 185.927 233.372 186.527C232.332 187.137 230.632 187.137 229.582 186.527C228.532 185.917 228.532 184.937 229.572 184.337C230.612 183.737 232.312 183.737 233.362 184.337Z" fill="#FF5A72"/>
<path d="M222.524 221.116L128.434 275.956C126.264 277.216 123.584 277.216 121.424 275.946L87.8242 256.276" stroke="#FF5A72" stroke-miterlimit="10"/>
<path d="M116.104 270.806C117.154 271.416 117.154 272.396 116.114 272.996C115.074 273.606 113.374 273.606 112.324 272.996C111.274 272.386 111.274 271.406 112.314 270.806C113.364 270.206 115.054 270.206 116.104 270.806Z" fill="#FF5A72"/>
<path d="M110.373 267.476C111.423 268.086 111.423 269.066 110.383 269.666C109.343 270.276 107.643 270.276 106.593 269.666C105.543 269.056 105.543 268.076 106.583 267.476C107.633 266.866 109.323 266.866 110.373 267.476Z" fill="#FF5A72"/>
<path d="M232.836 294.096L302.506 253.616" stroke="#FFB06D" stroke-miterlimit="10"/>
<path d="M281.737 265.687C282.787 266.297 282.787 267.277 281.747 267.877C280.707 268.487 279.007 268.487 277.957 267.877C276.907 267.267 276.897 266.287 277.947 265.687C278.997 265.077 280.687 265.077 281.737 265.687Z" fill="#FFB06D"/>
<path d="M287.467 262.356C288.517 262.966 288.517 263.946 287.477 264.546C286.437 265.156 284.737 265.156 283.687 264.546C282.637 263.936 282.637 262.956 283.677 262.356C284.727 261.746 286.417 261.746 287.467 262.356Z" fill="#FFB06D"/>
<path d="M293.205 259.026C294.255 259.636 294.255 260.616 293.215 261.216C292.175 261.826 290.475 261.826 289.425 261.216C288.375 260.606 288.375 259.626 289.415 259.026C290.455 258.416 292.155 258.416 293.205 259.026Z" fill="#FFB06D"/>
<path d="M218.586 216.896L128.446 269.436C126.276 270.696 123.596 270.696 121.436 269.426L87.8359 249.757" stroke="#FFB06D" stroke-miterlimit="10"/>
<path d="M153.807 254.597C154.857 255.207 154.857 256.187 153.817 256.787C152.777 257.397 151.077 257.397 150.027 256.787C148.977 256.177 148.977 255.197 150.017 254.597C151.067 253.987 152.757 253.987 153.807 254.597Z" fill="#FFB06D"/>
<path d="M159.538 251.267C160.588 251.877 160.598 252.857 159.548 253.457C158.498 254.057 156.808 254.067 155.758 253.457C154.708 252.847 154.707 251.867 155.747 251.267C156.797 250.657 158.488 250.657 159.538 251.267Z" fill="#FFB06D"/>
<path d="M165.268 247.937C166.318 248.547 166.318 249.527 165.278 250.127C164.238 250.737 162.538 250.737 161.488 250.127C160.438 249.517 160.438 248.537 161.478 247.937C162.528 247.327 164.218 247.327 165.268 247.937Z" fill="#FFB06D"/>
<path d="M109.754 217.327L179.424 176.847" stroke="#FFB06D" stroke-miterlimit="10"/>
<path d="M159.745 188.377C160.795 188.987 160.795 189.967 159.755 190.567C158.715 191.177 157.015 191.177 155.965 190.567C154.915 189.957 154.915 188.977 155.955 188.377C156.995 187.767 158.695 187.767 159.745 188.377Z" fill="#FFB06D"/>
<path d="M165.475 185.047C166.525 185.657 166.525 186.637 165.485 187.237C164.445 187.847 162.745 187.847 161.695 187.237C160.645 186.627 160.645 185.647 161.685 185.047C162.725 184.437 164.425 184.437 165.475 185.047Z" fill="#FFB06D"/>
<path d="M171.205 181.717C172.255 182.327 172.255 183.307 171.215 183.907C170.175 184.517 168.475 184.517 167.425 183.907C166.375 183.297 166.375 182.317 167.415 181.717C168.455 181.107 170.155 181.107 171.205 181.717Z" fill="#FFB06D"/>
<path d="M206.086 247.097L296.226 194.557C298.396 193.297 301.076 193.297 303.236 194.567L336.846 214.237" stroke="#FFB06D" stroke-miterlimit="10"/>
<path d="M254.655 218.787C255.705 219.397 255.705 220.377 254.665 220.977C253.625 221.587 251.925 221.587 250.875 220.977C249.825 220.367 249.825 219.387 250.865 218.787C251.915 218.177 253.605 218.177 254.655 218.787Z" fill="#FFB06D"/>
<path d="M260.385 215.457C261.435 216.067 261.435 217.047 260.395 217.647C259.355 218.257 257.655 218.257 256.605 217.647C255.555 217.037 255.555 216.057 256.595 215.457C257.645 214.847 259.335 214.847 260.385 215.457Z" fill="#FFB06D"/>
<path d="M266.123 212.126C267.173 212.736 267.173 213.716 266.133 214.316C265.093 214.926 263.393 214.926 262.343 214.316C261.293 213.706 261.293 212.726 262.333 212.126C263.373 211.516 265.073 211.516 266.123 212.126Z" fill="#FFB06D"/>
<path d="M202.133 242.886L296.223 188.046C298.393 186.786 301.073 186.786 303.233 188.056L336.843 207.726" stroke="#FF55E2" stroke-miterlimit="10"/>
<path d="M237.842 222.117C238.892 222.727 238.892 223.707 237.852 224.307C236.812 224.917 235.112 224.917 234.062 224.307C233.012 223.697 233.012 222.717 234.052 222.117C235.092 221.507 236.792 221.507 237.842 222.117Z" fill="#FF55E2"/>
<path d="M243.573 218.787C244.623 219.397 244.623 220.377 243.583 220.977C242.543 221.587 240.843 221.587 239.793 220.977C238.743 220.367 238.743 219.387 239.783 218.787C240.823 218.177 242.523 218.177 243.573 218.787Z" fill="#FF55E2"/>
<path d="M249.303 215.457C250.353 216.067 250.353 217.047 249.313 217.647C248.273 218.257 246.573 218.257 245.523 217.647C244.473 217.037 244.473 216.057 245.513 215.457C246.553 214.847 248.253 214.847 249.303 215.457Z" fill="#FF55E2"/>
<path d="M222.526 236.557L160.636 272.627C159.326 273.397 159.316 275.287 160.626 276.057L209.646 304.967" stroke="#FF5A72" stroke-miterlimit="10"/>
<path d="M174.776 282.237C175.826 282.847 175.826 283.827 174.786 284.427C173.746 285.027 172.046 285.037 170.996 284.427C169.946 283.817 169.946 282.837 170.986 282.237C172.026 281.637 173.726 281.637 174.776 282.237Z" fill="#FF5A72"/>
<path d="M169.045 278.907C170.095 279.517 170.095 280.497 169.055 281.097C168.015 281.707 166.315 281.707 165.265 281.097C164.215 280.487 164.215 279.507 165.255 278.907C166.295 278.297 167.995 278.297 169.045 278.907Z" fill="#FF5A72"/>
<path d="M177.877 262.727C178.927 263.337 178.927 264.317 177.887 264.917C176.847 265.527 175.147 265.527 174.097 264.917C173.047 264.307 173.047 263.327 174.087 262.727C175.127 262.117 176.827 262.117 177.877 262.727Z" fill="#FF5A72"/>
<path d="M183.608 259.397C184.658 260.007 184.658 260.987 183.618 261.587C182.578 262.197 180.878 262.197 179.828 261.587C178.778 260.977 178.768 259.997 179.818 259.397C180.858 258.787 182.558 258.787 183.608 259.397Z" fill="#FF5A72"/>
<path d="M189.338 256.067C190.388 256.677 190.388 257.657 189.348 258.257C188.308 258.867 186.608 258.867 185.558 258.257C184.508 257.647 184.508 256.667 185.548 256.067C186.598 255.467 188.288 255.467 189.338 256.067Z" fill="#FF5A72"/>
<path d="M225.075 228.576L148.995 272.916C147.685 273.686 147.675 275.576 148.985 276.346L198.005 305.256" stroke="#FF55E2" stroke-miterlimit="10"/>
<path d="M157.764 267.606C158.814 268.216 158.824 269.196 157.774 269.796C156.734 270.406 155.034 270.406 153.984 269.796C152.934 269.186 152.934 268.206 153.974 267.606C155.024 266.996 156.724 266.996 157.764 267.606Z" fill="#FF55E2"/>
<path d="M163.495 264.276C164.545 264.886 164.545 265.866 163.505 266.466C162.465 267.076 160.765 267.076 159.715 266.466C158.665 265.856 158.665 264.876 159.705 264.276C160.755 263.676 162.455 263.676 163.495 264.276Z" fill="#FF55E2"/>
<path d="M169.233 260.946C170.283 261.556 170.283 262.536 169.243 263.136C168.203 263.736 166.503 263.746 165.453 263.136C164.403 262.526 164.403 261.546 165.443 260.946C166.483 260.346 168.183 260.346 169.233 260.946Z" fill="#FF55E2"/>
<path d="M98.4727 210.376L168.143 169.906" stroke="#FF5A72" stroke-miterlimit="10"/>
<path d="M141.334 185.476C142.384 186.086 142.384 187.066 141.344 187.666C140.304 188.276 138.604 188.276 137.554 187.666C136.504 187.056 136.504 186.076 137.544 185.476C138.594 184.876 140.284 184.876 141.334 185.476Z" fill="#FF5A72"/>
<path d="M147.065 182.146C148.115 182.756 148.115 183.736 147.075 184.336C146.035 184.946 144.335 184.946 143.285 184.336C142.235 183.726 142.225 182.746 143.275 182.146C144.325 181.546 146.015 181.546 147.065 182.146Z" fill="#FF5A72"/>
<path d="M152.795 178.816C153.845 179.426 153.845 180.406 152.805 181.006C151.765 181.606 150.065 181.616 149.015 181.006C147.965 180.396 147.965 179.416 149.005 178.816C150.055 178.216 151.755 178.216 152.795 178.816Z" fill="#FF5A72"/>
<path d="M112.574 80.6461C112.574 80.1361 112.934 79.5161 113.374 79.2661C113.814 79.0161 114.174 79.2161 114.174 79.7261C114.174 80.2361 113.814 80.8561 113.374 81.1061C112.934 81.3561 112.574 81.1461 112.574 80.6461Z" fill="white"/>
<path d="M112.574 70.4561C112.574 69.9461 112.934 69.3261 113.374 69.0761C113.814 68.8261 114.174 69.0261 114.174 69.5361C114.174 70.0461 113.814 70.6661 113.374 70.9161C112.934 71.1761 112.574 70.9661 112.574 70.4561Z" fill="white"/>
<path d="M112.574 60.2764C112.574 59.7664 112.934 59.1464 113.374 58.8964C113.814 58.6464 114.174 58.8464 114.174 59.3564C114.174 59.8664 113.814 60.4864 113.374 60.7364C112.934 60.9864 112.574 60.7864 112.574 60.2764Z" fill="white"/>
<path d="M112.574 50.086C112.574 49.576 112.934 48.956 113.374 48.706C113.814 48.456 114.174 48.656 114.174 49.166C114.174 49.676 113.814 50.296 113.374 50.546C112.934 50.806 112.574 50.596 112.574 50.086Z" fill="white"/>
<path d="M112.574 39.9063C112.574 39.3963 112.934 38.7763 113.374 38.5263C113.814 38.2763 114.174 38.4763 114.174 38.9863C114.174 39.4963 113.814 40.1163 113.374 40.3663C112.934 40.6163 112.574 40.4163 112.574 39.9063Z" fill="white"/>
<path d="M112.574 29.7164C112.574 29.2064 112.934 28.5864 113.374 28.3364C113.814 28.0864 114.174 28.2864 114.174 28.7964C114.174 29.3064 113.814 29.9264 113.374 30.1764C112.934 30.4364 112.574 30.2264 112.574 29.7164Z" fill="white"/>
<path d="M112.574 19.5362C112.574 19.0262 112.934 18.4062 113.374 18.1562C113.814 17.9062 114.174 18.1062 114.174 18.6162C114.174 19.1262 113.814 19.7462 113.374 19.9962C112.934 20.2462 112.574 20.0462 112.574 19.5362Z" fill="white"/>
<path d="M156.105 105.006C156.105 104.496 156.465 103.876 156.905 103.626C157.345 103.376 157.705 103.576 157.705 104.086C157.705 104.596 157.345 105.216 156.905 105.466C156.465 105.716 156.105 105.516 156.105 105.006Z" fill="white"/>
<path d="M156.105 94.816C156.105 94.306 156.465 93.686 156.905 93.436C157.345 93.186 157.705 93.386 157.705 93.896C157.705 94.406 157.345 95.026 156.905 95.276C156.455 95.536 156.105 95.326 156.105 94.816Z" fill="white"/>
<path d="M156.105 84.6358C156.105 84.1258 156.465 83.5058 156.905 83.2558C157.345 83.0058 157.705 83.2058 157.705 83.7158C157.705 84.2258 157.345 84.8458 156.905 85.0958C156.465 85.3458 156.105 85.1458 156.105 84.6358Z" fill="white"/>
<path d="M156.105 74.4561C156.105 73.9461 156.465 73.3261 156.905 73.0761C157.345 72.8261 157.705 73.0261 157.705 73.5361C157.705 74.0461 157.345 74.6661 156.905 74.9161C156.465 75.1661 156.105 74.9561 156.105 74.4561Z" fill="white"/>
<path d="M156.105 64.2662C156.105 63.7562 156.465 63.1362 156.905 62.8862C157.345 62.6362 157.705 62.8362 157.705 63.3462C157.705 63.8562 157.345 64.4762 156.905 64.7262C156.455 64.9862 156.105 64.7762 156.105 64.2662Z" fill="white"/>
<path d="M156.105 54.086C156.105 53.576 156.465 52.956 156.905 52.706C157.345 52.456 157.705 52.656 157.705 53.166C157.705 53.676 157.345 54.296 156.905 54.546C156.465 54.796 156.105 54.596 156.105 54.086Z" fill="white"/>
<path d="M156.105 43.8961C156.105 43.3861 156.465 42.7661 156.905 42.5161C157.345 42.2661 157.705 42.4661 157.705 42.9761C157.705 43.4861 157.345 44.1061 156.905 44.3561C156.465 44.6061 156.105 44.4061 156.105 43.8961Z" fill="white"/>
<path d="M305.363 81.9161C305.363 81.4061 305.723 80.7861 306.163 80.5361C306.603 80.2861 306.963 80.4861 306.963 80.9961C306.963 81.5061 306.603 82.1261 306.163 82.3761C305.723 82.6261 305.363 82.4261 305.363 81.9161Z" fill="white"/>
<path d="M305.363 71.7262C305.363 71.2162 305.723 70.5961 306.163 70.3461C306.603 70.0961 306.963 70.2962 306.963 70.8062C306.963 71.3162 306.603 71.9362 306.163 72.1862C305.723 72.4462 305.363 72.2362 305.363 71.7262Z" fill="white"/>
<path d="M305.363 61.546C305.363 61.036 305.723 60.416 306.163 60.166C306.603 59.916 306.963 60.116 306.963 60.626C306.963 61.136 306.603 61.756 306.163 62.006C305.723 62.256 305.363 62.056 305.363 61.546Z" fill="white"/>
<path d="M305.363 51.356C305.363 50.846 305.723 50.226 306.163 49.976C306.603 49.726 306.963 49.926 306.963 50.436C306.963 50.946 306.603 51.566 306.163 51.816C305.723 52.066 305.363 51.866 305.363 51.356Z" fill="white"/>
<path d="M305.363 41.1764C305.363 40.6664 305.723 40.0463 306.163 39.7963C306.603 39.5463 306.963 39.7463 306.963 40.2563C306.963 40.7663 306.603 41.3863 306.163 41.6363C305.723 41.8863 305.363 41.6864 305.363 41.1764Z" fill="white"/>
<path d="M305.363 30.9864C305.363 30.4764 305.723 29.8564 306.163 29.6064C306.603 29.3564 306.963 29.5564 306.963 30.0664C306.963 30.5764 306.603 31.1964 306.163 31.4464C305.723 31.7064 305.363 31.4964 305.363 30.9864Z" fill="white"/>
<path d="M305.363 20.8062C305.363 20.2962 305.723 19.6762 306.163 19.4262C306.603 19.1762 306.963 19.3762 306.963 19.8862C306.963 20.3962 306.603 21.0162 306.163 21.2662C305.723 21.5162 305.363 21.3162 305.363 20.8062Z" fill="white"/>
<path d="M293.895 64.7164C293.895 64.2064 294.255 63.5864 294.695 63.3364C295.135 63.0864 295.495 63.2864 295.495 63.7964C295.495 64.3064 295.135 64.9264 294.695 65.1764C294.255 65.4364 293.895 65.2264 293.895 64.7164Z" fill="white"/>
<path d="M293.895 54.5362C293.895 54.0262 294.255 53.4062 294.695 53.1562C295.135 52.9062 295.495 53.1062 295.495 53.6162C295.495 54.1262 295.135 54.7462 294.695 54.9962C294.255 55.2462 293.895 55.0462 293.895 54.5362Z" fill="white"/>
<path d="M293.895 44.3463C293.895 43.8363 294.255 43.2163 294.695 42.9663C295.135 42.7163 295.495 42.9163 295.495 43.4263C295.495 43.9363 295.135 44.5563 294.695 44.8063C294.255 45.0663 293.895 44.8563 293.895 44.3463Z" fill="white"/>
<path d="M293.895 34.1661C293.895 33.6561 294.255 33.0361 294.695 32.7861C295.135 32.5361 295.495 32.7361 295.495 33.2461C295.495 33.7561 295.135 34.3761 294.695 34.6261C294.255 34.8761 293.895 34.6761 293.895 34.1661Z" fill="white"/>
<path d="M293.895 23.9761C293.895 23.4661 294.255 22.8462 294.695 22.5962C295.135 22.3462 295.495 22.5461 295.495 23.0561C295.495 23.5661 295.135 24.1861 294.695 24.4361C294.255 24.6961 293.895 24.4861 293.895 23.9761Z" fill="white"/>
<path d="M293.895 13.7965C293.895 13.2865 294.255 12.6665 294.695 12.4165C295.135 12.1665 295.495 12.3665 295.495 12.8765C295.495 13.3865 295.135 14.0065 294.695 14.2565C294.255 14.5165 293.895 14.3065 293.895 13.7965Z" fill="white"/>
<path d="M293.895 3.61628C293.895 3.10628 294.255 2.48629 294.695 2.23629C295.135 1.98629 295.495 2.18629 295.495 2.69629C295.495 3.20629 295.135 3.82628 294.695 4.07628C294.255 4.32628 293.895 4.11628 293.895 3.61628Z" fill="white"/>
<path d="M166.355 77.0562C166.355 76.5462 166.715 75.9262 167.155 75.6762C167.595 75.4262 167.955 75.6262 167.955 76.1362C167.955 76.6462 167.595 77.2662 167.155 77.5162C166.715 77.7662 166.355 77.5662 166.355 77.0562Z" fill="white"/>
<path d="M166.355 66.8663C166.355 66.3563 166.715 65.7363 167.155 65.4863C167.595 65.2363 167.955 65.4363 167.955 65.9463C167.955 66.4563 167.595 67.0763 167.155 67.3263C166.715 67.5863 166.355 67.3763 166.355 66.8663Z" fill="white"/>
<path d="M166.355 56.6866C166.355 56.1766 166.715 55.5566 167.155 55.3066C167.595 55.0566 167.955 55.2566 167.955 55.7666C167.955 56.2766 167.595 56.8966 167.155 57.1466C166.715 57.4066 166.355 57.1966 166.355 56.6866Z" fill="white"/>
<path d="M166.355 46.5064C166.355 45.9964 166.715 45.3764 167.155 45.1264C167.595 44.8764 167.955 45.0764 167.955 45.5864C167.955 46.0964 167.595 46.7164 167.155 46.9664C166.715 47.2164 166.355 47.0164 166.355 46.5064Z" fill="white"/>
<path d="M166.355 36.3165C166.355 35.8065 166.715 35.1865 167.155 34.9365C167.595 34.6865 167.955 34.8865 167.955 35.3965C167.955 35.9065 167.595 36.5265 167.155 36.7765C166.715 37.0365 166.355 36.8265 166.355 36.3165Z" fill="white"/>
<path d="M166.355 26.1363C166.355 25.6263 166.715 25.0063 167.155 24.7563C167.595 24.5063 167.955 24.7063 167.955 25.2163C167.955 25.7263 167.595 26.3463 167.155 26.5963C166.715 26.8463 166.355 26.6463 166.355 26.1363Z" fill="white"/>
<path d="M166.355 15.9464C166.355 15.4364 166.715 14.8164 167.155 14.5664C167.595 14.3164 167.955 14.5164 167.955 15.0264C167.955 15.5364 167.595 16.1564 167.155 16.4064C166.715 16.6664 166.355 16.4564 166.355 15.9464Z" fill="white"/>
<path d="M133.455 233.626C137.205 235.786 137.225 239.296 133.495 241.466L75.1151 275.396C71.3951 277.556 65.335 277.556 61.585 275.396L2.82504 241.466C-0.924956 239.306 -0.944953 235.796 2.78505 233.636L61.165 199.706C64.885 197.546 70.945 197.546 74.695 199.706L133.455 233.626Z" fill="#1A1885"/>
<path d="M129.564 232.727L74.7038 264.607C71.2038 266.637 65.5138 266.637 61.9938 264.607L6.76375 232.727C4.99375 231.707 4.10375 230.357 4.11375 229.017L4.09375 235.037C4.09375 236.377 4.97375 237.717 6.74375 238.747L61.9737 270.627C65.4937 272.657 71.1838 272.657 74.6838 270.627L129.554 238.747C131.294 237.737 132.164 236.417 132.164 235.087L132.184 229.067C132.174 230.387 131.304 231.717 129.564 232.727Z" fill="url(#paint0_linear_4866_184)"/>
<path d="M129.524 225.356C133.044 227.386 133.064 230.686 129.564 232.716L74.7036 264.606C71.2036 266.636 65.5136 266.636 61.9936 264.606L6.77364 232.726C3.25364 230.696 3.23364 227.396 6.73364 225.366L61.6036 193.486C65.1036 191.456 70.7936 191.456 74.3136 193.486L129.524 225.356Z" fill="#5761D7"/>
<path d="M102.785 251.166C102.785 250.756 103.075 250.256 103.435 250.046C103.795 249.836 104.085 250.006 104.085 250.416C104.085 250.826 103.795 251.326 103.435 251.536C103.075 251.746 102.785 251.576 102.785 251.166Z" fill="#FF5A72"/>
<path d="M109.316 247.396C109.316 246.986 109.606 246.486 109.966 246.276C110.326 246.066 110.616 246.236 110.616 246.646C110.616 247.056 110.326 247.556 109.966 247.766C109.606 247.976 109.316 247.806 109.316 247.396Z" fill="#FF5A72"/>
<path d="M116.156 243.446C116.156 243.036 116.446 242.536 116.806 242.326C117.166 242.116 117.456 242.286 117.456 242.696C117.456 243.106 117.166 243.606 116.806 243.816C116.436 244.026 116.156 243.856 116.156 243.446Z" fill="#FF5A72"/>
<path d="M122.676 239.686C122.676 239.276 122.966 238.776 123.326 238.566C123.686 238.356 123.976 238.526 123.976 238.936C123.976 239.346 123.686 239.846 123.326 240.056C122.966 240.256 122.676 240.096 122.676 239.686Z" fill="#FF5A72"/>
<path d="M129.564 216.566L74.7038 248.446C71.2038 250.476 65.5138 250.476 61.9938 248.446L6.76375 216.566C4.99375 215.546 4.10375 214.196 4.11375 212.856L4.09375 218.876C4.09375 220.216 4.97375 221.556 6.74375 222.586L61.9737 254.466C65.4937 256.496 71.1838 256.496 74.6838 254.466L129.554 222.586C131.294 221.576 132.164 220.256 132.164 218.926L132.184 212.906C132.174 214.236 131.304 215.556 129.564 216.566Z" fill="url(#paint1_linear_4866_184)"/>
<path d="M129.524 209.206C133.044 211.236 133.064 214.536 129.564 216.566L74.7036 248.446C71.2036 250.476 65.5136 250.476 61.9936 248.446L6.77364 216.566C3.25364 214.536 3.23364 211.236 6.73364 209.206L61.6036 177.326C65.1036 175.296 70.7936 175.296 74.3136 177.326L129.524 209.206Z" fill="#5761D7"/>
<path d="M129.564 200.406L74.7038 232.296C71.2038 234.326 65.5138 234.326 61.9938 232.296L6.76375 200.416C4.99375 199.396 4.10375 198.046 4.11375 196.706L4.09375 202.726C4.09375 204.066 4.97375 205.406 6.74375 206.436L61.9737 238.316C65.4937 240.346 71.1838 240.346 74.6838 238.316L129.554 206.436C131.294 205.426 132.164 204.106 132.164 202.776L132.184 196.756C132.174 198.076 131.304 199.396 129.564 200.406Z" fill="url(#paint2_linear_4866_184)"/>
<path d="M129.524 193.046C133.044 195.076 133.064 198.376 129.564 200.406L74.7036 232.296C71.2036 234.326 65.5136 234.326 61.9936 232.296L6.77364 200.416C3.25364 198.386 3.23364 195.086 6.73364 193.056L61.6036 161.176C65.1036 159.146 70.7936 159.146 74.3136 161.176L129.524 193.046Z" fill="#5761D7"/>
<path d="M129.564 184.256L74.7038 216.136C71.2038 218.166 65.5138 218.166 61.9938 216.136L6.76375 184.256C4.99375 183.236 4.10375 181.886 4.11375 180.546L4.09375 186.566C4.09375 187.906 4.97375 189.246 6.74375 190.276L61.9737 222.156C65.4937 224.186 71.1838 224.186 74.6838 222.156L129.554 190.276C131.294 189.266 132.164 187.946 132.164 186.616L132.184 180.596C132.174 181.926 131.304 183.246 129.564 184.256Z" fill="url(#paint3_linear_4866_184)"/>
<path d="M129.522 176.896C133.042 178.926 133.062 182.226 129.562 184.256L74.7019 216.136C71.2019 218.166 65.5119 218.166 61.9919 216.136L6.76192 184.256C3.24192 182.226 3.22192 178.926 6.72192 176.896L61.5919 145.016C65.0919 142.986 70.7819 142.986 74.3019 145.016L129.522 176.896Z" fill="#5761D7"/>
<path d="M39.5852 207.376C39.2852 207.206 39.0352 206.726 39.0352 206.326C39.0352 205.926 39.2852 205.736 39.5852 205.906C39.8852 206.076 40.1352 206.546 40.1352 206.956C40.1352 207.366 39.8852 207.556 39.5852 207.376Z" fill="#FF55E2"/>
<path d="M45.0461 210.526C44.7461 210.356 44.4961 209.886 44.4961 209.476C44.4961 209.066 44.7461 208.886 45.0461 209.056C45.3461 209.226 45.5961 209.696 45.5961 210.106C45.5961 210.516 45.3461 210.706 45.0461 210.526Z" fill="#FF55E2"/>
<path d="M50.5031 213.686C50.2031 213.516 49.9531 213.046 49.9531 212.636C49.9531 212.226 50.2031 212.046 50.5031 212.216C50.8031 212.396 51.0531 212.866 51.0531 213.266C51.0531 213.666 50.8031 213.856 50.5031 213.686Z" fill="#FF55E2"/>
<path d="M55.9641 216.836C55.6641 216.666 55.4141 216.186 55.4141 215.786C55.4141 215.386 55.6641 215.196 55.9641 215.366C56.2641 215.546 56.5141 216.016 56.5141 216.416C56.5141 216.816 56.2641 217.006 55.9641 216.836Z" fill="#FF55E2"/>
<path d="M99.3633 204.636C99.3633 204.226 99.6533 203.726 100.013 203.516C100.373 203.306 100.663 203.476 100.663 203.886C100.663 204.296 100.373 204.796 100.013 205.006C99.6533 205.216 99.3633 205.056 99.3633 204.636Z" fill="#FF5A72"/>
<path d="M105.895 200.876C105.895 200.466 106.185 199.966 106.545 199.756C106.905 199.546 107.195 199.716 107.195 200.126C107.195 200.536 106.905 201.036 106.545 201.246C106.185 201.456 105.895 201.286 105.895 200.876Z" fill="#FF5A72"/>
<path d="M112.734 196.926C112.734 196.516 113.024 196.016 113.384 195.806C113.744 195.596 114.034 195.766 114.034 196.176C114.034 196.586 113.744 197.086 113.384 197.296C113.024 197.506 112.734 197.336 112.734 196.926Z" fill="#FF5A72"/>
<path d="M119.254 193.156C119.254 192.746 119.544 192.246 119.904 192.036C120.264 191.826 120.554 191.996 120.554 192.406C120.554 192.816 120.264 193.316 119.904 193.526C119.544 193.736 119.254 193.566 119.254 193.156Z" fill="#FF5A72"/>
<path d="M39.5852 223.056C39.2852 222.886 39.0352 222.416 39.0352 222.006C39.0352 221.596 39.2852 221.416 39.5852 221.586C39.8852 221.766 40.1352 222.236 40.1352 222.636C40.1352 223.036 39.8852 223.236 39.5852 223.056Z" fill="#FF55E2"/>
<path d="M45.0461 226.216C44.7461 226.036 44.4961 225.566 44.4961 225.166C44.4961 224.766 44.7461 224.576 45.0461 224.746C45.3461 224.916 45.5961 225.396 45.5961 225.796C45.5961 226.196 45.3461 226.386 45.0461 226.216Z" fill="#FF55E2"/>
<path d="M50.5031 229.366C50.2031 229.196 49.9531 228.726 49.9531 228.316C49.9531 227.906 50.2031 227.726 50.5031 227.896C50.8031 228.066 51.0531 228.536 51.0531 228.946C51.0531 229.356 50.8031 229.536 50.5031 229.366Z" fill="#FF55E2"/>
<path d="M55.9641 232.516C55.6641 232.346 55.4141 231.876 55.4141 231.466C55.4141 231.056 55.6641 230.876 55.9641 231.046C56.2641 231.226 56.5141 231.696 56.5141 232.096C56.5141 232.496 56.2641 232.696 55.9641 232.516Z" fill="#FF55E2"/>
<path d="M266.924 316.626C270.674 318.786 270.694 322.296 266.964 324.466L208.584 358.396C204.864 360.556 198.804 360.556 195.054 358.396L136.294 324.466C132.544 322.306 132.524 318.796 136.254 316.636L194.634 282.706C198.354 280.546 204.414 280.546 208.164 282.706L266.924 316.626Z" fill="#1A1885"/>
<path d="M263.032 315.256L208.162 347.136C204.662 349.166 198.972 349.166 195.452 347.136L140.232 315.256C138.462 314.236 137.573 312.886 137.583 311.546L137.562 317.566C137.562 318.906 138.442 320.246 140.212 321.276L195.432 353.156C198.952 355.186 204.653 355.186 208.143 353.156L263.012 321.276C264.752 320.266 265.623 318.946 265.623 317.616L265.643 311.596C265.643 312.916 264.772 314.246 263.032 315.256Z" fill="url(#paint4_linear_4866_184)"/>
<path d="M262.995 307.886C266.515 309.916 266.535 313.216 263.035 315.246L208.165 347.126C204.665 349.156 198.975 349.156 195.455 347.126L140.235 315.246C136.715 313.216 136.695 309.916 140.195 307.886L195.065 276.006C198.565 273.976 204.255 273.976 207.775 276.006L262.995 307.886Z" fill="#5761D7"/>
<path d="M169.613 336.127C169.313 335.957 169.062 335.487 169.062 335.077C169.062 334.667 169.313 334.487 169.613 334.657C169.913 334.827 170.163 335.297 170.163 335.707C170.163 336.117 169.913 336.297 169.613 336.127Z" fill="#FF55E2"/>
<path d="M175.062 339.276C174.762 339.106 174.512 338.636 174.512 338.226C174.512 337.826 174.762 337.636 175.062 337.806C175.362 337.986 175.612 338.456 175.612 338.856C175.612 339.256 175.372 339.446 175.062 339.276Z" fill="#FF55E2"/>
<path d="M180.523 342.426C180.223 342.246 179.973 341.776 179.973 341.376C179.973 340.976 180.223 340.786 180.523 340.956C180.823 341.126 181.073 341.596 181.073 342.006C181.073 342.416 180.833 342.606 180.523 342.426Z" fill="#FF55E2"/>
<path d="M185.984 345.577C185.684 345.407 185.434 344.937 185.434 344.527C185.434 344.117 185.684 343.937 185.984 344.107C186.284 344.277 186.534 344.747 186.534 345.157C186.534 345.567 186.294 345.757 185.984 345.577Z" fill="#FF55E2"/>
<path d="M240.105 332.227C240.105 331.817 240.395 331.317 240.755 331.107C241.115 330.897 241.405 331.067 241.405 331.477C241.405 331.887 241.115 332.387 240.755 332.597C240.395 332.797 240.105 332.637 240.105 332.227Z" fill="#FF5A72"/>
<path d="M246.637 328.456C246.637 328.046 246.927 327.546 247.287 327.336C247.647 327.126 247.937 327.296 247.937 327.706C247.937 328.116 247.647 328.616 247.287 328.826C246.927 329.036 246.637 328.866 246.637 328.456Z" fill="#FF5A72"/>
<path d="M253.477 324.507C253.477 324.097 253.767 323.597 254.127 323.387C254.487 323.177 254.777 323.347 254.777 323.757C254.777 324.167 254.487 324.667 254.127 324.877C253.757 325.087 253.477 324.917 253.477 324.507Z" fill="#FF5A72"/>
<path d="M259.996 320.737C259.996 320.327 260.286 319.827 260.646 319.617C261.006 319.407 261.296 319.577 261.296 319.987C261.296 320.397 261.006 320.897 260.646 321.107C260.286 321.317 259.996 321.147 259.996 320.737Z" fill="#FF5A72"/>
<path d="M398.834 232.626C402.584 234.786 402.604 238.296 398.874 240.466L340.494 274.396C336.774 276.556 330.714 276.556 326.964 274.396L268.204 240.466C264.454 238.306 264.434 234.796 268.164 232.636L326.544 198.706C330.264 196.546 336.324 196.546 340.074 198.706L398.834 232.626Z" fill="#1A1885"/>
<path d="M394.943 231.496L340.073 263.376C336.573 265.406 330.883 265.406 327.363 263.376L272.143 231.496C270.373 230.476 269.483 229.126 269.493 227.786L269.473 233.806C269.473 235.146 270.353 236.486 272.123 237.516L327.353 269.396C330.873 271.426 336.563 271.426 340.063 269.396L394.933 237.516C396.673 236.506 397.543 235.186 397.543 233.856L397.563 227.836C397.553 229.156 396.683 230.486 394.943 231.496Z" fill="url(#paint5_linear_4866_184)"/>
<path d="M394.905 224.126C398.425 226.156 398.445 229.456 394.945 231.486L340.075 263.366C336.575 265.396 330.885 265.396 327.365 263.366L272.145 231.486C268.625 229.456 268.605 226.156 272.105 224.126L326.975 192.246C330.475 190.216 336.165 190.216 339.685 192.246L394.905 224.126Z" fill="#5761D7"/>
<path d="M370.105 249.756C370.105 249.346 370.395 248.846 370.755 248.636C371.115 248.426 371.405 248.596 371.405 249.006C371.405 249.416 371.115 249.916 370.755 250.126C370.395 250.336 370.105 250.166 370.105 249.756Z" fill="#FF5A72"/>
<path d="M376.637 245.986C376.637 245.576 376.927 245.076 377.287 244.866C377.647 244.656 377.937 244.826 377.937 245.236C377.937 245.646 377.647 246.146 377.287 246.356C376.927 246.566 376.637 246.406 376.637 245.986Z" fill="#FF5A72"/>
<path d="M383.477 242.046C383.477 241.636 383.767 241.136 384.127 240.926C384.487 240.716 384.777 240.886 384.777 241.296C384.777 241.706 384.487 242.206 384.127 242.416C383.767 242.626 383.477 242.456 383.477 242.046Z" fill="#FF5A72"/>
<path d="M389.996 238.276C389.996 237.866 390.286 237.366 390.646 237.156C391.006 236.946 391.296 237.116 391.296 237.526C391.296 237.936 391.006 238.436 390.646 238.646C390.286 238.856 389.996 238.686 389.996 238.276Z" fill="#FF5A72"/>
<path d="M394.943 215.336L340.073 247.216C336.573 249.246 330.883 249.246 327.363 247.216L272.143 215.336C270.373 214.316 269.483 212.966 269.493 211.626L269.473 217.646C269.473 218.986 270.353 220.326 272.123 221.356L327.353 253.236C330.873 255.266 336.563 255.266 340.063 253.236L394.933 221.356C396.673 220.346 397.543 219.026 397.543 217.696L397.563 211.676C397.553 213.006 396.683 214.326 394.943 215.336Z" fill="url(#paint6_linear_4866_184)"/>
<path d="M394.901 207.976C398.421 210.006 398.441 213.306 394.941 215.336L340.071 247.216C336.571 249.246 330.881 249.246 327.361 247.216L272.141 215.336C268.621 213.306 268.601 210.006 272.101 207.976L326.971 176.096C330.471 174.066 336.161 174.066 339.681 176.096L394.901 207.976Z" fill="#5761D7"/>
<path d="M394.943 199.186L340.073 231.066C336.573 233.096 330.883 233.096 327.363 231.066L272.143 199.186C270.373 198.166 269.483 196.816 269.493 195.476L269.473 201.496C269.473 202.836 270.353 204.176 272.123 205.206L327.353 237.086C330.873 239.116 336.563 239.116 340.063 237.086L394.933 205.206C396.673 204.196 397.543 202.876 397.543 201.546L397.563 195.526C397.553 196.846 396.683 198.176 394.943 199.186Z" fill="url(#paint7_linear_4866_184)"/>
<path d="M394.901 191.816C398.421 193.846 398.441 197.146 394.941 199.176L340.071 231.056C336.571 233.086 330.881 233.086 327.361 231.056L272.141 199.176C268.621 197.146 268.601 193.846 272.101 191.816L326.971 159.936C330.471 157.906 336.161 157.906 339.681 159.936L394.901 191.816Z" fill="#5761D7"/>
<path d="M345.172 231.416C345.172 231.006 345.462 230.506 345.822 230.296C346.182 230.086 346.472 230.256 346.472 230.666C346.472 231.076 346.182 231.576 345.822 231.786C345.462 231.996 345.172 231.826 345.172 231.416Z" fill="#FF5A72"/>
<path d="M351.691 227.646C351.691 227.236 351.981 226.736 352.341 226.526C352.701 226.316 352.991 226.486 352.991 226.896C352.991 227.306 352.701 227.806 352.341 228.016C351.981 228.226 351.691 228.056 351.691 227.646Z" fill="#FF5A72"/>
<path d="M358.531 223.696C358.531 223.286 358.821 222.786 359.181 222.576C359.541 222.366 359.831 222.536 359.831 222.946C359.831 223.356 359.541 223.856 359.181 224.066C358.821 224.276 358.531 224.106 358.531 223.696Z" fill="#FF5A72"/>
<path d="M365.062 219.926C365.062 219.516 365.353 219.016 365.713 218.806C366.073 218.596 366.363 218.766 366.363 219.176C366.363 219.586 366.073 220.086 365.713 220.296C365.353 220.506 365.062 220.336 365.062 219.926Z" fill="#FF5A72"/>
<path d="M394.943 199.186L340.073 231.066C336.573 233.096 330.883 233.096 327.363 231.066L272.143 199.186C270.373 198.166 269.483 196.816 269.493 195.476L269.473 201.496C269.473 202.836 270.353 204.176 272.123 205.206L327.353 237.086C330.873 239.116 336.563 239.116 340.063 237.086L394.933 205.206C396.673 204.196 397.543 202.876 397.543 201.546L397.563 195.526C397.553 196.846 396.683 198.176 394.943 199.186Z" fill="url(#paint8_linear_4866_184)"/>
<path d="M394.901 191.816C398.421 193.846 398.441 197.146 394.941 199.176L340.071 231.056C336.571 233.086 330.881 233.086 327.361 231.056L272.141 199.176C268.621 197.146 268.601 193.846 272.101 191.816L326.971 159.936C330.471 157.906 336.161 157.906 339.681 159.936L394.901 191.816Z" fill="#5761D7"/>
<path opacity="0.72" d="M345.721 194.766C346.421 195.166 346.421 195.826 345.731 196.226L334.821 202.566C334.121 202.966 332.991 202.966 332.291 202.566L321.311 196.226C320.611 195.826 320.611 195.166 321.301 194.766L332.211 188.426C332.911 188.026 334.041 188.026 334.741 188.426L345.721 194.766Z" fill="url(#paint9_linear_4866_184)"/>
<path d="M345.172 231.416C345.172 231.006 345.462 230.506 345.822 230.296C346.182 230.086 346.472 230.256 346.472 230.666C346.472 231.076 346.182 231.576 345.822 231.786C345.462 231.996 345.172 231.826 345.172 231.416Z" fill="#FF5A72"/>
<path d="M351.691 227.646C351.691 227.236 351.981 226.736 352.341 226.526C352.701 226.316 352.991 226.486 352.991 226.896C352.991 227.306 352.701 227.806 352.341 228.016C351.981 228.226 351.691 228.056 351.691 227.646Z" fill="#FF5A72"/>
<path d="M358.531 223.696C358.531 223.286 358.821 222.786 359.181 222.576C359.541 222.366 359.831 222.536 359.831 222.946C359.831 223.356 359.541 223.856 359.181 224.066C358.821 224.276 358.531 224.106 358.531 223.696Z" fill="#FF5A72"/>
<path d="M365.062 219.926C365.062 219.516 365.353 219.016 365.713 218.806C366.073 218.596 366.363 218.766 366.363 219.176C366.363 219.586 366.073 220.086 365.713 220.296C365.353 220.506 365.062 220.336 365.062 219.926Z" fill="#FF5A72"/>
<path d="M299.316 218.886C299.016 218.716 298.766 218.246 298.766 217.836C298.766 217.426 299.016 217.246 299.316 217.416C299.616 217.586 299.866 218.056 299.866 218.466C299.866 218.876 299.626 219.066 299.316 218.886Z" fill="#FF55E2"/>
<path d="M304.777 222.046C304.477 221.876 304.227 221.406 304.227 220.996C304.227 220.586 304.477 220.406 304.777 220.576C305.077 220.756 305.327 221.226 305.327 221.626C305.327 222.026 305.087 222.216 304.777 222.046Z" fill="#FF55E2"/>
<path d="M310.237 225.196C309.937 225.016 309.688 224.546 309.688 224.146C309.688 223.746 309.937 223.556 310.237 223.726C310.537 223.896 310.787 224.376 310.787 224.776C310.787 225.176 310.547 225.366 310.237 225.196Z" fill="#FF55E2"/>
<path d="M315.695 228.346C315.395 228.166 315.145 227.696 315.145 227.296C315.145 226.896 315.395 226.706 315.695 226.876C315.995 227.046 316.245 227.516 316.245 227.926C316.245 228.336 316.005 228.526 315.695 228.346Z" fill="#FF55E2"/>
<path d="M299.316 234.616C299.016 234.436 298.766 233.966 298.766 233.566C298.766 233.166 299.016 232.976 299.316 233.146C299.616 233.316 299.866 233.786 299.866 234.196C299.866 234.606 299.626 234.786 299.316 234.616Z" fill="#FF55E2"/>
<path d="M304.777 237.766C304.477 237.596 304.227 237.126 304.227 236.716C304.227 236.306 304.477 236.126 304.777 236.296C305.077 236.466 305.327 236.936 305.327 237.346C305.327 237.756 305.087 237.946 304.777 237.766Z" fill="#FF55E2"/>
<path d="M310.237 240.917C309.937 240.747 309.688 240.277 309.688 239.867C309.688 239.457 309.937 239.277 310.237 239.447C310.537 239.627 310.787 240.097 310.787 240.497C310.787 240.897 310.547 241.097 310.237 240.917Z" fill="#FF55E2"/>
<path d="M315.695 244.067C315.395 243.887 315.145 243.417 315.145 243.017C315.145 242.617 315.395 242.427 315.695 242.597C315.995 242.767 316.245 243.237 316.245 243.647C316.245 244.057 316.005 244.247 315.695 244.067Z" fill="#FF55E2"/>
<path d="M266.924 154.726C270.674 156.886 270.694 160.396 266.964 162.566L208.584 196.496C204.864 198.656 198.804 198.656 195.054 196.496L136.294 162.566C132.544 160.406 132.524 156.896 136.254 154.726L194.634 120.796C198.354 118.636 204.414 118.636 208.164 120.796L266.924 154.726Z" fill="#1A1885"/>
<path d="M263.032 154.106L208.162 185.986C204.662 188.016 198.972 188.016 195.452 185.986L140.232 154.106C138.462 153.086 137.573 151.736 137.583 150.396L137.562 156.416C137.562 157.756 138.442 159.096 140.212 160.126L195.432 192.006C198.952 194.036 204.653 194.036 208.143 192.006L263.012 160.126C264.752 159.116 265.623 157.796 265.623 156.466L265.643 150.446C265.643 151.776 264.772 153.096 263.032 154.106Z" fill="url(#paint10_linear_4866_184)"/>
<path d="M262.995 146.746C266.515 148.776 266.535 152.076 263.035 154.106L208.165 185.986C204.665 188.016 198.975 188.016 195.455 185.986L140.235 154.106C136.715 152.076 136.695 148.776 140.195 146.746L195.065 114.866C198.565 112.836 204.255 112.836 207.775 114.866L262.995 146.746Z" fill="#5761D7"/>
<path d="M263.032 137.956L208.162 169.836C204.662 171.866 198.972 171.866 195.452 169.836L140.232 137.956C138.462 136.936 137.573 135.586 137.583 134.246L137.562 140.266C137.562 141.606 138.442 142.946 140.212 143.976L195.432 175.856C198.952 177.886 204.653 177.886 208.143 175.856L263.012 143.976C264.752 142.966 265.623 141.646 265.623 140.316L265.643 134.296C265.643 135.616 264.772 136.946 263.032 137.956Z" fill="url(#paint11_linear_4866_184)"/>
<path d="M262.991 130.586C266.511 132.616 266.531 135.916 263.031 137.946L208.161 169.826C204.661 171.856 198.971 171.856 195.451 169.826L140.231 137.946C136.711 135.916 136.691 132.616 140.191 130.586L195.061 98.7061C198.561 96.6761 204.251 96.6761 207.771 98.7061L262.991 130.586Z" fill="#5761D7"/>
<path d="M223.034 228.736C234.954 235.466 235.014 246.376 223.174 253.116C211.334 259.846 192.074 259.846 180.164 253.116C168.244 246.386 168.184 235.476 180.024 228.736C191.864 222.006 211.124 222.006 223.034 228.736Z" fill="#1A1885"/>
<path d="M220.592 221.026C231.152 226.986 231.212 236.656 220.712 242.626C210.222 248.596 193.162 248.596 182.602 242.626C172.042 236.666 171.982 226.996 182.482 221.026C192.972 215.056 210.032 215.056 220.592 221.026Z" fill="#FFB06D"/>
<path d="M225.543 217.886L225.483 238.266C225.493 234.696 223.143 231.116 218.433 228.396C209.063 222.986 193.883 222.986 184.583 228.396C179.963 231.086 177.643 234.606 177.633 238.136L177.693 217.756C177.703 214.226 180.013 210.706 184.643 208.016C193.943 202.616 209.123 202.616 218.493 208.016C223.203 210.736 225.563 214.316 225.543 217.886Z" fill="url(#paint12_linear_4866_184)"/>
<path d="M228.552 217.896L228.492 238.276C228.482 242.246 225.882 246.206 220.682 249.236C210.212 255.316 193.122 255.316 182.592 249.236C177.292 246.176 174.642 242.146 174.652 238.126L174.712 217.746C174.702 221.766 177.352 225.796 182.652 228.856C193.182 234.936 210.282 234.936 220.742 228.856C225.942 225.826 228.542 221.866 228.552 217.896Z" fill="url(#paint13_linear_4866_184)"/>
<path d="M220.614 206.786C231.154 212.866 231.204 222.766 220.744 228.856C210.274 234.936 193.184 234.936 182.654 228.856C172.114 222.776 172.064 212.876 182.534 206.786C192.984 200.706 210.084 200.706 220.614 206.786ZM184.754 227.626C194.114 233.026 209.294 233.026 218.604 227.626C227.904 222.226 227.854 213.426 218.494 208.026C209.124 202.616 193.944 202.616 184.644 208.026C175.344 213.416 175.394 222.216 184.754 227.626Z" fill="#FFD0A8"/>
<path opacity="0.72" d="M222.122 128.426L221.892 209.096C221.882 212.096 219.912 215.096 215.962 217.396C208.022 222.016 195.102 222.016 187.102 217.396C183.082 215.076 181.072 212.026 181.082 208.976L181.312 128.306C181.302 131.346 183.312 134.396 187.332 136.726C195.332 141.346 208.252 141.346 216.192 136.726C220.132 134.436 222.112 131.436 222.122 128.426Z" fill="url(#paint14_linear_4866_184)"/>
<path opacity="0.4" d="M216.095 120.016C224.095 124.636 224.135 132.116 216.195 136.726C208.255 141.346 195.335 141.346 187.335 136.726C179.335 132.106 179.295 124.626 187.245 120.006C195.185 115.396 208.105 115.396 216.095 120.016Z" fill="url(#paint15_linear_4866_184)"/>
<path opacity="0.4" d="M216.095 110.946C224.095 115.566 224.135 123.046 216.195 127.656C208.255 132.276 195.335 132.276 187.335 127.656C179.335 123.036 179.295 115.556 187.245 110.936C195.185 106.326 208.105 106.326 216.095 110.946Z" fill="url(#paint16_linear_4866_184)"/>
<path opacity="0.4" d="M216.095 3.46625C224.095 8.08625 224.135 15.5662 216.195 20.1763C208.255 24.7962 195.335 24.7962 187.335 20.1763C179.335 15.5563 179.295 8.07625 187.245 3.45625C195.185 -1.15375 208.105 -1.15375 216.095 3.46625Z" fill="url(#paint17_linear_4866_184)"/>
<path opacity="0.4" d="M208.445 29.9862C212.185 32.1462 212.205 35.6462 208.495 37.8062C204.785 39.9662 198.735 39.9662 195.005 37.8062C191.265 35.6462 191.245 32.1462 194.965 29.9862C198.665 27.8262 204.705 27.8262 208.445 29.9862Z" fill="url(#paint18_linear_4866_184)"/>
<path d="M201.456 102.086L211.596 96.1963L211.566 108.026L201.426 113.916L201.456 102.086Z" fill="url(#paint19_linear_4866_184)"/>
<path d="M191.164 96.1461L201.304 90.2461L211.594 96.1961L201.454 102.086L191.164 96.1461Z" fill="url(#paint20_linear_4866_184)"/>
<path d="M201.455 102.086L201.425 113.916L191.125 107.976L191.165 96.146L201.455 102.086Z" fill="url(#paint21_linear_4866_184)"/>
<path d="M266.743 30.4659L276.883 24.5659L276.853 48.2359L266.703 54.1259L266.743 30.4659Z" fill="url(#paint22_linear_4866_184)"/>
<path d="M256.453 24.516L266.593 18.626L276.883 24.566L266.743 30.466L256.453 24.516Z" fill="url(#paint23_linear_4866_184)"/>
<path d="M266.744 30.4661L266.704 54.1261L256.414 48.1861L256.454 24.5161L266.744 30.4661Z" fill="url(#paint24_linear_4866_184)"/>
<path d="M239.035 58.3358L261.585 45.2358" stroke="#FF5A72" stroke-width="2" stroke-miterlimit="10" stroke-linecap="round" stroke-linejoin="round"/>
<path d="M233.954 61.4659L244.084 55.5659L244.054 67.3959L233.914 73.2959L233.954 61.4659Z" fill="url(#paint25_linear_4866_184)"/>
<path d="M223.656 55.516L233.796 49.626L244.086 55.566L233.956 61.466L223.656 55.516Z" fill="url(#paint26_linear_4866_184)"/>
<path d="M233.955 61.4661L233.915 73.2961L223.625 67.3461L223.655 55.5161L233.955 61.4661Z" fill="url(#paint27_linear_4866_184)"/>
<path d="M205.734 77.746L228.274 64.646" stroke="#FF5A72" stroke-width="2" stroke-miterlimit="10" stroke-linecap="round" stroke-linejoin="round"/>
<path d="M201.682 79.0961L211.832 73.2061L211.792 85.0361L201.652 90.9261L201.682 79.0961Z" fill="url(#paint28_linear_4866_184)"/>
<path d="M191.395 73.1561L201.535 67.2661L211.835 73.2061L201.685 79.0961L191.395 73.1561Z" fill="url(#paint29_linear_4866_184)"/>
<path d="M201.683 79.0962L201.653 90.9262L191.363 84.9862L191.393 73.1562L201.683 79.0962Z" fill="url(#paint30_linear_4866_184)"/>
<path d="M201.844 73.2061V65.9961" stroke="#FF5A72" stroke-width="2" stroke-miterlimit="10" stroke-linecap="round" stroke-linejoin="round"/>
<path d="M201.932 55.9859L212.072 50.0859L212.042 61.9159L201.902 67.8159L201.932 55.9859Z" fill="url(#paint31_linear_4866_184)"/>
<path d="M191.645 50.036L201.785 44.146L212.075 50.086L201.935 55.986L191.645 50.036Z" fill="url(#paint32_linear_4866_184)"/>
<path d="M201.933 55.9861L201.903 67.8161L191.613 61.8661L191.643 50.0361L201.933 55.9861Z" fill="url(#paint33_linear_4866_184)"/>
<path d="M255.433 122.397L330.973 78.7765C331.703 78.3565 332.373 78.3165 332.843 78.5865L334.253 79.4065C333.773 79.1265 333.113 79.1665 332.383 79.5965L256.843 123.217C255.383 124.057 254.213 126.087 254.223 127.757L254.373 180.717C254.373 181.547 254.673 182.127 255.143 182.407L253.733 181.587C253.263 181.317 252.963 180.727 252.963 179.896L252.813 126.937C252.803 125.267 253.973 123.237 255.433 122.397Z" fill="white"/>
<path d="M256.831 123.216C255.371 124.056 254.201 126.086 254.211 127.756L254.361 180.716C254.361 182.386 255.541 183.056 257.001 182.216L332.541 138.606C334.001 137.766 335.171 135.726 335.161 134.066L335.011 81.1064C335.011 79.4364 333.831 78.7664 332.371 79.6064L256.831 123.216Z" fill="url(#paint34_linear_4866_184)"/>
<path d="M268.792 126.627C267.812 127.197 267.012 128.577 267.012 129.707V139.747L270.572 137.687V127.657C270.572 126.527 269.782 126.067 268.792 126.627Z" fill="#FF5A72"/>
<path d="M267.012 147.297C267.012 148.437 267.812 148.897 268.792 148.327C269.772 147.757 270.572 146.377 270.572 145.247V137.697L267.012 139.757V147.297Z" fill="#CF2D52"/>
<path d="M275.272 124.347C274.292 124.917 273.492 126.297 273.492 127.427V136.007L277.052 133.307V124.727C277.052 124.237 276.252 123.777 275.272 124.347Z" fill="#1A1885"/>
<path d="M273.492 138.127C273.492 139.267 274.292 139.727 275.272 139.157C276.252 138.587 277.052 137.207 277.052 136.077V133.967L273.492 136.027V138.127Z" fill="#1A1885"/>
<path d="M279.961 137.837C279.961 138.977 280.761 139.437 281.741 138.867C282.721 138.297 283.521 136.917 283.521 135.787V130.227L279.961 132.287V137.837Z" fill="#CF2D52"/>
<path d="M281.741 117.167C280.761 117.737 279.961 119.117 279.961 120.247V132.277L283.521 130.217V118.187C283.521 117.057 282.721 116.597 281.741 117.167Z" fill="#FF5A72"/>
<path d="M286.441 139.927C286.441 141.067 287.241 142.167 288.221 141.597C289.201 141.027 290.001 139.647 290.001 138.517V126.487L286.441 128.547V139.927Z" fill="#1A1885"/>
<path d="M288.221 119.897C287.241 120.467 286.441 121.847 286.441 122.977V128.537L290.001 126.477V120.277C290.001 119.147 289.201 119.327 288.221 119.897Z" fill="#1A1885"/>
<path d="M292.91 133.807C292.91 134.947 293.71 135.407 294.69 134.837C295.67 134.267 296.47 132.887 296.47 131.757V122.757L292.91 124.817V133.807Z" fill="#CF2D52"/>
<path d="M294.69 113.137C293.71 113.707 292.91 115.087 292.91 116.217V124.797L296.47 122.737V114.157C296.47 113.027 295.67 112.567 294.69 113.137Z" fill="#FF5A72"/>
<path d="M299.383 127.617C299.383 128.757 300.183 129.217 301.163 128.647C302.143 128.077 302.943 126.057 302.943 124.927V119.017L299.383 121.077V127.617Z" fill="#1A1885"/>
<path d="M301.163 106.947C300.183 107.517 299.383 108.897 299.383 109.387V120.417L302.943 119.007V107.977C302.953 106.837 302.153 106.377 301.163 106.947Z" fill="#1A1885"/>
<path d="M305.863 120.117C305.863 121.247 306.663 121.707 307.643 121.147C308.623 120.577 309.423 119.197 309.423 118.067V115.267L305.863 117.327V120.117Z" fill="#CF2D52"/>
<path d="M307.643 100.607C306.663 101.177 305.863 102.557 305.863 103.687V117.317L309.423 115.257V101.627C309.423 100.497 308.623 100.037 307.643 100.607Z" fill="#FF5A72"/>
<path d="M314.112 99.4667C313.132 100.037 312.332 101.417 312.332 102.547V113.577L315.892 110.877V99.8567C315.892 99.3667 315.102 98.9067 314.112 99.4667Z" fill="#1A1885"/>
<path d="M312.332 120.137C312.332 121.277 313.132 121.737 314.112 121.167C315.092 120.597 315.892 118.577 315.892 117.447V111.537L312.332 113.597V120.137Z" fill="#1A1885"/>
<path d="M322.373 102.236C322.373 101.096 321.573 100.636 320.593 101.206C319.613 101.776 318.812 103.156 318.812 104.286V109.846L322.373 107.786V102.236Z" fill="#FF5A72"/>
<path d="M318.812 109.847V115.407C318.812 116.547 319.613 117.007 320.593 116.437C321.573 115.867 322.373 114.487 322.373 113.357V107.797L318.812 109.847Z" fill="#CF2D52"/>
<path d="M325.413 106.957L263.973 142.437V141.007L325.413 105.537V106.957Z" fill="url(#paint35_linear_4866_184)"/>
<path d="M263.973 163.817L268.793 158.007L283.523 151.017L289.093 143.867L307.643 139.927L320.593 125.687" stroke="#1A1885" stroke-width="0.6751" stroke-miterlimit="10"/>
<path d="M288.223 144.377C288.223 143.847 288.603 143.197 289.063 142.927C289.523 142.657 289.903 142.877 289.903 143.407C289.903 143.937 289.523 144.587 289.063 144.857C288.603 145.127 288.223 144.907 288.223 144.377Z" fill="#1A1885"/>
<path d="M263.973 169.256L273.493 153.846L277.053 153.476L281.743 155.846L286.443 148.786L295.623 146.016L305.863 135.156L313.173 138.186L315.893 132.506L325.413 122.896" stroke="#FF5A72" stroke-width="0.6751" stroke-miterlimit="10"/>
<path d="M272.652 154.326C272.652 153.796 273.032 153.146 273.492 152.876C273.952 152.606 274.332 152.826 274.332 153.356C274.332 153.886 273.952 154.536 273.492 154.806C273.032 155.076 272.652 154.856 272.652 154.326Z" fill="#1A1885"/>
<path d="M305.023 135.636C305.023 135.106 305.403 134.456 305.863 134.186C306.323 133.916 306.703 134.136 306.703 134.666C306.703 135.196 306.323 135.846 305.863 136.116C305.403 136.386 305.023 136.166 305.023 135.636Z" fill="#1A1885"/>
<path d="M312.332 138.666C312.332 138.136 312.712 137.486 313.172 137.216C313.632 136.946 314.012 137.166 314.012 137.696C314.012 138.226 313.632 138.876 313.172 139.146C312.712 139.416 312.332 139.206 312.332 138.666Z" fill="#1A1885"/>
<path d="M280.902 156.326C280.902 155.796 281.282 155.146 281.742 154.876C282.202 154.606 282.582 154.826 282.582 155.356C282.582 155.886 282.202 156.536 281.742 156.806C281.282 157.086 280.902 156.866 280.902 156.326Z" fill="#1A1885"/>
<path d="M145.543 111.196L70.0027 67.5763C69.2727 67.1563 68.6027 67.1163 68.1327 67.3863L66.7227 68.2063C67.2027 67.9263 67.8627 67.9663 68.5927 68.3963L144.133 112.016C145.593 112.856 146.763 114.886 146.753 116.556L146.603 169.516C146.603 170.346 146.313 170.926 145.833 171.206L147.243 170.386C147.713 170.116 148.013 169.526 148.013 168.696L148.163 115.736C148.173 114.066 147.003 112.036 145.543 111.196Z" fill="white"/>
<path d="M144.143 112.016C145.603 112.856 146.773 114.886 146.763 116.556L146.613 169.516C146.613 171.186 145.433 171.856 143.973 171.016L68.4326 127.406C66.9726 126.566 65.8026 124.526 65.8126 122.866L65.9626 69.9062C65.9626 68.2362 67.1426 67.5662 68.6026 68.4062L144.143 112.016Z" fill="url(#paint36_linear_4866_184)"/>
<path d="M129.003 127.516C125.643 126.776 122.693 127.426 119.443 127.096C116.193 126.766 112.253 125.116 109.313 121.196C106.453 117.396 104.933 112.006 101.603 109.216C97.7026 105.956 94.3926 108.716 90.4326 107.046C88.4326 106.196 86.4327 104.276 84.5227 102.396C82.6227 100.506 79.5027 96.5163 77.4827 95.1563C77.0427 94.8563 76.6227 94.6263 76.2227 94.4263V121.296L136.323 155.996V131.106C133.883 129.296 131.373 128.046 129.003 127.516Z" fill="url(#paint37_linear_4866_184)"/>
<path d="M124.272 135.717C120.282 134.157 116.952 135.487 113.022 134.277C108.132 132.767 103.082 127.587 98.6122 122.367C94.1422 117.147 89.7022 111.447 84.7122 107.957C81.7922 105.917 78.6222 104.937 76.2422 105.447V121.297L136.342 155.997V145.577C132.422 141.667 128.372 137.327 124.272 135.717Z" fill="url(#paint38_linear_4866_184)"/>
<path d="M83.9844 88.5864V125.766" stroke="#FF5A72" stroke-width="0.3375" stroke-miterlimit="10" stroke-linecap="round" stroke-linejoin="round"/>
<path d="M92.7734 93.6665V130.846" stroke="#FF5A72" stroke-width="0.3375" stroke-miterlimit="10" stroke-linecap="round" stroke-linejoin="round"/>
<path d="M101.574 98.7466V135.927" stroke="#FF5A72" stroke-width="0.3375" stroke-miterlimit="10" stroke-linecap="round" stroke-linejoin="round"/>
<path d="M110.363 103.826V140.996" stroke="#FF5A72" stroke-width="0.3375" stroke-miterlimit="10" stroke-linecap="round" stroke-linejoin="round"/>
<path d="M119.164 108.906V146.076" stroke="#FF5A72" stroke-width="0.3375" stroke-miterlimit="10" stroke-linecap="round" stroke-linejoin="round"/>
<path d="M127.953 113.977V151.157" stroke="#FF5A72" stroke-width="0.3375" stroke-miterlimit="10" stroke-linecap="round" stroke-linejoin="round"/>
<path d="M58.3633 130.616V133.476" stroke="#FAB08B" stroke-width="2.9816" stroke-miterlimit="10" stroke-linecap="round" stroke-linejoin="round"/>
<path d="M55.7638 134.566C55.7638 134.566 51.2338 137.966 50.6138 141.626C50.0638 144.856 51.5838 146.846 55.0538 150.566" stroke="white" stroke-width="2.9816" stroke-miterlimit="10" stroke-linecap="round" stroke-linejoin="round"/>
<path d="M59.1537 153.226C58.8537 153.676 58.2637 153.826 57.7737 153.596L55.8537 152.686C55.0537 152.306 54.7837 151.306 55.2837 150.576C55.7837 149.846 56.8137 149.736 57.4537 150.346L58.9937 151.806C59.3937 152.176 59.4537 152.776 59.1537 153.226Z" fill="#FAB08B"/>
<path d="M59.552 188.856C59.552 188.856 60.562 189.856 61.222 189.686C62.212 189.436 65.982 188.366 67.212 186.856C68.442 185.336 67.062 184.896 65.942 185.166C62.792 185.936 61.712 186.376 60.612 186.676C59.602 186.966 59.132 188.226 59.552 188.856Z" fill="#070D30"/>
<path d="M54.1847 185.887C54.1847 185.887 55.1947 186.887 55.8547 186.717C56.8447 186.467 60.6147 185.397 61.8547 183.887C63.0847 182.367 61.7047 181.927 60.5847 182.197C57.4347 182.967 56.3547 183.407 55.2547 183.707C54.2347 183.987 53.7647 185.257 54.1847 185.887Z" fill="#070D30"/>
<path d="M61.0938 187.096L61.9538 181.756" stroke="#D6E9F4" stroke-width="2.0854" stroke-miterlimit="10" stroke-linecap="round" stroke-linejoin="round"/>
<path d="M55.9141 183.916L57.1941 178.656" stroke="#D6E9F4" stroke-width="2.0854" stroke-miterlimit="10" stroke-linecap="round" stroke-linejoin="round"/>
<path d="M54.4122 152.156C56.5222 152.126 61.0722 153.076 63.4722 153.406C64.3522 155.066 64.6722 156.846 64.2822 158.576C65.0422 162.676 64.9822 165.286 65.0222 169.786C65.0522 174.286 64.3422 180.286 63.4222 184.986C63.2522 185.866 62.7922 186.076 62.0722 186.096C61.7822 186.106 61.3322 186.036 61.0722 185.966C60.4122 185.786 59.9022 185.406 60.0722 184.576C61.0122 180.036 61.8522 174.116 61.6922 169.816C61.5322 165.516 61.3322 163.336 60.4322 159.516C59.8622 159.376 59.3022 159.196 58.7122 158.936C59.2122 162.186 59.0922 163.606 59.2222 167.316C59.3522 171.026 59.3522 178.186 58.3822 182.246C58.1622 183.186 57.6422 183.546 56.8022 183.626C56.6622 183.636 56.4622 183.626 56.3422 183.596C55.1422 183.196 54.9722 182.226 55.1422 181.286C55.9022 177.146 56.1222 171.466 55.9222 167.466C55.6922 163.476 52.4522 152.176 54.4122 152.156Z" fill="#1A1885"/>
<path d="M52.8952 152.516C52.8752 153.396 53.3052 154.226 54.0452 154.716C55.7652 155.876 58.6252 157.386 60.2052 157.606C64.0252 158.146 64.3352 155.646 64.3352 155.646C64.3352 155.646 64.2252 140.676 63.6852 137.576C63.3952 135.926 62.1152 135.086 60.7652 134.196C60.5952 134.086 60.4352 133.976 60.2752 133.886C59.2552 133.256 58.0852 132.876 56.8952 132.886C56.5752 132.886 56.2852 132.916 56.0152 132.976C54.6652 133.226 54.0752 134.036 53.6252 134.696C53.3452 135.106 53.1852 135.586 53.1752 136.086L52.8952 152.516Z" fill="#FF5A72"/>
<path d="M63.375 126.196C64.245 128.676 63.475 131.516 61.555 132.186C61.275 132.286 60.985 132.336 60.685 132.326C59.315 132.326 57.885 131.326 56.975 129.856C56.745 129.476 56.545 129.066 56.395 128.626C56.375 128.566 56.355 128.506 56.335 128.446C56.295 128.316 56.255 128.186 56.225 128.056C55.845 126.496 56.185 125.076 57.025 124.136C57.295 123.836 57.615 123.586 57.975 123.396C58.115 123.326 58.265 123.256 58.415 123.206C59.905 122.686 61.535 123.266 62.595 124.706C62.915 125.136 63.175 125.636 63.375 126.196Z" fill="#FAB08B"/>
<path d="M56.0151 124.546C57.5551 120.206 61.6451 122.096 62.6751 124.176C62.8751 124.576 62.6951 124.896 62.2951 125.106C62.1951 125.526 62.0051 126.026 61.6551 126.216C60.9851 126.586 62.4951 127.516 62.0751 127.936C61.6551 128.356 61.1451 127.466 60.6151 127.936C59.9151 128.556 61.5351 129.516 60.7151 129.936C59.8951 130.366 59.2651 132.246 57.3451 131.836C55.4251 131.426 54.8851 128.966 54.7051 127.436C54.5151 125.916 55.4351 124.876 56.0151 124.546Z" fill="#070D30"/>
<path d="M62.0653 128.416C62.3053 129.016 62.1453 129.716 61.6853 129.896C61.2253 130.086 60.6253 129.676 60.3853 129.086C60.1453 128.486 60.3553 127.926 60.8153 127.736C61.2853 127.556 61.8253 127.816 62.0653 128.416Z" fill="#FAB08B"/>
<path d="M62.3945 138.196C62.3945 138.196 66.9645 141.536 70.6545 141.066C73.9045 140.646 75.3645 138.616 77.9145 134.216" stroke="white" stroke-width="2.9816" stroke-miterlimit="10" stroke-linecap="round" stroke-linejoin="round"/>
<path d="M79.2444 129.516C79.7544 129.676 80.0844 130.186 80.0044 130.726L79.6944 132.826C79.5644 133.706 78.6844 134.256 77.8444 133.986C77.0044 133.726 76.5944 132.766 76.9844 131.976L77.9344 130.076C78.1744 129.586 78.7344 129.356 79.2444 129.516Z" fill="#FAB08B"/>
<path d="M350.434 125.717V128.577" stroke="#FAB08B" stroke-width="2.9816" stroke-miterlimit="10" stroke-linecap="round" stroke-linejoin="round"/>
<path d="M353.031 129.677C353.031 129.677 357.561 133.077 358.181 136.737C358.731 139.967 357.211 141.957 353.741 145.677" stroke="white" stroke-width="2.9816" stroke-miterlimit="10" stroke-linecap="round" stroke-linejoin="round"/>
<path d="M349.642 148.327C349.942 148.777 350.532 148.927 351.022 148.697L352.942 147.787C353.742 147.407 354.012 146.407 353.512 145.677C353.012 144.947 351.982 144.837 351.342 145.447L349.802 146.907C349.402 147.287 349.342 147.887 349.642 148.327Z" fill="#FAB08B"/>
<path d="M349.242 183.967C349.242 183.967 348.232 184.967 347.572 184.797C346.582 184.547 342.812 183.477 341.572 181.967C340.342 180.447 341.722 180.007 342.842 180.277C345.992 181.047 347.072 181.487 348.172 181.787C349.202 182.067 349.662 183.337 349.242 183.967Z" fill="#070D30"/>
<path d="M354.614 180.986C354.614 180.986 353.604 181.986 352.944 181.816C351.954 181.566 348.184 180.496 346.944 178.986C345.704 177.476 347.094 177.026 348.214 177.296C351.364 178.066 352.444 178.506 353.544 178.806C354.564 179.096 355.034 180.356 354.614 180.986Z" fill="#070D30"/>
<path d="M347.704 182.196L346.844 176.856" stroke="#D6E9F4" stroke-width="2.0854" stroke-miterlimit="10" stroke-linecap="round" stroke-linejoin="round"/>
<path d="M352.882 179.016L351.602 173.756" stroke="#D6E9F4" stroke-width="2.0854" stroke-miterlimit="10" stroke-linecap="round" stroke-linejoin="round"/>
<path d="M354.384 147.257C352.274 147.227 347.724 148.177 345.324 148.507C344.444 150.167 344.124 151.947 344.514 153.677C343.754 157.777 343.814 160.387 343.774 164.887C343.744 169.387 344.454 175.387 345.374 180.087C345.544 180.967 346.004 181.177 346.724 181.197C347.014 181.207 347.464 181.137 347.724 181.067C348.384 180.887 348.894 180.507 348.724 179.677C347.784 175.137 346.944 169.217 347.104 164.917C347.264 160.617 347.464 158.437 348.364 154.617C348.934 154.477 349.494 154.297 350.084 154.037C349.584 157.287 349.704 158.707 349.574 162.417C349.444 166.127 349.444 173.287 350.414 177.347C350.634 178.287 351.154 178.647 351.994 178.727C352.134 178.737 352.334 178.727 352.454 178.697C353.654 178.297 353.824 177.327 353.654 176.387C352.894 172.247 352.674 166.567 352.874 162.567C353.104 158.577 356.344 147.287 354.384 147.257Z" fill="#1A1885"/>
<path d="M355.901 147.617C355.921 148.497 355.491 149.327 354.751 149.817C353.031 150.977 350.171 152.487 348.591 152.707C344.771 153.247 344.461 150.747 344.461 150.747C344.461 150.747 344.571 135.777 345.111 132.677C345.401 131.027 346.681 130.187 348.031 129.297C348.201 129.187 348.361 129.077 348.521 128.987C349.541 128.357 350.701 127.977 351.901 127.987C352.221 127.987 352.511 128.017 352.781 128.067C354.131 128.317 354.721 129.127 355.161 129.787C355.441 130.197 355.601 130.677 355.611 131.177L355.901 147.617Z" fill="#FF5A72"/>
<path d="M345.422 121.307C344.552 123.787 345.322 126.627 347.242 127.297C347.522 127.397 347.812 127.447 348.112 127.437C349.482 127.437 350.912 126.437 351.822 124.967C352.052 124.587 352.252 124.177 352.402 123.737C352.422 123.677 352.442 123.617 352.462 123.557C352.502 123.427 352.542 123.297 352.572 123.167C352.952 121.607 352.612 120.187 351.772 119.247C351.502 118.947 351.182 118.697 350.822 118.507C350.682 118.437 350.532 118.367 350.382 118.317C348.892 117.797 347.262 118.377 346.202 119.817C345.882 120.247 345.622 120.737 345.422 121.307Z" fill="#FAB08B"/>
<path d="M352.781 119.647C351.241 115.307 347.151 117.197 346.121 119.277C345.921 119.677 346.101 119.997 346.501 120.207C346.601 120.627 346.791 121.127 347.141 121.317C347.811 121.687 346.301 122.617 346.721 123.037C347.141 123.457 347.651 122.567 348.181 123.037C348.881 123.657 347.261 124.617 348.081 125.037C348.901 125.467 349.531 127.347 351.451 126.937C353.371 126.527 353.911 124.067 354.091 122.537C354.281 121.017 353.361 119.987 352.781 119.647Z" fill="#070D30"/>
<path d="M346.732 123.517C346.492 124.117 346.652 124.817 347.112 124.997C347.572 125.187 348.172 124.787 348.412 124.187C348.652 123.597 348.442 123.027 347.982 122.847C347.522 122.667 346.972 122.927 346.732 123.517Z" fill="#FAB08B"/>
<path d="M341.944 151.726C341.514 151.406 341.374 150.816 341.624 150.336L342.604 148.456C343.014 147.676 344.024 147.446 344.734 147.966C345.444 148.496 345.514 149.536 344.874 150.146L343.354 151.626C342.984 152.006 342.374 152.046 341.944 151.726Z" fill="#FAB08B"/>
<path d="M347.123 131.997C347.123 131.997 341.993 134.387 340.623 137.837C339.423 140.887 340.493 143.147 343.123 147.507" stroke="white" stroke-width="2.9816" stroke-miterlimit="10" stroke-linecap="round" stroke-linejoin="round"/>
<path d="M87.3342 164.376L91.6042 161.896L91.5942 166.876L87.3242 169.356L87.3342 164.376Z" fill="#070D30"/>
<path d="M83.0039 161.866L87.2739 159.386L91.6039 161.896L87.3339 164.376L83.0039 161.866Z" fill="#1A1885"/>
<path d="M87.3344 164.376L87.3244 169.356L82.9844 166.856L83.0044 161.866L87.3344 164.376Z" fill="#111057"/>
<path d="M97.0842 170.596L101.354 168.116L101.344 173.096L97.0742 175.576L97.0842 170.596Z" fill="#070D30"/>
<path d="M92.7539 168.096L97.0239 165.616L101.354 168.116L97.0839 170.596L92.7539 168.096Z" fill="#1A1885"/>
<path d="M97.0844 170.596L97.0744 175.576L92.7344 173.076L92.7544 168.096L97.0844 170.596Z" fill="#111057"/>
<path d="M107.662 176.367L111.932 173.887L111.922 178.867L107.652 181.347L107.662 176.367Z" fill="#070D30"/>
<path d="M103.332 173.866L107.602 171.376L111.932 173.886L107.662 176.366L103.332 173.866Z" fill="#1A1885"/>
<path d="M107.663 176.366L107.652 181.346L103.312 178.846L103.333 173.866L107.663 176.366Z" fill="#111057"/>
<path d="M324.955 184.027L296.965 200.287C295.515 201.127 293.165 201.127 291.715 200.287L280.985 194.097C280.255 193.677 279.885 193.117 279.885 192.567L279.875 196.427C279.875 196.977 280.245 197.537 280.975 197.957L291.705 204.147C293.165 204.987 295.515 204.987 296.965 204.147L324.955 187.887C325.675 187.467 326.035 186.927 326.035 186.377L326.045 182.517C326.025 183.067 325.665 183.607 324.955 184.027Z" fill="url(#paint39_linear_4866_184)"/>
<path d="M324.934 180.986C326.394 181.826 326.394 183.196 324.954 184.026L296.964 200.287C295.514 201.127 293.164 201.127 291.714 200.287L280.984 194.097C279.524 193.257 279.524 191.896 280.964 191.056L308.954 174.797C310.394 173.957 312.754 173.957 314.204 174.797L324.934 180.986Z" fill="url(#paint40_linear_4866_184)"/>
<path d="M293.443 195.456C293.003 195.206 293.003 194.796 293.443 194.546C293.873 194.296 294.583 194.296 295.023 194.546C295.453 194.796 295.453 195.206 295.023 195.456C294.583 195.706 293.873 195.706 293.443 195.456Z" fill="#1A1885"/>
<path d="M298.354 192.617C297.924 192.367 297.924 191.957 298.354 191.707C298.794 191.457 299.494 191.457 299.934 191.707C300.364 191.957 300.364 192.367 299.934 192.617C299.494 192.877 298.784 192.877 298.354 192.617Z" fill="#FFB06D"/>
<path d="M303.264 189.786C302.834 189.536 302.834 189.126 303.264 188.876C303.704 188.626 304.404 188.626 304.844 188.876C305.284 189.126 305.284 189.536 304.844 189.786C304.404 190.036 303.694 190.036 303.264 189.786Z" fill="#1A1885"/>
<path d="M308.162 186.956C307.732 186.706 307.732 186.296 308.162 186.046C308.592 185.796 309.302 185.796 309.742 186.046C310.172 186.296 310.172 186.706 309.742 186.956C309.302 187.206 308.602 187.206 308.162 186.956Z" fill="#FF5A72"/>
<path d="M237.786 111.927L245.456 107.477L245.426 127.237L237.766 131.687L237.786 111.927Z" fill="#3A45C1"/>
<path d="M230.004 107.437L237.674 102.977L245.454 107.477L237.784 111.927L230.004 107.437Z" fill="#FF55E2"/>
<path d="M237.784 111.927L237.764 131.687L229.984 127.197L230.004 107.437L237.784 111.927Z" fill="#A2A5F4"/>
<path d="M189.695 273.617C189.695 273.617 194.455 276.687 198.105 275.997C201.325 275.387 202.665 273.277 204.945 268.727" stroke="white" stroke-width="2.9816" stroke-miterlimit="10" stroke-linecap="round" stroke-linejoin="round"/>
<path d="M206.007 263.956C206.527 264.086 206.877 264.576 206.837 265.116L206.657 267.236C206.577 268.116 205.737 268.726 204.877 268.506C204.017 268.296 203.557 267.356 203.907 266.546L204.737 264.596C204.937 264.096 205.487 263.826 206.007 263.956Z" fill="#FAB08B"/>
<path d="M182.875 325.366C182.875 325.366 182.395 326.706 182.845 327.236C183.525 328.026 186.235 330.956 188.215 331.416C190.195 331.876 189.995 330.436 189.225 329.546C187.075 327.036 186.185 326.256 185.405 325.396C184.665 324.586 183.275 324.716 182.875 325.366Z" fill="#070D30"/>
<path d="M184.375 325.616L184.605 320.216" stroke="#D6E9F4" stroke-width="2.1297" stroke-miterlimit="10" stroke-linecap="round" stroke-linejoin="round"/>
<path d="M189.413 323.466C189.413 323.466 188.903 324.906 189.503 325.126C190.403 325.446 194.053 326.186 196.153 326.106C198.013 326.036 197.123 324.516 196.113 324.156C193.263 323.126 192.203 322.906 191.183 322.576C190.243 322.256 189.443 322.756 189.413 323.466Z" fill="#070D30"/>
<path d="M190.594 322.476L190.784 317.076" stroke="#D6E9F4" stroke-width="2.1297" stroke-miterlimit="10" stroke-linecap="round" stroke-linejoin="round"/>
<path d="M192.484 295.356C192.594 295.186 192.654 295.026 192.664 294.866C192.754 293.436 193.144 290.566 192.174 290.276C191.204 289.986 182.464 292.856 182.464 292.856C182.464 292.856 181.314 296.106 182.714 298.136L183.504 309.306L182.754 323.786C182.714 324.456 183.234 325.036 183.914 325.066L184.974 325.126C185.644 325.156 186.224 324.646 186.254 323.966L187.014 309.276V298.656C187.514 298.416 188.104 298.136 188.704 297.846L189.744 306.516L189.004 320.726C188.964 321.546 189.594 322.246 190.414 322.286L190.944 322.316C191.764 322.356 192.464 321.726 192.504 320.906L193.254 306.476L192.484 295.356Z" fill="#1A1885"/>
<path d="M192.815 291.027C192.835 291.907 192.405 292.737 191.665 293.227C189.945 294.387 187.085 295.897 185.505 296.117C181.685 296.657 181.375 294.157 181.375 294.157C181.375 294.157 181.485 279.187 182.025 276.087C182.315 274.437 183.595 273.597 184.945 272.707C185.115 272.597 185.275 272.487 185.435 272.397C186.455 271.767 187.625 271.387 188.815 271.397C189.135 271.397 189.425 271.427 189.695 271.477C191.045 271.727 191.635 272.547 192.085 273.197C192.365 273.607 192.525 274.087 192.535 274.587L192.815 291.027Z" fill="#FF5A72"/>
<path d="M185.516 271.767C185.516 271.767 185.516 271.407 187.216 271.227L187.346 272.937L185.646 272.717L185.516 271.767Z" fill="#98E1ED"/>
<path d="M187.344 269.126V271.986" stroke="#FAB08B" stroke-width="2.9816" stroke-miterlimit="10" stroke-linecap="round" stroke-linejoin="round"/>
<path d="M185.515 271.766L185.355 273.276C185.355 273.276 186.025 274.766 186.395 275.296L187.935 273.136C187.935 273.136 187.055 272.996 185.515 271.766Z" fill="white"/>
<path d="M188.884 272.186C188.884 272.186 188.544 272.936 187.824 273.136L189.634 274.176C189.634 274.176 189.574 272.316 189.324 271.636C189.324 271.636 189.114 271.406 188.884 272.186Z" fill="white"/>
<path d="M235.014 306.936L245.154 301.046L245.124 312.876L234.984 318.776L235.014 306.936Z" fill="url(#paint41_linear_4866_184)"/>
<path d="M224.723 300.996L234.863 295.106L245.153 301.046L235.013 306.936L224.723 300.996Z" fill="url(#paint42_linear_4866_184)"/>
<path d="M235.014 306.937L234.984 318.777L224.684 312.827L224.724 300.997L235.014 306.937Z" fill="url(#paint43_linear_4866_184)"/>
<path d="M207.312 322.987L229.853 309.887" stroke="#FF5A72" stroke-width="2" stroke-miterlimit="10" stroke-linecap="round" stroke-linejoin="round"/>
<path d="M202.224 326.107L212.364 320.217L212.324 332.047L202.184 337.937L202.224 326.107Z" fill="url(#paint44_linear_4866_184)"/>
<path d="M191.926 320.167L202.076 314.267L212.366 320.217L202.226 326.107L191.926 320.167Z" fill="url(#paint45_linear_4866_184)"/>
<path d="M202.225 326.107L202.185 337.937L191.895 331.997L191.925 320.167L202.225 326.107Z" fill="url(#paint46_linear_4866_184)"/>
<path d="M202.613 320.216V290.026" stroke="#FF5A72" stroke-width="2" stroke-miterlimit="10" stroke-linecap="round" stroke-linejoin="round"/>
<path d="M202.704 280.006L212.844 274.106L212.814 285.936L202.664 291.836L202.704 280.006Z" fill="url(#paint47_linear_4866_184)"/>
<path d="M192.414 274.057L202.554 268.167L212.844 274.107L202.704 280.007L192.414 274.057Z" fill="url(#paint48_linear_4866_184)"/>
<path d="M202.705 280.007L202.665 291.837L192.375 285.887L192.415 274.057L202.705 280.007Z" fill="url(#paint49_linear_4866_184)"/>
<path d="M202.653 270.927L206.913 268.437L206.903 273.427L202.633 275.907L202.653 270.927Z" fill="#070D30"/>
<path d="M198.316 268.417L202.586 265.937L206.916 268.437L202.656 270.927L198.316 268.417Z" fill="#1A1885"/>
<path d="M202.655 270.927L202.635 275.907L198.305 273.397L198.315 268.417L202.655 270.927Z" fill="#111057"/>
<path d="M191.652 265.327C192.512 267.807 191.732 270.647 189.812 271.317C189.532 271.417 189.242 271.457 188.942 271.457C187.572 271.457 186.142 270.447 185.242 268.977C185.012 268.597 184.812 268.187 184.662 267.747C184.642 267.687 184.622 267.627 184.602 267.567C184.562 267.437 184.522 267.307 184.492 267.177C184.122 265.617 184.462 264.197 185.302 263.257C185.572 262.957 185.892 262.707 186.252 262.517C186.392 262.447 186.542 262.387 186.692 262.327C188.182 261.817 189.812 262.407 190.872 263.847C191.192 264.267 191.452 264.767 191.652 265.327Z" fill="#FAB08B"/>
<path d="M190.954 263.306C189.934 261.216 185.854 259.326 184.294 263.656C184.294 263.656 181.954 265.886 184.664 267.746C184.664 267.746 185.314 269.196 185.964 268.466C186.614 267.736 185.334 265.976 185.344 265.526C185.344 265.346 185.474 265.046 185.744 264.776C186.024 265.016 186.504 265.266 187.354 265.356C188.354 265.456 188.464 264.906 188.334 264.366C190.074 264.706 191.374 264.176 190.954 263.306Z" fill="#070D30"/>
<path d="M185.333 267.587C185.783 268.037 185.923 268.747 185.573 269.097C185.223 269.447 184.513 269.317 184.063 268.867C183.613 268.417 183.583 267.817 183.933 267.457C184.283 267.107 184.883 267.137 185.333 267.587Z" fill="#FAB08B"/>
<path d="M183.115 277.046C183.115 277.046 182.655 282.696 184.985 285.586C187.035 288.136 189.535 288.326 194.625 288.196" stroke="white" stroke-width="2.9816" stroke-miterlimit="10" stroke-linecap="round" stroke-linejoin="round"/>
<path d="M199.323 286.877C199.453 287.397 199.183 287.937 198.693 288.157L196.743 288.997C195.933 289.347 195.003 288.887 194.783 288.027C194.563 287.167 195.173 286.317 196.053 286.247L198.163 286.057C198.693 286.007 199.183 286.357 199.323 286.877Z" fill="#FAB08B"/>
<defs>
<linearGradient id="paint0_linear_4866_184" x1="4.09135" y1="250.587" x2="132.175" y2="250.587" gradientUnits="userSpaceOnUse">
<stop stop-color="#B5E9FE"/>
<stop offset="0.3365" stop-color="#A2A5F4"/>
<stop offset="0.7813" stop-color="#9742C7"/>
<stop offset="1" stop-color="#AE5BDD"/>
</linearGradient>
<linearGradient id="paint1_linear_4866_184" x1="4.09135" y1="234.427" x2="132.175" y2="234.427" gradientUnits="userSpaceOnUse">
<stop stop-color="#B5E9FE"/>
<stop offset="0.3365" stop-color="#A2A5F4"/>
<stop offset="0.7813" stop-color="#9742C7"/>
<stop offset="1" stop-color="#AE5BDD"/>
</linearGradient>
<linearGradient id="paint2_linear_4866_184" x1="4.09135" y1="218.277" x2="132.175" y2="218.277" gradientUnits="userSpaceOnUse">
<stop stop-color="#B5E9FE"/>
<stop offset="0.3365" stop-color="#A2A5F4"/>
<stop offset="0.7813" stop-color="#9742C7"/>
<stop offset="1" stop-color="#AE5BDD"/>
</linearGradient>
<linearGradient id="paint3_linear_4866_184" x1="4.09135" y1="202.116" x2="132.175" y2="202.116" gradientUnits="userSpaceOnUse">
<stop stop-color="#B5E9FE"/>
<stop offset="0.3365" stop-color="#A2A5F4"/>
<stop offset="0.7813" stop-color="#9742C7"/>
<stop offset="1" stop-color="#AE5BDD"/>
</linearGradient>
<linearGradient id="paint4_linear_4866_184" x1="137.56" y1="333.117" x2="265.634" y2="333.117" gradientUnits="userSpaceOnUse">
<stop stop-color="#B5E9FE"/>
<stop offset="0.3365" stop-color="#A2A5F4"/>
<stop offset="0.7813" stop-color="#9742C7"/>
<stop offset="1" stop-color="#AE5BDD"/>
</linearGradient>
<linearGradient id="paint5_linear_4866_184" x1="269.47" y1="249.357" x2="397.554" y2="249.357" gradientUnits="userSpaceOnUse">
<stop stop-color="#B5E9FE"/>
<stop offset="0.3365" stop-color="#A2A5F4"/>
<stop offset="0.7813" stop-color="#9742C7"/>
<stop offset="1" stop-color="#AE5BDD"/>
</linearGradient>
<linearGradient id="paint6_linear_4866_184" x1="269.47" y1="233.197" x2="397.554" y2="233.197" gradientUnits="userSpaceOnUse">
<stop stop-color="#B5E9FE"/>
<stop offset="0.3365" stop-color="#A2A5F4"/>
<stop offset="0.7813" stop-color="#9742C7"/>
<stop offset="1" stop-color="#AE5BDD"/>
</linearGradient>
<linearGradient id="paint7_linear_4866_184" x1="269.47" y1="217.042" x2="397.554" y2="217.042" gradientUnits="userSpaceOnUse">
<stop stop-color="#66D2FE"/>
<stop offset="0.3365" stop-color="#52A7DE"/>
<stop offset="0.7813" stop-color="#3974B7"/>
<stop offset="1" stop-color="#3060A8"/>
</linearGradient>
<linearGradient id="paint8_linear_4866_184" x1="269.47" y1="217.047" x2="397.554" y2="217.047" gradientUnits="userSpaceOnUse">
<stop stop-color="#B5E9FE"/>
<stop offset="0.3365" stop-color="#A2A5F4"/>
<stop offset="0.7813" stop-color="#9742C7"/>
<stop offset="1" stop-color="#AE5BDD"/>
</linearGradient>
<linearGradient id="paint9_linear_4866_184" x1="320.789" y1="195.5" x2="346.25" y2="195.5" gradientUnits="userSpaceOnUse">
<stop stop-color="#FF5A72"/>
<stop offset="0.1515" stop-color="#FF6971"/>
<stop offset="0.7206" stop-color="#FF9C6E"/>
<stop offset="1" stop-color="#FFB06D"/>
</linearGradient>
<linearGradient id="paint10_linear_4866_184" x1="137.56" y1="171.967" x2="265.634" y2="171.967" gradientUnits="userSpaceOnUse">
<stop stop-color="#B5E9FE"/>
<stop offset="0.3365" stop-color="#A2A5F4"/>
<stop offset="0.7813" stop-color="#9742C7"/>
<stop offset="1" stop-color="#AE5BDD"/>
</linearGradient>
<linearGradient id="paint11_linear_4866_184" x1="137.56" y1="155.817" x2="265.634" y2="155.817" gradientUnits="userSpaceOnUse">
<stop stop-color="#B5E9FE"/>
<stop offset="0.3365" stop-color="#A2A5F4"/>
<stop offset="0.7813" stop-color="#9742C7"/>
<stop offset="1" stop-color="#AE5BDD"/>
</linearGradient>
<linearGradient id="paint12_linear_4866_184" x1="149.265" y1="182.364" x2="228.762" y2="248.361" gradientUnits="userSpaceOnUse">
<stop stop-color="#FFE62A"/>
<stop offset="1" stop-color="#F4617E"/>
</linearGradient>
<linearGradient id="paint13_linear_4866_184" x1="146.969" y1="185.131" x2="226.464" y2="251.127" gradientUnits="userSpaceOnUse">
<stop stop-color="#FFE62A"/>
<stop offset="1" stop-color="#F4617E"/>
</linearGradient>
<linearGradient id="paint14_linear_4866_184" x1="181.079" y1="174.583" x2="222.12" y2="174.583" gradientUnits="userSpaceOnUse">
<stop stop-color="#FF5A72"/>
<stop offset="0.1515" stop-color="#FF6971"/>
<stop offset="0.7206" stop-color="#FF9C6E"/>
<stop offset="1" stop-color="#FFB06D"/>
</linearGradient>
<linearGradient id="paint15_linear_4866_184" x1="181.31" y1="128.369" x2="222.123" y2="128.369" gradientUnits="userSpaceOnUse">
<stop stop-color="#FF5A72"/>
<stop offset="0.1515" stop-color="#FF6971"/>
<stop offset="0.7206" stop-color="#FF9C6E"/>
<stop offset="1" stop-color="#FFB06D"/>
</linearGradient>
<linearGradient id="paint16_linear_4866_184" x1="181.31" y1="119.305" x2="222.123" y2="119.305" gradientUnits="userSpaceOnUse">
<stop stop-color="#FF5A72"/>
<stop offset="0.1515" stop-color="#FF6971"/>
<stop offset="0.7206" stop-color="#FF9C6E"/>
<stop offset="1" stop-color="#FFB06D"/>
</linearGradient>
<linearGradient id="paint17_linear_4866_184" x1="181.31" y1="11.8209" x2="222.123" y2="11.8209" gradientUnits="userSpaceOnUse">
<stop stop-color="#FF5A72"/>
<stop offset="0.1515" stop-color="#FF6971"/>
<stop offset="0.7206" stop-color="#FF9C6E"/>
<stop offset="1" stop-color="#FFB06D"/>
</linearGradient>
<linearGradient id="paint18_linear_4866_184" x1="192.175" y1="33.8936" x2="211.259" y2="33.8936" gradientUnits="userSpaceOnUse">
<stop stop-color="#FF5A72"/>
<stop offset="0.1515" stop-color="#FF6971"/>
<stop offset="0.7206" stop-color="#FF9C6E"/>
<stop offset="1" stop-color="#FFB06D"/>
</linearGradient>
<linearGradient id="paint19_linear_4866_184" x1="143.873" y1="67.1339" x2="236.372" y2="123.133" gradientUnits="userSpaceOnUse">
<stop stop-color="#FFE62A"/>
<stop offset="1" stop-color="#F42C53"/>
</linearGradient>
<linearGradient id="paint20_linear_4866_184" x1="146.432" y1="62.9028" x2="238.934" y2="118.904" gradientUnits="userSpaceOnUse">
<stop stop-color="#FFE62A"/>
<stop offset="1" stop-color="#F4617E"/>
</linearGradient>
<linearGradient id="paint21_linear_4866_184" x1="141.141" y1="71.6405" x2="233.644" y2="127.642" gradientUnits="userSpaceOnUse">
<stop stop-color="#FFB82A"/>
<stop offset="1" stop-color="#F4617E"/>
</linearGradient>
<linearGradient id="paint22_linear_4866_184" x1="226.252" y1="11.7766" x2="367.134" y2="97.0673" gradientUnits="userSpaceOnUse">
<stop stop-color="#FFBC2A"/>
<stop offset="1" stop-color="#F4617E"/>
</linearGradient>
<linearGradient id="paint23_linear_4866_184" x1="244.455" y1="11.0985" x2="336.953" y2="67.0968" gradientUnits="userSpaceOnUse">
<stop stop-color="#FFE62A"/>
<stop offset="1" stop-color="#F4617E"/>
</linearGradient>
<linearGradient id="paint24_linear_4866_184" x1="231.522" y1="21.1284" x2="355.556" y2="96.2191" gradientUnits="userSpaceOnUse">
<stop stop-color="#FFD12A"/>
<stop offset="1" stop-color="#F4617E"/>
</linearGradient>
<linearGradient id="paint25_linear_4866_184" x1="176.368" y1="26.512" x2="268.866" y2="82.511" gradientUnits="userSpaceOnUse">
<stop stop-color="#FFE62A"/>
<stop offset="1" stop-color="#F42C53"/>
</linearGradient>
<linearGradient id="paint26_linear_4866_184" x1="178.925" y1="22.2787" x2="271.433" y2="78.2832" gradientUnits="userSpaceOnUse">
<stop stop-color="#FFE62A"/>
<stop offset="1" stop-color="#F4617E"/>
</linearGradient>
<linearGradient id="paint27_linear_4866_184" x1="173.636" y1="31.018" x2="266.138" y2="87.0195" gradientUnits="userSpaceOnUse">
<stop stop-color="#FFB82A"/>
<stop offset="1" stop-color="#F4617E"/>
</linearGradient>
<linearGradient id="paint28_linear_4866_184" x1="176.835" y1="63.9624" x2="269.341" y2="119.966" gradientUnits="userSpaceOnUse">
<stop stop-color="#FFBC2A"/>
<stop offset="1" stop-color="#F4617E"/>
</linearGradient>
<linearGradient id="paint29_linear_4866_184" x1="179.4" y1="59.7329" x2="271.903" y2="115.734" gradientUnits="userSpaceOnUse">
<stop stop-color="#FFE62A"/>
<stop offset="1" stop-color="#F4617E"/>
</linearGradient>
<linearGradient id="paint30_linear_4866_184" x1="174.109" y1="68.4713" x2="266.611" y2="124.473" gradientUnits="userSpaceOnUse">
<stop stop-color="#FFD12A"/>
<stop offset="1" stop-color="#F4617E"/>
</linearGradient>
<linearGradient id="paint31_linear_4866_184" x1="163.8" y1="32.8049" x2="256.298" y2="88.8039" gradientUnits="userSpaceOnUse">
<stop stop-color="#FFAD2A"/>
<stop offset="1" stop-color="#F4617E"/>
</linearGradient>
<linearGradient id="paint32_linear_4866_184" x1="166.362" y1="28.5731" x2="258.865" y2="84.5746" gradientUnits="userSpaceOnUse">
<stop stop-color="#FFE62A"/>
<stop offset="1" stop-color="#F4617E"/>
</linearGradient>
<linearGradient id="paint33_linear_4866_184" x1="161.072" y1="37.3129" x2="253.569" y2="93.3114" gradientUnits="userSpaceOnUse">
<stop stop-color="#FFCD2A"/>
<stop offset="1" stop-color="#F4617E"/>
</linearGradient>
<linearGradient id="paint34_linear_4866_184" x1="256.079" y1="114.26" x2="391.297" y2="172.557" gradientUnits="userSpaceOnUse">
<stop stop-color="white"/>
<stop offset="0.2266" stop-color="#CAD6E9"/>
<stop offset="0.603" stop-color="#7897C6"/>
<stop offset="0.8698" stop-color="#446FB0"/>
<stop offset="1" stop-color="#3060A8"/>
</linearGradient>
<linearGradient id="paint35_linear_4866_184" x1="263.969" y1="123.982" x2="325.417" y2="123.982" gradientUnits="userSpaceOnUse">
<stop stop-color="#FFE62A"/>
<stop offset="1" stop-color="#F42C53"/>
</linearGradient>
<linearGradient id="paint36_linear_4866_184" x1="56.2544" y1="87.5054" x2="202.254" y2="181.505" gradientUnits="userSpaceOnUse">
<stop stop-color="white"/>
<stop offset="0.2266" stop-color="#CAD6E9"/>
<stop offset="0.603" stop-color="#7897C6"/>
<stop offset="0.8698" stop-color="#446FB0"/>
<stop offset="1" stop-color="#3060A8"/>
</linearGradient>
<linearGradient id="paint37_linear_4866_184" x1="76.232" y1="125.207" x2="136.333" y2="125.207" gradientUnits="userSpaceOnUse">
<stop stop-color="#FF5A72"/>
<stop offset="0.2266" stop-color="#CA5C80"/>
<stop offset="0.603" stop-color="#785E95"/>
<stop offset="0.8698" stop-color="#445FA3"/>
<stop offset="1" stop-color="#3060A8"/>
</linearGradient>
<linearGradient id="paint38_linear_4866_184" x1="76.2321" y1="112.136" x2="136.333" y2="112.136" gradientUnits="userSpaceOnUse">
<stop stop-color="#02007D"/>
<stop offset="0.2291" stop-color="#0E1988"/>
<stop offset="0.7461" stop-color="#264C9F"/>
<stop offset="1" stop-color="#3060A8"/>
</linearGradient>
<linearGradient id="paint39_linear_4866_184" x1="279.874" y1="193.649" x2="326.042" y2="193.649" gradientUnits="userSpaceOnUse">
<stop stop-color="#B5E9FE"/>
<stop offset="0.3365" stop-color="#A2A5F4"/>
<stop offset="0.7813" stop-color="#9742C7"/>
<stop offset="1" stop-color="#AE5BDD"/>
</linearGradient>
<linearGradient id="paint40_linear_4866_184" x1="289.046" y1="178.73" x2="349.046" y2="216.73" gradientUnits="userSpaceOnUse">
<stop stop-color="white"/>
<stop offset="0.2266" stop-color="#CAD6E9"/>
<stop offset="0.603" stop-color="#7897C6"/>
<stop offset="0.8698" stop-color="#446FB0"/>
<stop offset="1" stop-color="#3060A8"/>
</linearGradient>
<linearGradient id="paint41_linear_4866_184" x1="210.165" y1="291.808" x2="302.664" y2="347.807" gradientUnits="userSpaceOnUse">
<stop stop-color="#FFBC2A"/>
<stop offset="1" stop-color="#F4617E"/>
</linearGradient>
<linearGradient id="paint42_linear_4866_184" x1="212.725" y1="287.578" x2="305.223" y2="343.576" gradientUnits="userSpaceOnUse">
<stop stop-color="#FFE62A"/>
<stop offset="1" stop-color="#F4617E"/>
</linearGradient>
<linearGradient id="paint43_linear_4866_184" x1="207.436" y1="296.316" x2="299.934" y2="352.315" gradientUnits="userSpaceOnUse">
<stop stop-color="#FFD12A"/>
<stop offset="1" stop-color="#F4617E"/>
</linearGradient>
<linearGradient id="paint44_linear_4866_184" x1="144.639" y1="291.155" x2="237.137" y2="347.154" gradientUnits="userSpaceOnUse">
<stop stop-color="#FFE62A"/>
<stop offset="1" stop-color="#F42C53"/>
</linearGradient>
<linearGradient id="paint45_linear_4866_184" x1="147.204" y1="286.926" x2="239.701" y2="342.924" gradientUnits="userSpaceOnUse">
<stop stop-color="#FFE62A"/>
<stop offset="1" stop-color="#F4617E"/>
</linearGradient>
<linearGradient id="paint46_linear_4866_184" x1="141.914" y1="295.666" x2="234.407" y2="351.661" gradientUnits="userSpaceOnUse">
<stop stop-color="#FFB82A"/>
<stop offset="1" stop-color="#F4617E"/>
</linearGradient>
<linearGradient id="paint47_linear_4866_184" x1="164.57" y1="256.827" x2="257.069" y2="312.826" gradientUnits="userSpaceOnUse">
<stop stop-color="#FFAD2A"/>
<stop offset="1" stop-color="#F4617E"/>
</linearGradient>
<linearGradient id="paint48_linear_4866_184" x1="167.13" y1="252.596" x2="259.628" y2="308.595" gradientUnits="userSpaceOnUse">
<stop stop-color="#FFE62A"/>
<stop offset="1" stop-color="#F4617E"/>
</linearGradient>
<linearGradient id="paint49_linear_4866_184" x1="161.839" y1="261.333" x2="254.342" y2="317.335" gradientUnits="userSpaceOnUse">
<stop stop-color="#FFB82A"/>
<stop offset="1" stop-color="#F4617E"/>
</linearGradient>
</defs>
</svg>
