<svg width="100" height="100" viewBox="0 0 100 100" fill="none" xmlns="http://www.w3.org/2000/svg">
<g id="library 1">
<path id="Vector" d="M14.0625 80.1875H85.9375C87.3872 80.1875 88.5625 81.3628 88.5625 82.8125V85.9375C88.5625 87.3872 87.3872 88.5625 85.9375 88.5625H14.0625C12.6128 88.5625 11.4375 87.3872 11.4375 85.9375V82.8125C11.4375 81.3628 12.6128 80.1875 14.0625 80.1875Z" fill="url(#paint0_linear_4866_685)" stroke="url(#paint1_linear_4866_685)"/>
<path id="Vector_2" d="M18.75 30.1875H28.125C28.8212 30.1875 29.4889 30.4641 29.9812 30.9563C30.4734 31.4486 30.75 32.1163 30.75 32.8125V79.1875H16.125V32.8125C16.125 32.1163 16.4016 31.4486 16.8938 30.9563C17.3861 30.4641 18.0538 30.1875 18.75 30.1875Z" fill="url(#paint2_linear_4866_685)" stroke="url(#paint3_linear_4866_685)"/>
<path id="Vector_3" d="M50 34.375H56.25C57.0788 34.375 57.8737 34.7042 58.4597 35.2903C59.0458 35.8763 59.375 36.6712 59.375 37.5V79.6875H46.875V37.5C46.875 36.6712 47.2042 35.8763 47.7903 35.2903C48.3763 34.7042 49.1712 34.375 50 34.375Z" fill="#8AD3FE"/>
<path id="Vector_4" d="M78.125 34.375H81.25C82.0788 34.375 82.8737 34.7042 83.4597 35.2903C84.0458 35.8763 84.375 36.6712 84.375 37.5V79.6875H75V37.5C75 36.6712 75.3292 35.8763 75.9153 35.2903C76.5013 34.7042 77.2962 34.375 78.125 34.375Z" fill="#FFB369"/>
<path id="Vector_5" d="M62.5 25H71.875C72.7038 25 73.4987 25.3292 74.0847 25.9153C74.6708 26.5013 75 27.2962 75 28.125V79.6875H59.375V28.125C59.375 27.2962 59.7042 26.5013 60.2903 25.9153C60.8763 25.3292 61.6712 25 62.5 25Z" fill="#5761D7"/>
<path id="Vector_6" d="M34.375 10.9375H35.9375C36.7663 10.9375 37.5612 11.2667 38.1472 11.8528C38.7333 12.4388 39.0625 13.2337 39.0625 14.0625V79.6875H31.25V14.0625C31.25 13.2337 31.5792 12.4388 32.1653 11.8528C32.7513 11.2667 33.5462 10.9375 34.375 10.9375Z" fill="#EB7F58"/>
<path id="Vector_7" d="M42.1875 14.0625H43.75C44.5788 14.0625 45.3737 14.3917 45.9597 14.9778C46.5458 15.5638 46.875 16.3587 46.875 17.1875V79.6875H39.0625V17.1875C39.0625 16.3587 39.3917 15.5638 39.9778 14.9778C40.5638 14.3917 41.3587 14.0625 42.1875 14.0625Z" fill="url(#paint4_linear_4866_685)"/>
<path id="Vector_8" d="M23.4375 62.5C26.0263 62.5 28.125 60.4013 28.125 57.8125C28.125 55.2237 26.0263 53.125 23.4375 53.125C20.8487 53.125 18.75 55.2237 18.75 57.8125C18.75 60.4013 20.8487 62.5 23.4375 62.5Z" fill="#D7E9F7"/>
<path id="Vector_9" d="M26.5625 68.75H20.3125C19.8981 68.75 19.5007 68.5854 19.2076 68.2924C18.9146 67.9993 18.75 67.6019 18.75 67.1875C18.75 66.7731 18.9146 66.3757 19.2076 66.0826C19.5007 65.7896 19.8981 65.625 20.3125 65.625H26.5625C26.9769 65.625 27.3743 65.7896 27.6674 66.0826C27.9604 66.3757 28.125 66.7731 28.125 67.1875C28.125 67.6019 27.9604 67.9993 27.6674 68.2924C27.3743 68.5854 26.9769 68.75 26.5625 68.75ZM26.5625 75H20.3125C19.8981 75 19.5007 74.8354 19.2076 74.5424C18.9146 74.2493 18.75 73.8519 18.75 73.4375C18.75 73.0231 18.9146 72.6257 19.2076 72.3326C19.5007 72.0396 19.8981 71.875 20.3125 71.875H26.5625C26.9769 71.875 27.3743 72.0396 27.6674 72.3326C27.9604 72.6257 28.125 73.0231 28.125 73.4375C28.125 73.8519 27.9604 74.2493 27.6674 74.5424C27.3743 74.8354 26.9769 75 26.5625 75Z" fill="#8AD3FE"/>
<path id="Vector_10" d="M31.25 59.375H39.0625V68.75H31.25V59.375Z" fill="#FFB369"/>
<path id="Vector_11" d="M67.1875 36.4375C68.6372 36.4375 69.8125 37.6128 69.8125 39.0625V67.1875C69.8125 68.6372 68.6372 69.8125 67.1875 69.8125C65.7378 69.8125 64.5625 68.6372 64.5625 67.1875V39.0625C64.5625 37.6128 65.7378 36.4375 67.1875 36.4375Z" fill="url(#paint5_linear_4866_685)" stroke="url(#paint6_linear_4866_685)"/>
<path id="Vector_12" d="M53.125 73.4375C52.7106 73.4375 52.3132 73.2729 52.0201 72.9799C51.7271 72.6868 51.5625 72.2894 51.5625 71.875V40.625C51.5625 40.2106 51.7271 39.8132 52.0201 39.5201C52.3132 39.2271 52.7106 39.0625 53.125 39.0625C53.5394 39.0625 53.9368 39.2271 54.2299 39.5201C54.5229 39.8132 54.6875 40.2106 54.6875 40.625V71.875C54.6875 72.2894 54.5229 72.6868 54.2299 72.9799C53.9368 73.2729 53.5394 73.4375 53.125 73.4375Z" fill="#D7E9F7"/>
</g>
<defs>
<linearGradient id="paint0_linear_4866_685" x1="10.9375" y1="79.6875" x2="75.927" y2="113.896" gradientUnits="userSpaceOnUse">
<stop stop-color="#464FF1"/>
<stop offset="1" stop-color="#891979"/>
</linearGradient>
<linearGradient id="paint1_linear_4866_685" x1="10.9375" y1="79.6875" x2="75.927" y2="113.896" gradientUnits="userSpaceOnUse">
<stop stop-color="#4550F2"/>
<stop offset="1" stop-color="#891877"/>
</linearGradient>
<linearGradient id="paint2_linear_4866_685" x1="15.625" y1="29.6875" x2="32.2177" y2="30.015" gradientUnits="userSpaceOnUse">
<stop stop-color="#464FF1"/>
<stop offset="1" stop-color="#891979"/>
</linearGradient>
<linearGradient id="paint3_linear_4866_685" x1="15.625" y1="29.6875" x2="32.2177" y2="30.015" gradientUnits="userSpaceOnUse">
<stop stop-color="#4550F2"/>
<stop offset="1" stop-color="#891877"/>
</linearGradient>
<linearGradient id="paint4_linear_4866_685" x1="42.9688" y1="-4.78966e-07" x2="42.9688" y2="14.0625" gradientUnits="userSpaceOnUse">
<stop stop-color="#54A5FF"/>
<stop offset="1" stop-color="#8AD3FE"/>
</linearGradient>
<linearGradient id="paint5_linear_4866_685" x1="64.0625" y1="35.9375" x2="70.7013" y2="36.0137" gradientUnits="userSpaceOnUse">
<stop stop-color="#464FF1"/>
<stop offset="1" stop-color="#891979"/>
</linearGradient>
<linearGradient id="paint6_linear_4866_685" x1="64.0625" y1="35.9375" x2="70.7013" y2="36.0137" gradientUnits="userSpaceOnUse">
<stop stop-color="#4550F2"/>
<stop offset="1" stop-color="#891877"/>
</linearGradient>
</defs>
</svg>
