<svg width="101" height="100" viewBox="0 0 101 100" fill="none" xmlns="http://www.w3.org/2000/svg">
<g id="administrator (1) 1">
<path id="Vector" d="M75.4992 93.8002L68.4992 97.8002C68.6992 97.6002 68.8992 97.2002 68.8992 96.8002L75.8992 92.8002C75.8992 93.2002 75.6992 93.6002 75.4992 93.8002ZM54.6992 74.2002L61.6992 70.2002C61.8992 70.0002 62.2992 70.0002 62.8992 70.4002L55.8992 74.4002C55.2992 74.0002 54.8992 74.0002 54.6992 74.2002Z" fill="#7B29A9"/>
<path id="Vector_2" d="M68.8984 83.6001L75.8984 79.6001V92.8001L68.8984 96.8001V83.6001Z" fill="#AE5BDD"/>
<path id="Vector_3" d="M55.8984 74.2002L62.8984 70.2002L74.2984 76.8002L67.2984 80.8002L55.8984 74.2002Z" fill="#AE5BDD"/>
<path id="Vector_4" d="M67.3008 80.7998L74.3008 76.7998C75.1008 77.3998 75.9008 78.5998 75.9008 79.5998L68.9008 83.5998C68.9008 82.5998 68.3008 81.3998 67.3008 80.7998Z" fill="#7B29A9"/>
<path id="Vector_5" d="M67.3016 80.8002C68.1016 81.4002 68.9016 82.6002 68.9016 83.6002V96.8002C68.9016 97.8002 68.1016 98.2002 67.3016 97.8002L55.7016 91.2002C54.9016 90.6002 54.1016 89.4002 54.1016 88.4002V75.2002C54.1016 74.2002 54.9016 73.8002 55.7016 74.2002L67.3016 80.8002Z" fill="#9C42AB"/>
<path id="Vector_6" d="M62.9008 86.5999L62.5008 86.1999L62.3008 85.7999V84.9999C62.5008 84.7999 62.9008 84.3999 62.9008 84.1999C63.3008 83.3999 63.9008 81.7999 62.7008 81.3999C62.9008 80.1999 61.3008 80.1999 60.5008 80.7999C59.9008 81.1999 59.9008 81.3999 59.5008 81.5999C59.1008 81.5999 59.5008 83.3999 59.5008 83.1999C59.3008 83.7999 59.5008 84.7999 60.1008 85.3999C57.7008 84.9999 58.5008 88.7999 58.3008 89.3999C58.5008 89.9999 58.9008 90.3999 59.3008 90.7999C60.5008 91.5999 62.3008 91.7999 64.5008 91.3999C64.3008 91.3999 65.1008 88.1999 62.9008 86.5999Z" fill="white"/>
<path id="Vector_7" d="M46.3 77.8L39.3 81.8C39.5 81.6 39.7 81.2 39.7 80.8L46.7 76.8C46.7 77.2 46.7 77.6 46.3 77.8ZM25.5 58L32.5 54C32.7 53.8 33.1 53.8 33.7 54.2L26.7 58.2C26.3 57.8 25.9 57.8 25.5 58Z" fill="#161F86"/>
<path id="Vector_8" d="M39.6992 67.5999L46.8992 63.3999L46.6992 76.5999L39.6992 80.7999V67.5999Z" fill="#323BA5"/>
<path id="Vector_9" d="M26.6992 58.2L33.6992 54L45.2992 60.6L38.0992 64.8L26.6992 58.2Z" fill="#323BA5"/>
<path id="Vector_10" d="M38.1016 64.7998L45.1016 60.7998C45.9016 61.3998 46.7016 62.5998 46.7016 63.5998L39.7016 67.5998C39.7016 66.5998 39.1016 65.1998 38.1016 64.7998Z" fill="#161F86"/>
<path id="Vector_11" d="M39.1984 67.6002V80.8002C39.1984 81.1628 39.0609 81.3266 38.9465 81.3933C38.8244 81.4645 38.6113 81.494 38.333 81.3584L26.7743 74.7819C26.4392 74.5245 26.0915 74.1334 25.8272 73.6929C25.5538 73.2372 25.3984 72.7772 25.3984 72.4002V59.2002C25.3984 58.8375 25.536 58.6738 25.6504 58.607C25.7714 58.5365 25.9818 58.5068 26.2565 58.6384C29.4096 60.583 31.9689 61.9406 33.9342 62.9832C34.887 63.4887 35.7001 63.92 36.3737 64.3083C37.4302 64.9174 38.136 65.4143 38.5806 65.9253C39.0037 66.4114 39.1984 66.9195 39.1984 67.6002Z" fill="url(#paint0_linear_4866_626)" stroke="url(#paint1_linear_4866_626)"/>
<path id="Vector_12" d="M34.3008 70.8001L33.9008 70.4001L33.7008 70.0001V69.2001C33.9008 69.0001 34.3008 68.6001 34.3008 68.4001C34.7008 67.6001 35.3008 65.8001 34.1008 65.6001C34.3008 64.4001 32.7008 64.4001 31.7008 65.0001C31.1008 65.4001 31.1008 65.6001 30.5008 65.8001C30.1008 65.8001 30.5008 67.6001 30.5008 67.6001C30.3008 68.4001 30.5008 69.4001 31.1008 69.8001C28.7008 69.4001 29.5008 73.4001 29.3008 74.0001C29.5008 74.6001 29.9008 75.0001 30.3008 75.4001C31.5008 76.2001 33.3008 76.4001 35.7008 76.0001C35.7008 75.8001 36.7008 72.4001 34.3008 70.8001Z" fill="white"/>
<path id="Vector_13" d="M36.1016 59.8001L39.3016 58.6001V59.2001L36.1016 61.2001V59.8001Z" fill="#2A2F35"/>
<path id="Vector_14" d="M36.1016 53.4001L39.3016 51.6001V58.6001L36.1016 59.8001V53.4001Z" fill="#2A2F35"/>
<path id="Vector_15" d="M34.3008 50.1999L37.5008 48.3999C37.7008 48.1999 37.9008 48.3999 38.3008 48.3999L35.1008 50.1999C34.9008 50.1999 34.5008 50.1999 34.3008 50.1999Z" fill="#5A6268"/>
<path id="Vector_16" d="M45.5 58.5998L48.7 56.7998L50.9 57.9998L47.7 59.7998L45.5 58.5998Z" fill="#3C4349"/>
<path id="Vector_17" d="M45.5 56.1999L48.7 54.3999V56.7999L45.5 58.5999V56.1999Z" fill="#3D4247"/>
<path id="Vector_18" d="M35.1016 50.3999L38.3016 48.3999L51.5016 55.7999L47.7016 57.3999L35.1016 50.3999Z" fill="#5761D7"/>
<path id="Vector_19" d="M47.6992 57.4001L50.8992 55.6001V58.0001L47.6992 59.8001V57.4001Z" fill="#3D4247"/>
<path id="Vector_20" d="M63.1934 66.9205C63.3118 66.9912 63.4216 67.0538 63.5265 67.1135C63.704 67.2146 63.8676 67.3078 64.0355 67.4195C64.2867 67.5865 64.4793 67.754 64.6115 67.9506C64.6276 67.9745 64.6418 67.9988 64.6544 68.0238C64.7562 68.2276 64.849 68.4134 64.917 68.5722C64.9507 68.6509 64.9743 68.7137 64.9889 68.7614C64.9976 68.7902 65.0006 68.8058 65.0016 68.8106V75.9472C65.0016 76.4027 64.5141 76.692 64.1143 76.474C63.9215 76.3688 63.8016 76.1668 63.8016 75.9472V72.7467C63.8016 70.2497 62.4698 67.9422 60.3078 66.693L47.7991 59.4658C48.1506 59.2647 48.4016 58.8888 48.4016 58.4274C48.4016 58.275 48.5677 58.1807 48.6985 58.2589L63.1934 66.9205ZM45.2016 57.7472C45.2016 57.8239 45.207 57.8997 45.2177 57.9743L42.0932 56.1691C39.2975 54.5537 35.8016 56.5713 35.8016 59.8002C35.8016 59.9614 35.629 60.0638 35.4875 59.9866L34.9143 59.674C34.7215 59.5688 34.6016 59.3668 34.6016 59.1472V50.8002C34.6016 50.7357 34.6105 50.6941 34.6179 50.6712C34.618 50.6711 34.618 50.671 34.6181 50.6708C34.6194 50.6668 34.6231 50.6552 34.6526 50.642C34.688 50.6261 34.7433 50.6182 34.8017 50.632L34.8038 50.6325C35.0403 50.6884 35.231 50.7334 35.3386 50.7933L44.4156 55.8555C44.9008 56.1262 45.2016 56.6382 45.2016 57.1938V57.7472Z" fill="url(#paint2_linear_4866_626)" stroke="url(#paint3_linear_4866_626)"/>
<path id="Vector_21" d="M65.3008 69L68.5008 67V76L65.3008 77.8V69Z" fill="#161F86"/>
<path id="Vector_22" d="M47.6992 57.4001L50.8992 55.6001L67.4992 65.2001L64.2992 67.0001L47.6992 57.4001Z" fill="#5761D7"/>
<path id="Vector_23" d="M64.3008 67.0002L67.5008 65.2002C67.7008 65.4002 68.1008 65.6002 68.3008 66.0002L65.1008 67.8002C64.9008 67.6002 64.5008 67.2002 64.3008 67.0002Z" fill="#3E4AD2"/>
<path id="Vector_24" d="M65.1016 67.8L68.3016 66C68.5016 66.4 68.7016 66.8 68.7016 67L65.5016 68.8C65.3016 68.6 65.3016 68.2 65.1016 67.8Z" fill="#3E4AD2"/>
<path id="Vector_25" d="M49.6992 47.6001L52.8992 45.6001L55.0992 46.8001L51.8992 48.8001L49.6992 47.6001Z" fill="#7E858B"/>
<path id="Vector_26" d="M51.8984 48.7998L55.0984 46.7998V57.9998L51.8984 59.7998V48.7998Z" fill="#4F565C"/>
<path id="Vector_27" d="M51.8992 48.8C51.8992 49 51.8992 63.2 51.8992 62.4L49.6992 61.2C49.6992 61 49.6992 46.8 49.6992 47.6L51.8992 48.8Z" fill="#3C4349"/>
<path id="Vector_28" d="M63.1017 30.4001C48.9017 22.8001 54.9017 27.8001 54.9017 27.8001C54.9017 27.8001 48.9017 24.2001 45.1017 27.2001C41.3017 30.2001 41.9017 46.0001 41.9017 46.0001C45.1017 55.4001 56.5017 57.8001 72.7017 56.0001C72.7017 55.8001 77.3017 38.0001 63.1017 30.4001Z" fill="#2B1659"/>
<path id="Vector_29" d="M61.4992 40.6002L46.6992 52.6002L46.8992 33.8002L50.6992 26.2002C52.4992 26.6002 53.8992 27.2002 54.8992 27.8002C49.4992 23.2002 62.6992 30.0002 65.2992 31.8002L65.6992 32.0002L61.4992 40.6002Z" fill="#EAEAEC"/>
<path id="Vector_30" d="M62.9 31.2002L54.3 32.0002C53.7 30.0002 53.7 26.2002 53.5 22.2002H62.7V31.2002H62.9Z" fill="#DD9A76"/>
<path id="Vector_31" d="M53.8991 26.7999L51.6991 26.3999C51.4991 29.5999 50.0991 33.7999 51.6991 32.9999L54.2991 31.9999C53.6991 29.5999 53.8991 26.7999 53.8991 26.7999Z" fill="white"/>
<path id="Vector_32" d="M51.8984 33L52.0984 35.6L46.8984 48.4V52.6L49.6984 51.2L53.4984 36.4L55.8984 34.6L54.2984 32L51.8984 33Z" fill="#FF5766"/>
<path id="Vector_33" d="M62.9 28.2002C62.9 28.2002 59.7 31.8002 54.5 32.0002C55.1 34.0002 54.7 37.4002 56.1 36.6002L64.5 31.2002L62.9 28.2002Z" fill="white"/>
<path id="Vector_34" d="M64.7 39.5999L61.7 40.5999L62.3 42.9999C57.1 48.1999 47.1 52.5999 47.1 52.5999C53.9 46.7999 61.5 38.5999 64.1 30.1999L65.9 31.9999L64.7 39.5999ZM51.7 26.5999C51.7 26.5999 48.3 31.1999 46.9 52.3999L45.5 35.9999L46.9 33.9999V30.9999C47.1 30.7999 50.9 25.9999 50.7 26.1999H50.9C51.1 26.3999 51.9 26.7999 51.7 26.5999Z" fill="#5761D7"/>
<path id="Vector_35" d="M59.8989 25.0001C59.8989 25.0001 65.2989 24.0001 67.0989 18.0001C69.0989 11.8001 66.4989 4.80012 58.4989 4.20012C50.4989 3.60012 48.0989 12.4001 48.4989 16.0001C49.0989 19.6001 59.8989 25.0001 59.8989 25.0001Z" fill="#2B1659"/>
<path id="Vector_36" d="M62.4997 17.2C63.4997 28.4 50.4997 33.2 48.4997 20.4C46.0997 6.19995 61.4997 6.59995 62.4997 17.2Z" fill="#F3AC7E"/>
<path id="Vector_37" d="M56.8984 27.6C57.0984 27.4 63.0984 26 65.2984 20.4C65.6984 19.2 64.2984 18.2 62.4984 19.8C59.6984 22.6 58.0984 26 56.8984 27.6Z" fill="#F3AC7E"/>
<path id="Vector_38" d="M59.2984 11.1999C59.2984 11.1999 56.8984 14.7999 58.8984 17.3999C60.2984 18.9999 60.8984 20.9999 60.6984 22.9999L62.4984 21.9999C62.4984 21.7999 63.8984 12.7999 63.8984 12.7999L60.0984 8.3999L54.8984 7.5999L59.2984 11.1999ZM64.6984 6.3999C64.6984 6.3999 70.2984 7.5999 68.0984 14.3999C66.4984 18.9999 66.2984 20.1999 66.2984 20.1999L64.6984 6.3999Z" fill="#2B1659"/>
<path id="Vector_39" d="M63.0994 2.79991C60.8994 1.79991 56.8995 1.59991 53.4994 3.59991C50.2994 5.59991 50.2994 6.79991 48.2994 7.19991C46.0994 7.59991 47.8994 15.9999 48.2994 15.3999C51.8994 10.9999 55.8995 15.1999 59.4994 11.7999L57.8995 9.59991L64.4995 6.79991C64.6995 6.59991 65.2994 3.79991 63.0994 2.79991Z" fill="#2B1659"/>
</g>
<defs>
<linearGradient id="paint0_linear_4866_626" x1="24.8984" y1="58.0469" x2="40.5972" y2="58.6608" gradientUnits="userSpaceOnUse">
<stop stop-color="#464FF1"/>
<stop offset="1" stop-color="#891979"/>
</linearGradient>
<linearGradient id="paint1_linear_4866_626" x1="24.8984" y1="58.0469" x2="40.5972" y2="58.6608" gradientUnits="userSpaceOnUse">
<stop stop-color="#4550F2"/>
<stop offset="1" stop-color="#891877"/>
</linearGradient>
<linearGradient id="paint2_linear_4866_626" x1="34.1016" y1="50.1113" x2="67.289" y2="52.4886" gradientUnits="userSpaceOnUse">
<stop stop-color="#464FF1"/>
<stop offset="1" stop-color="#891979"/>
</linearGradient>
<linearGradient id="paint3_linear_4866_626" x1="34.1016" y1="50.1113" x2="67.289" y2="52.4886" gradientUnits="userSpaceOnUse">
<stop stop-color="#4550F2"/>
<stop offset="1" stop-color="#891877"/>
</linearGradient>
</defs>
</svg>
