<svg width="70" height="69" viewBox="0 0 70 69" fill="none" xmlns="http://www.w3.org/2000/svg">
<path fill-rule="evenodd" clip-rule="evenodd" d="M35.332 69C54.3859 69 69.832 53.5538 69.832 34.5C69.832 15.4462 54.3859 0 35.332 0C16.2782 0 0.832031 15.4462 0.832031 34.5C0.832031 53.5538 16.2782 69 35.332 69Z" fill="#FEDC5A" fill-opacity="0.1"/>
<path d="M31.8314 35.3335C30.9514 35.7735 30.2181 36.4268 29.6714 37.2402C29.3647 37.7068 29.3647 38.2935 29.6714 38.7602C30.2181 39.5735 30.9514 40.2268 31.8314 40.6668" stroke="#FEDC5A" stroke-width="2" stroke-linecap="round" stroke-linejoin="round"/>
<path d="M40.1133 35.3335C40.9933 35.7735 41.7266 36.4268 42.2733 37.2402C42.5799 37.7068 42.5799 38.2935 42.2733 38.7602C41.7266 39.5735 40.9933 40.2268 40.1133 40.6668" stroke="#FEDC5A" stroke-width="2" stroke-linecap="round" stroke-linejoin="round"/>
<path d="M31.8333 47.3332H39.8333C46.5 47.3332 49.1667 44.6665 49.1667 37.9998V29.9998C49.1667 23.3332 46.5 20.6665 39.8333 20.6665H31.8333C25.1667 20.6665 22.5 23.3332 22.5 29.9998V37.9998C22.5 44.6665 25.1667 47.3332 31.8333 47.3332Z" stroke="#FEDC5A" stroke-width="2" stroke-linecap="round" stroke-linejoin="round"/>
<path d="M22.8047 28.6798L48.4314 28.6665" stroke="#FEDC5A" stroke-width="2" stroke-linecap="round" stroke-linejoin="round"/>
</svg>
