<svg width="100" height="100" viewBox="0 0 100 100" fill="none" xmlns="http://www.w3.org/2000/svg">
<g id="peer-to-peer-lending 1">
<path id="Vector" d="M51.6823 32.7647C59.2313 33.897 64.3198 41.6907 63.0469 50.173C62.9271 50.9709 62.7552 51.747 62.5354 52.497C62.2844 53.3553 61.9708 54.1803 61.6021 54.9647C61.3479 55.5032 61.0687 56.0241 60.7646 56.523C57.7958 61.4032 52.5396 64.2991 47.074 63.4793L43.4844 62.9407C48.95 63.7605 54.2063 60.8647 57.175 55.9845C57.4781 55.4845 57.7583 54.9647 58.0125 54.4251C58.3812 53.6418 58.6948 52.8168 58.9458 51.9584C59.1646 51.2084 59.3365 50.4324 59.4562 49.6334C60.7292 41.1522 55.6417 33.3584 48.0927 32.2251L51.6823 32.7647Z" fill="#FF871F"/>
<path id="Vector_2" d="M48.0938 32.225C55.6428 33.3583 60.7303 41.1521 59.4574 49.6333C59.3376 50.4323 59.1657 51.2083 58.947 51.9583C58.6959 52.8166 58.3824 53.6416 58.0136 54.425C57.7595 54.9645 57.4792 55.4843 57.1761 55.9843C54.2074 60.8645 48.9511 63.7604 43.4855 62.9406C35.9365 61.8073 30.848 54.0135 32.1209 45.5323C33.3938 37.05 40.5449 31.0927 48.0938 32.225Z" fill="#FFC45C"/>
<path id="Vector_3" d="M45.8142 47.0765C46.426 47.2958 46.9867 47.5265 47.4968 47.7689C48.0066 48.0117 48.45 48.297 48.8267 48.6257C49.203 48.9543 49.4935 49.3378 49.6973 49.7758C49.9013 50.2141 50.0036 50.7382 50.0036 51.3485C50.0036 52.0995 49.8624 52.7725 49.5801 53.367C49.2977 53.9619 48.9052 54.4702 48.4032 54.8927C47.9007 55.3152 47.2927 55.6401 46.5789 55.8668C45.8648 56.0935 45.0763 56.2072 44.2137 56.2072L43.931 57.8502H43.4605L43.7429 56.1837C42.8171 56.1243 41.9743 55.8979 41.2145 55.5056C40.4546 55.1127 39.8949 54.6268 39.5352 54.0476L39.9107 53.7425C40.2078 54.212 40.6973 54.6462 41.3788 55.0452C42.0603 55.4443 42.8799 55.6831 43.8371 55.7612L45.2964 47.4402C44.7628 47.2524 44.2643 47.0566 43.8015 46.8526C43.3387 46.6491 42.9345 46.4023 42.5893 46.1125C42.2439 45.8228 41.9732 45.47 41.7773 45.0548C41.5811 44.6396 41.4832 44.1343 41.4832 43.5387C41.4832 42.7865 41.6397 42.1282 41.9537 41.5641C42.2677 41 42.6795 40.5262 43.1896 40.1422C43.6994 39.7582 44.2683 39.4645 44.8961 39.2606C45.5236 39.057 46.1511 38.9396 46.779 38.9082L47.0614 37.2886H47.5319L47.2495 38.9082C48.3164 38.9397 49.2142 39.1428 49.943 39.5184C50.6717 39.8939 51.2006 40.3479 51.5292 40.8797L51.1537 41.2084C50.872 40.6766 50.3586 40.2423 49.614 39.9057C48.8695 39.5693 48.0498 39.3934 47.1557 39.3775L45.8141 47.0764L45.8142 47.0765ZM46.6706 39.3776C46.1541 39.4092 45.622 39.5108 45.0744 39.6827C44.5265 39.8551 44.0259 40.1093 43.5722 40.4456C43.1182 40.7822 42.7427 41.2008 42.4456 41.7013C42.1482 42.2023 41.9996 42.8045 41.9996 43.5087C41.9996 44.025 42.0778 44.4634 42.2343 44.8232C42.3906 45.1833 42.6177 45.4885 42.9151 45.7386C43.2121 45.9891 43.5683 46.2044 43.9831 46.3841C44.3976 46.5642 44.8553 46.7479 45.3562 46.9357L46.6706 39.3776ZM44.2998 55.7847C45.0509 55.7847 45.7434 55.6871 46.3771 55.4914C47.0109 55.2959 47.5585 55.0101 48.0202 54.6346C48.4815 54.2591 48.8417 53.8014 49.0998 53.2615C49.358 52.7216 49.4871 52.0996 49.4871 51.3954C49.4871 50.8637 49.3933 50.4019 49.2055 50.0106C49.0177 49.6196 48.7555 49.2792 48.4191 48.9895C48.0824 48.7001 47.6835 48.446 47.222 48.2267C46.7603 48.0077 46.2634 47.8042 45.7315 47.6164L44.2997 55.7847H44.2998Z" fill="black"/>
<path id="Vector_4" d="M28.6654 29.7005C34.4479 29.7005 39.1355 25.0128 39.1355 19.2304C39.1355 13.4479 34.4479 8.76025 28.6654 8.76025C22.8829 8.76025 18.1953 13.4479 18.1953 19.2304C18.1953 25.0128 22.8829 29.7005 28.6654 29.7005Z" fill="#5761D7"/>
<path id="Vector_5" d="M83.2204 49.9227C89.6696 49.9227 94.8978 44.6945 94.8978 38.2453C94.8978 31.796 89.6696 26.5679 83.2204 26.5679C76.7711 26.5679 71.543 31.796 71.543 38.2453C71.543 44.6945 76.7711 49.9227 83.2204 49.9227Z" fill="#00AAAB"/>
<path id="Vector_6" d="M15.2351 75.4287C20.8317 75.4287 25.3686 70.8918 25.3686 65.2952C25.3686 59.6986 20.8317 55.1616 15.2351 55.1616C9.6385 55.1616 5.10156 59.6986 5.10156 65.2952C5.10156 70.8918 9.6385 75.4287 15.2351 75.4287Z" fill="#FF8EC1"/>
<path id="Vector_7" d="M60.9006 91.2401C67.1171 91.2401 72.1566 86.2006 72.1566 79.9841C72.1566 73.7675 67.1171 68.728 60.9006 68.728C54.684 68.728 49.6445 73.7675 49.6445 79.9841C49.6445 86.2006 54.684 91.2401 60.9006 91.2401Z" fill="#A35CDD"/>
<path id="Vector_8" d="M18.0718 55.773C18.0524 55.773 18.0328 55.7703 18.0133 55.7646C17.9028 55.7324 17.8395 55.6167 17.8717 55.5063L25.5342 29.2251C25.5664 29.1146 25.6823 29.051 25.7925 29.0834C25.9029 29.1156 25.9664 29.2312 25.9342 29.3416L18.2717 55.6229C18.2452 55.7139 18.162 55.773 18.0718 55.773ZM50.1822 76.7449C50.161 76.7449 50.1396 76.7416 50.1183 76.7348L24.8215 68.5973C24.7119 68.5621 24.6517 68.4447 24.6869 68.3352C24.7221 68.2256 24.8395 68.1656 24.949 68.2006L50.2458 76.3381C50.3554 76.3733 50.4156 76.4907 50.3804 76.6002C50.3521 76.6885 50.2702 76.7448 50.1822 76.7448V76.7449ZM66.208 70.2647C66.1749 70.2647 66.1413 70.2567 66.11 70.24C66.0085 70.1857 65.9703 70.0595 66.0246 69.958L77.5298 48.4455C77.5841 48.3441 77.7102 48.3057 77.8118 48.3601C77.9132 48.4144 77.9515 48.5406 77.8972 48.6421L66.392 70.1546C66.3545 70.2247 66.2825 70.2647 66.208 70.2647ZM72.1925 34.6095C72.1698 34.6095 72.1467 34.6057 72.124 34.5978L38.4865 22.8738C38.3778 22.8359 38.3204 22.7172 38.3583 22.6085C38.3962 22.4999 38.5151 22.4426 38.6236 22.4804L72.2611 34.2044C72.3698 34.2423 72.4272 34.361 72.3893 34.4697C72.3593 34.5556 72.2786 34.6095 72.1925 34.6095ZM24.0396 60.4813C23.9672 60.4813 23.8969 60.4435 23.8584 60.3761C23.8015 60.2762 23.8362 60.1489 23.9362 60.092L33.2733 54.767C33.3732 54.71 33.5005 54.7448 33.5575 54.8448C33.6145 54.9447 33.5797 55.072 33.4797 55.1289L24.1426 60.4539C24.1101 60.4725 24.0746 60.4813 24.0396 60.4813ZM56.3125 69.9105C56.2328 69.9105 56.1567 69.8646 56.1221 69.787L53.0625 62.9297C53.0156 62.8246 53.0628 62.7014 53.1679 62.6545C53.273 62.6079 53.3962 62.6547 53.4431 62.7599L56.5027 69.6172C56.5496 69.7223 56.5024 69.8454 56.3973 69.8924C56.3697 69.9047 56.3408 69.9105 56.3125 69.9105ZM62.7238 43.615C62.6305 43.615 62.5457 43.552 62.5219 43.4575C62.4937 43.3459 62.5615 43.2327 62.673 43.2046L71.8459 40.895C71.9573 40.8667 72.0707 40.9346 72.0989 41.0461C72.127 41.1577 72.0593 41.2709 71.9477 41.299L62.7748 43.6086C62.7577 43.613 62.7406 43.615 62.7238 43.615ZM38.4097 34.9675C38.3403 34.9675 38.2726 34.9329 38.233 34.8698L34.0547 28.2107C33.9935 28.1132 34.023 27.9847 34.1204 27.9235C34.2179 27.8626 34.3466 27.8919 34.4076 27.9892L38.5859 34.6483C38.6471 34.7458 38.6176 34.8744 38.5202 34.9355C38.4858 34.9571 38.4475 34.9674 38.4097 34.9674V34.9675Z" fill="black"/>
</g>
</svg>
